<svg xmlns="http://www.w3.org/2000/svg" xmlns:xlink="http://www.w3.org/1999/xlink" width="413" zoomAndPan="magnify" viewBox="0 0 309.75 299.25" height="399" preserveAspectRatio="xMidYMid meet" version="1.0"><defs><g/><clipPath id="5c7c1badaf"><path d="M 59 0 L 250.808594 0 L 250.808594 229.675781 L 59 229.675781 Z M 59 0 " clip-rule="nonzero"/></clipPath><clipPath id="7223d35cba"><rect x="0" width="284" y="0" height="64"/></clipPath></defs><g clip-path="url(#5c7c1badaf)"><path fill="#867baa" d="M 238.273438 30.074219 L 198.660156 2.347656 C 195.746094 0.304688 191.933594 0.0546875 188.769531 1.703125 C 185.613281 3.34375 183.628906 6.613281 183.628906 10.171875 L 183.628906 34.054688 L 145.417969 34.054688 C 129.617188 34.054688 116.761719 46.910156 116.761719 62.710938 L 116.761719 105.699219 L 92.058594 105.699219 L 104.410156 93.347656 C 108.140625 89.617188 108.140625 83.566406 104.410156 79.839844 C 100.675781 76.105469 94.632812 76.105469 90.902344 79.839844 L 62.242188 108.496094 C 58.511719 112.226562 58.511719 118.277344 62.242188 122.003906 L 90.902344 150.664062 C 92.765625 152.527344 95.210938 153.460938 97.65625 153.460938 C 100.101562 153.460938 102.542969 152.527344 104.410156 150.664062 C 108.140625 146.933594 108.140625 140.882812 104.410156 137.15625 L 92.058594 124.804688 L 116.761719 124.804688 L 116.761719 167.789062 C 116.761719 183.589844 129.617188 196.445312 145.417969 196.445312 L 183.628906 196.445312 L 183.628906 220.328125 C 183.628906 223.886719 185.613281 227.15625 188.769531 228.800781 C 190.160156 229.523438 191.671875 229.878906 193.183594 229.878906 C 195.109375 229.878906 197.027344 229.300781 198.65625 228.15625 L 238.269531 200.425781 C 245.925781 195.066406 250.496094 186.289062 250.496094 176.945312 L 250.496094 53.550781 C 250.503906 44.210938 245.929688 35.433594 238.273438 30.074219 Z M 145.421875 177.339844 C 140.15625 177.339844 135.871094 173.058594 135.871094 167.789062 L 135.871094 124.804688 L 169.300781 124.804688 C 174.578125 124.804688 178.855469 120.527344 178.855469 115.25 C 178.855469 109.976562 174.578125 105.699219 169.300781 105.699219 L 135.871094 105.699219 L 135.871094 62.710938 C 135.871094 57.445312 140.15625 53.160156 145.421875 53.160156 L 183.632812 53.160156 L 183.632812 177.34375 L 145.421875 177.34375 Z M 231.398438 176.945312 C 231.398438 180.0625 229.871094 182.988281 227.324219 184.769531 L 202.738281 201.980469 L 202.738281 28.519531 L 227.324219 45.726562 C 229.871094 47.511719 231.398438 50.4375 231.398438 53.550781 Z M 231.398438 176.945312 " fill-opacity="1" fill-rule="nonzero"/></g><g transform="matrix(1, 0, 0, 1, 14, 225)"><g clip-path="url(#7223d35cba)"><g fill="#000000" fill-opacity="1"><g transform="translate(0.794971, 49.216406)"><g><path d="M 13.828125 0.453125 C 10.253906 0.453125 7.488281 -0.644531 5.53125 -2.84375 C 3.570312 -5.050781 2.59375 -8.164062 2.59375 -12.1875 C 2.59375 -16.3125 3.585938 -19.5 5.578125 -21.75 C 7.566406 -24.007812 10.398438 -25.140625 14.078125 -25.140625 C 15.265625 -25.140625 16.445312 -25.007812 17.625 -24.75 C 18.8125 -24.5 19.742188 -24.195312 20.421875 -23.84375 L 19.28125 -20.671875 C 18.457031 -21.003906 17.554688 -21.28125 16.578125 -21.5 C 15.597656 -21.71875 14.734375 -21.828125 13.984375 -21.828125 C 8.972656 -21.828125 6.46875 -18.628906 6.46875 -12.234375 C 6.46875 -9.203125 7.078125 -6.875 8.296875 -5.25 C 9.523438 -3.625 11.335938 -2.8125 13.734375 -2.8125 C 15.796875 -2.8125 17.90625 -3.253906 20.0625 -4.140625 L 20.0625 -0.828125 C 18.414062 0.0234375 16.335938 0.453125 13.828125 0.453125 Z M 13.828125 0.453125 "/></g></g><g transform="translate(22.752447, 49.216406)"><g><path d="M 14.390625 0.453125 C 10.742188 0.453125 7.863281 -0.65625 5.75 -2.875 C 3.644531 -5.101562 2.59375 -8.191406 2.59375 -12.140625 C 2.59375 -16.117188 3.570312 -19.28125 5.53125 -21.625 C 7.488281 -23.96875 10.117188 -25.140625 13.421875 -25.140625 C 16.515625 -25.140625 18.960938 -24.117188 20.765625 -22.078125 C 22.566406 -20.046875 23.46875 -17.363281 23.46875 -14.03125 L 23.46875 -11.671875 L 6.46875 -11.671875 C 6.539062 -8.765625 7.269531 -6.5625 8.65625 -5.0625 C 10.050781 -3.5625 12.007812 -2.8125 14.53125 -2.8125 C 17.1875 -2.8125 19.8125 -3.367188 22.40625 -4.484375 L 22.40625 -1.15625 C 21.082031 -0.582031 19.832031 -0.171875 18.65625 0.078125 C 17.476562 0.328125 16.054688 0.453125 14.390625 0.453125 Z M 13.375 -22 C 11.394531 -22 9.816406 -21.351562 8.640625 -20.0625 C 7.460938 -18.769531 6.765625 -16.984375 6.546875 -14.703125 L 19.453125 -14.703125 C 19.453125 -17.066406 18.925781 -18.875 17.875 -20.125 C 16.832031 -21.375 15.332031 -22 13.375 -22 Z M 13.375 -22 "/></g></g><g transform="translate(48.628487, 49.216406)"><g><path d="M 15.21875 -25.140625 C 16.320312 -25.140625 17.304688 -25.046875 18.171875 -24.859375 L 17.65625 -21.390625 C 16.632812 -21.617188 15.734375 -21.734375 14.953125 -21.734375 C 12.953125 -21.734375 11.242188 -20.921875 9.828125 -19.296875 C 8.410156 -17.679688 7.703125 -15.664062 7.703125 -13.25 L 7.703125 0 L 3.96875 0 L 3.96875 -24.6875 L 7.046875 -24.6875 L 7.484375 -20.109375 L 7.65625 -20.109375 C 8.570312 -21.710938 9.675781 -22.953125 10.96875 -23.828125 C 12.257812 -24.703125 13.675781 -25.140625 15.21875 -25.140625 Z M 15.21875 -25.140625 "/></g></g><g transform="translate(67.455615, 49.216406)"><g><path d="M 15.21875 -25.140625 C 16.320312 -25.140625 17.304688 -25.046875 18.171875 -24.859375 L 17.65625 -21.390625 C 16.632812 -21.617188 15.734375 -21.734375 14.953125 -21.734375 C 12.953125 -21.734375 11.242188 -20.921875 9.828125 -19.296875 C 8.410156 -17.679688 7.703125 -15.664062 7.703125 -13.25 L 7.703125 0 L 3.96875 0 L 3.96875 -24.6875 L 7.046875 -24.6875 L 7.484375 -20.109375 L 7.65625 -20.109375 C 8.570312 -21.710938 9.675781 -22.953125 10.96875 -23.828125 C 12.257812 -24.703125 13.675781 -25.140625 15.21875 -25.140625 Z M 15.21875 -25.140625 "/></g></g><g transform="translate(86.282743, 49.216406)"><g><path d="M 19.140625 0 L 18.40625 -3.515625 L 18.21875 -3.515625 C 16.988281 -1.960938 15.757812 -0.910156 14.53125 -0.359375 C 13.3125 0.179688 11.785156 0.453125 9.953125 0.453125 C 7.503906 0.453125 5.582031 -0.175781 4.1875 -1.4375 C 2.800781 -2.695312 2.109375 -4.492188 2.109375 -6.828125 C 2.109375 -11.804688 6.097656 -14.414062 14.078125 -14.65625 L 18.265625 -14.796875 L 18.265625 -16.328125 C 18.265625 -18.265625 17.847656 -19.691406 17.015625 -20.609375 C 16.179688 -21.535156 14.847656 -22 13.015625 -22 C 10.960938 -22 8.632812 -21.367188 6.03125 -20.109375 L 4.890625 -22.96875 C 6.109375 -23.632812 7.441406 -24.15625 8.890625 -24.53125 C 10.335938 -24.90625 11.789062 -25.09375 13.25 -25.09375 C 16.1875 -25.09375 18.363281 -24.4375 19.78125 -23.125 C 21.195312 -21.820312 21.90625 -19.726562 21.90625 -16.84375 L 21.90625 0 Z M 10.703125 -2.640625 C 13.023438 -2.640625 14.847656 -3.273438 16.171875 -4.546875 C 17.503906 -5.828125 18.171875 -7.613281 18.171875 -9.90625 L 18.171875 -12.140625 L 14.4375 -11.984375 C 11.46875 -11.878906 9.320312 -11.414062 8 -10.59375 C 6.6875 -9.78125 6.03125 -8.507812 6.03125 -6.78125 C 6.03125 -5.425781 6.4375 -4.394531 7.25 -3.6875 C 8.070312 -2.988281 9.222656 -2.640625 10.703125 -2.640625 Z M 10.703125 -2.640625 "/></g></g><g transform="translate(111.933579, 49.216406)"><g><path d="M 15.21875 -25.140625 C 16.320312 -25.140625 17.304688 -25.046875 18.171875 -24.859375 L 17.65625 -21.390625 C 16.632812 -21.617188 15.734375 -21.734375 14.953125 -21.734375 C 12.953125 -21.734375 11.242188 -20.921875 9.828125 -19.296875 C 8.410156 -17.679688 7.703125 -15.664062 7.703125 -13.25 L 7.703125 0 L 3.96875 0 L 3.96875 -24.6875 L 7.046875 -24.6875 L 7.484375 -20.109375 L 7.65625 -20.109375 C 8.570312 -21.710938 9.675781 -22.953125 10.96875 -23.828125 C 12.257812 -24.703125 13.675781 -25.140625 15.21875 -25.140625 Z M 15.21875 -25.140625 "/></g></g><g transform="translate(130.760707, 49.216406)"><g/></g><g transform="translate(142.741607, 49.216406)"><g><path d="M 19.890625 -6.734375 C 19.890625 -4.429688 19.03125 -2.65625 17.3125 -1.40625 C 15.601562 -0.164062 13.203125 0.453125 10.109375 0.453125 C 6.835938 0.453125 4.285156 -0.0664062 2.453125 -1.109375 L 2.453125 -4.578125 C 3.640625 -3.972656 4.910156 -3.5 6.265625 -3.15625 C 7.628906 -2.8125 8.941406 -2.640625 10.203125 -2.640625 C 12.148438 -2.640625 13.648438 -2.945312 14.703125 -3.5625 C 15.753906 -4.1875 16.28125 -5.140625 16.28125 -6.421875 C 16.28125 -7.378906 15.863281 -8.195312 15.03125 -8.875 C 14.195312 -9.5625 12.570312 -10.375 10.15625 -11.3125 C 7.863281 -12.164062 6.234375 -12.910156 5.265625 -13.546875 C 4.296875 -14.179688 3.570312 -14.90625 3.09375 -15.71875 C 2.625 -16.53125 2.390625 -17.5 2.390625 -18.625 C 2.390625 -20.632812 3.207031 -22.222656 4.84375 -23.390625 C 6.476562 -24.554688 8.722656 -25.140625 11.578125 -25.140625 C 14.234375 -25.140625 16.832031 -24.597656 19.375 -23.515625 L 18.046875 -20.46875 C 15.566406 -21.488281 13.320312 -22 11.3125 -22 C 9.539062 -22 8.203125 -21.722656 7.296875 -21.171875 C 6.398438 -20.617188 5.953125 -19.851562 5.953125 -18.875 C 5.953125 -18.207031 6.117188 -17.640625 6.453125 -17.171875 C 6.785156 -16.710938 7.328125 -16.269531 8.078125 -15.84375 C 8.835938 -15.425781 10.28125 -14.820312 12.40625 -14.03125 C 15.332031 -12.96875 17.3125 -11.894531 18.34375 -10.8125 C 19.375 -9.726562 19.890625 -8.367188 19.890625 -6.734375 Z M 19.890625 -6.734375 "/></g></g><g transform="translate(164.744123, 49.216406)"><g><path d="M 14.390625 0.453125 C 10.742188 0.453125 7.863281 -0.65625 5.75 -2.875 C 3.644531 -5.101562 2.59375 -8.191406 2.59375 -12.140625 C 2.59375 -16.117188 3.570312 -19.28125 5.53125 -21.625 C 7.488281 -23.96875 10.117188 -25.140625 13.421875 -25.140625 C 16.515625 -25.140625 18.960938 -24.117188 20.765625 -22.078125 C 22.566406 -20.046875 23.46875 -17.363281 23.46875 -14.03125 L 23.46875 -11.671875 L 6.46875 -11.671875 C 6.539062 -8.765625 7.269531 -6.5625 8.65625 -5.0625 C 10.050781 -3.5625 12.007812 -2.8125 14.53125 -2.8125 C 17.1875 -2.8125 19.8125 -3.367188 22.40625 -4.484375 L 22.40625 -1.15625 C 21.082031 -0.582031 19.832031 -0.171875 18.65625 0.078125 C 17.476562 0.328125 16.054688 0.453125 14.390625 0.453125 Z M 13.375 -22 C 11.394531 -22 9.816406 -21.351562 8.640625 -20.0625 C 7.460938 -18.769531 6.765625 -16.984375 6.546875 -14.703125 L 19.453125 -14.703125 C 19.453125 -17.066406 18.925781 -18.875 17.875 -20.125 C 16.832031 -21.375 15.332031 -22 13.375 -22 Z M 13.375 -22 "/></g></g><g transform="translate(190.620164, 49.216406)"><g><path d="M 19.890625 -6.734375 C 19.890625 -4.429688 19.03125 -2.65625 17.3125 -1.40625 C 15.601562 -0.164062 13.203125 0.453125 10.109375 0.453125 C 6.835938 0.453125 4.285156 -0.0664062 2.453125 -1.109375 L 2.453125 -4.578125 C 3.640625 -3.972656 4.910156 -3.5 6.265625 -3.15625 C 7.628906 -2.8125 8.941406 -2.640625 10.203125 -2.640625 C 12.148438 -2.640625 13.648438 -2.945312 14.703125 -3.5625 C 15.753906 -4.1875 16.28125 -5.140625 16.28125 -6.421875 C 16.28125 -7.378906 15.863281 -8.195312 15.03125 -8.875 C 14.195312 -9.5625 12.570312 -10.375 10.15625 -11.3125 C 7.863281 -12.164062 6.234375 -12.910156 5.265625 -13.546875 C 4.296875 -14.179688 3.570312 -14.90625 3.09375 -15.71875 C 2.625 -16.53125 2.390625 -17.5 2.390625 -18.625 C 2.390625 -20.632812 3.207031 -22.222656 4.84375 -23.390625 C 6.476562 -24.554688 8.722656 -25.140625 11.578125 -25.140625 C 14.234375 -25.140625 16.832031 -24.597656 19.375 -23.515625 L 18.046875 -20.46875 C 15.566406 -21.488281 13.320312 -22 11.3125 -22 C 9.539062 -22 8.203125 -21.722656 7.296875 -21.171875 C 6.398438 -20.617188 5.953125 -19.851562 5.953125 -18.875 C 5.953125 -18.207031 6.117188 -17.640625 6.453125 -17.171875 C 6.785156 -16.710938 7.328125 -16.269531 8.078125 -15.84375 C 8.835938 -15.425781 10.28125 -14.820312 12.40625 -14.03125 C 15.332031 -12.96875 17.3125 -11.894531 18.34375 -10.8125 C 19.375 -9.726562 19.890625 -8.367188 19.890625 -6.734375 Z M 19.890625 -6.734375 "/></g></g><g transform="translate(212.62268, 49.216406)"><g><path d="M 7.703125 0 L 3.96875 0 L 3.96875 -24.6875 L 7.703125 -24.6875 Z M 3.65625 -31.375 C 3.65625 -32.226562 3.863281 -32.851562 4.28125 -33.25 C 4.695312 -33.644531 5.222656 -33.84375 5.859375 -33.84375 C 6.453125 -33.84375 6.96875 -33.640625 7.40625 -33.234375 C 7.84375 -32.835938 8.0625 -32.21875 8.0625 -31.375 C 8.0625 -30.53125 7.84375 -29.898438 7.40625 -29.484375 C 6.96875 -29.078125 6.453125 -28.875 5.859375 -28.875 C 5.222656 -28.875 4.695312 -29.078125 4.28125 -29.484375 C 3.863281 -29.898438 3.65625 -30.53125 3.65625 -31.375 Z M 3.65625 -31.375 "/></g></g><g transform="translate(224.288293, 49.216406)"><g><path d="M 25.265625 -12.359375 C 25.265625 -8.335938 24.25 -5.195312 22.21875 -2.9375 C 20.195312 -0.675781 17.398438 0.453125 13.828125 0.453125 C 11.617188 0.453125 9.65625 -0.0625 7.9375 -1.09375 C 6.226562 -2.132812 4.910156 -3.625 3.984375 -5.5625 C 3.054688 -7.5 2.59375 -9.765625 2.59375 -12.359375 C 2.59375 -16.390625 3.597656 -19.523438 5.609375 -21.765625 C 7.617188 -24.015625 10.410156 -25.140625 13.984375 -25.140625 C 17.441406 -25.140625 20.1875 -23.988281 22.21875 -21.6875 C 24.25 -19.394531 25.265625 -16.285156 25.265625 -12.359375 Z M 6.46875 -12.359375 C 6.46875 -9.210938 7.097656 -6.8125 8.359375 -5.15625 C 9.617188 -3.507812 11.472656 -2.6875 13.921875 -2.6875 C 16.367188 -2.6875 18.222656 -3.503906 19.484375 -5.140625 C 20.753906 -6.785156 21.390625 -9.191406 21.390625 -12.359375 C 21.390625 -15.503906 20.753906 -17.890625 19.484375 -19.515625 C 18.222656 -21.140625 16.351562 -21.953125 13.875 -21.953125 C 11.425781 -21.953125 9.578125 -21.148438 8.328125 -19.546875 C 7.085938 -17.941406 6.46875 -15.546875 6.46875 -12.359375 Z M 10.78125 -28.515625 C 11.507812 -29.441406 12.289062 -30.566406 13.125 -31.890625 C 13.957031 -33.210938 14.613281 -34.363281 15.09375 -35.34375 L 19.640625 -35.34375 L 19.640625 -34.859375 C 18.984375 -33.890625 18 -32.691406 16.6875 -31.265625 C 15.382812 -29.835938 14.25 -28.734375 13.28125 -27.953125 L 10.78125 -27.953125 Z M 10.78125 -28.515625 "/></g></g><g transform="translate(252.146136, 49.216406)"><g><path d="M 20.859375 0 L 20.859375 -15.96875 C 20.859375 -17.976562 20.398438 -19.476562 19.484375 -20.46875 C 18.566406 -21.457031 17.132812 -21.953125 15.1875 -21.953125 C 12.601562 -21.953125 10.707031 -21.253906 9.5 -19.859375 C 8.300781 -18.460938 7.703125 -16.160156 7.703125 -12.953125 L 7.703125 0 L 3.96875 0 L 3.96875 -24.6875 L 7 -24.6875 L 7.609375 -21.3125 L 7.796875 -21.3125 C 8.554688 -22.519531 9.625 -23.457031 11 -24.125 C 12.382812 -24.800781 13.925781 -25.140625 15.625 -25.140625 C 18.601562 -25.140625 20.84375 -24.421875 22.34375 -22.984375 C 23.84375 -21.546875 24.59375 -19.253906 24.59375 -16.109375 L 24.59375 0 Z M 20.859375 0 "/></g></g></g></g></g></svg>