<svg xmlns="http://www.w3.org/2000/svg" xmlns:xlink="http://www.w3.org/1999/xlink" width="372" zoomAndPan="magnify" viewBox="0 0 279 207.75" height="277" preserveAspectRatio="xMidYMid meet" version="1.0"><defs><g/><clipPath id="730ebef4f8"><path d="M 24.429688 0 L 254.402344 0 L 254.402344 137.835938 L 24.429688 137.835938 Z M 24.429688 0 " clip-rule="nonzero"/></clipPath><clipPath id="1535108332"><rect x="0" width="244" y="0" height="65"/></clipPath></defs><g clip-path="url(#730ebef4f8)"><path fill="#867baa" d="M 234.820312 0 L 44.148438 0 C 33.273438 0 24.429688 8.84375 24.429688 19.722656 L 24.429688 118.339844 C 24.429688 129.222656 33.273438 138.066406 44.148438 138.066406 L 234.8125 138.066406 C 245.699219 138.066406 254.542969 129.222656 254.542969 118.347656 L 254.542969 19.722656 C 254.542969 8.84375 245.699219 0 234.820312 0 Z M 44.148438 7.671875 L 234.8125 7.671875 C 241.464844 7.671875 246.871094 13.078125 246.871094 19.722656 L 246.871094 111.359375 L 32.097656 111.359375 L 32.097656 19.722656 C 32.097656 13.078125 37.507812 7.671875 44.148438 7.671875 Z M 234.820312 130.398438 L 44.148438 130.398438 C 37.734375 130.398438 32.527344 125.351562 32.167969 119.03125 L 246.800781 119.03125 C 246.441406 125.351562 241.226562 130.398438 234.820312 130.398438 Z M 234.820312 130.398438 " fill-opacity="1" fill-rule="nonzero"/></g><path fill="#867baa" d="M 51.480469 97.253906 L 99.957031 97.253906 C 106.492188 97.253906 111.808594 91.9375 111.808594 85.402344 L 111.808594 36.917969 C 111.808594 30.382812 106.492188 25.074219 99.957031 25.074219 L 51.480469 25.074219 C 44.945312 25.074219 39.628906 30.390625 39.628906 36.917969 L 39.628906 85.402344 C 39.628906 91.9375 44.945312 97.253906 51.480469 97.253906 Z M 60.292969 89.582031 L 60.292969 78.46875 C 60.292969 69.960938 67.214844 63.042969 75.71875 63.042969 C 84.226562 63.042969 91.144531 69.960938 91.144531 78.46875 L 91.144531 89.582031 Z M 69.390625 49.039062 C 69.390625 45.539062 72.238281 42.703125 75.726562 42.703125 C 79.21875 42.703125 82.0625 45.546875 82.0625 49.039062 C 82.0625 52.527344 79.21875 55.371094 75.726562 55.371094 C 72.238281 55.371094 69.390625 52.527344 69.390625 49.039062 Z M 47.300781 36.910156 C 47.300781 34.609375 49.179688 32.738281 51.480469 32.738281 L 99.964844 32.738281 C 102.269531 32.738281 104.148438 34.609375 104.148438 36.910156 L 104.148438 85.394531 C 104.148438 87.695312 102.269531 89.574219 99.964844 89.574219 L 98.824219 89.574219 L 98.824219 78.46875 C 98.824219 69.578125 93.714844 61.929688 86.335938 58.074219 C 88.421875 55.625 89.734375 52.496094 89.734375 49.039062 C 89.734375 41.3125 83.453125 35.03125 75.726562 35.03125 C 68.003906 35.03125 61.722656 41.3125 61.722656 49.039062 C 61.722656 52.496094 63.035156 55.625 65.121094 58.074219 C 57.742188 61.929688 52.632812 69.578125 52.632812 78.46875 L 52.632812 89.582031 L 51.480469 89.582031 C 49.179688 89.582031 47.300781 87.703125 47.300781 85.402344 Z M 47.300781 36.910156 " fill-opacity="1" fill-rule="nonzero"/><path fill="#867baa" d="M 128.9375 72.871094 L 231.667969 72.871094 C 233.785156 72.871094 235.503906 71.152344 235.503906 69.035156 C 235.503906 66.917969 233.785156 65.199219 231.667969 65.199219 L 128.9375 65.199219 C 126.820312 65.199219 125.101562 66.917969 125.101562 69.035156 C 125.101562 71.152344 126.820312 72.871094 128.9375 72.871094 Z M 128.9375 72.871094 " fill-opacity="1" fill-rule="nonzero"/><path fill="#867baa" d="M 128.9375 92.320312 L 197.152344 92.320312 C 199.269531 92.320312 200.988281 90.601562 200.988281 88.488281 C 200.988281 86.371094 199.269531 84.652344 197.152344 84.652344 L 128.9375 84.652344 C 126.820312 84.652344 125.101562 86.371094 125.101562 88.488281 C 125.101562 90.601562 126.820312 92.320312 128.9375 92.320312 Z M 128.9375 92.320312 " fill-opacity="1" fill-rule="nonzero"/><path fill="#867baa" d="M 128.9375 53.417969 L 197.152344 53.417969 C 199.269531 53.417969 200.988281 51.699219 200.988281 49.582031 C 200.988281 47.464844 199.269531 45.746094 197.152344 45.746094 L 128.9375 45.746094 C 126.820312 45.746094 125.101562 47.464844 125.101562 49.582031 C 125.101562 51.699219 126.820312 53.417969 128.9375 53.417969 Z M 128.9375 53.417969 " fill-opacity="1" fill-rule="nonzero"/><path fill="#867baa" d="M 128.9375 33.972656 L 212.355469 33.972656 C 214.472656 33.972656 216.1875 32.253906 216.1875 30.136719 C 216.1875 28.019531 214.472656 26.300781 212.355469 26.300781 L 128.9375 26.300781 C 126.820312 26.300781 125.101562 28.019531 125.101562 30.136719 C 125.101562 32.253906 126.820312 33.972656 128.9375 33.972656 Z M 128.9375 33.972656 " fill-opacity="1" fill-rule="nonzero"/><g transform="matrix(1, 0, 0, 1, 17, 133)"><g clip-path="url(#1535108332)"><g fill="#000000" fill-opacity="1"><g transform="translate(3.2663, 49.524011)"><g><path d="M 22.90625 0 L 4.53125 0 L 4.53125 -32.96875 L 22.90625 -32.96875 L 22.90625 -29.5625 L 8.359375 -29.5625 L 8.359375 -18.9375 L 22.03125 -18.9375 L 22.03125 -15.5625 L 8.359375 -15.5625 L 8.359375 -3.421875 L 22.90625 -3.421875 Z M 22.90625 0 "/></g></g><g transform="translate(28.950516, 49.524011)"><g><path d="M 35.46875 0 L 35.46875 -16.078125 C 35.46875 -18.046875 35.046875 -19.519531 34.203125 -20.5 C 33.367188 -21.488281 32.0625 -21.984375 30.28125 -21.984375 C 27.957031 -21.984375 26.238281 -21.3125 25.125 -19.96875 C 24.007812 -18.632812 23.453125 -16.578125 23.453125 -13.796875 L 23.453125 0 L 19.703125 0 L 19.703125 -16.078125 C 19.703125 -18.046875 19.28125 -19.519531 18.4375 -20.5 C 17.601562 -21.488281 16.289062 -21.984375 14.5 -21.984375 C 12.15625 -21.984375 10.4375 -21.28125 9.34375 -19.875 C 8.257812 -18.46875 7.71875 -16.164062 7.71875 -12.96875 L 7.71875 0 L 3.96875 0 L 3.96875 -24.71875 L 7.015625 -24.71875 L 7.625 -21.328125 L 7.796875 -21.328125 C 8.503906 -22.535156 9.5 -23.476562 10.78125 -24.15625 C 12.070312 -24.832031 13.515625 -25.171875 15.109375 -25.171875 C 18.972656 -25.171875 21.5 -23.769531 22.6875 -20.96875 L 22.875 -20.96875 C 23.601562 -22.257812 24.664062 -23.28125 26.0625 -24.03125 C 27.46875 -24.789062 29.066406 -25.171875 30.859375 -25.171875 C 33.648438 -25.171875 35.738281 -24.453125 37.125 -23.015625 C 38.519531 -21.578125 39.21875 -19.28125 39.21875 -16.125 L 39.21875 0 Z M 35.46875 0 "/></g></g><g transform="translate(71.907874, 49.524011)"><g><path d="M 15.46875 0.453125 C 13.863281 0.453125 12.394531 0.15625 11.0625 -0.4375 C 9.726562 -1.03125 8.613281 -1.945312 7.71875 -3.1875 L 7.4375 -3.1875 C 7.625 -1.738281 7.71875 -0.367188 7.71875 0.921875 L 7.71875 11.09375 L 3.96875 11.09375 L 3.96875 -24.71875 L 7.015625 -24.71875 L 7.53125 -21.328125 L 7.71875 -21.328125 C 8.675781 -22.679688 9.789062 -23.660156 11.0625 -24.265625 C 12.34375 -24.867188 13.8125 -25.171875 15.46875 -25.171875 C 18.75 -25.171875 21.28125 -24.050781 23.0625 -21.8125 C 24.84375 -19.570312 25.734375 -16.425781 25.734375 -12.375 C 25.734375 -8.320312 24.828125 -5.171875 23.015625 -2.921875 C 21.203125 -0.671875 18.6875 0.453125 15.46875 0.453125 Z M 14.9375 -21.984375 C 12.40625 -21.984375 10.578125 -21.285156 9.453125 -19.890625 C 8.328125 -18.492188 7.75 -16.269531 7.71875 -13.21875 L 7.71875 -12.375 C 7.71875 -8.90625 8.296875 -6.421875 9.453125 -4.921875 C 10.609375 -3.429688 12.460938 -2.6875 15.015625 -2.6875 C 17.148438 -2.6875 18.820312 -3.550781 20.03125 -5.28125 C 21.25 -7.007812 21.859375 -9.390625 21.859375 -12.421875 C 21.859375 -15.503906 21.25 -17.867188 20.03125 -19.515625 C 18.820312 -21.160156 17.125 -21.984375 14.9375 -21.984375 Z M 14.9375 -21.984375 "/></g></g><g transform="translate(100.207866, 49.524011)"><g><path d="M 7.71875 0 L 3.96875 0 L 3.96875 -35.09375 L 7.71875 -35.09375 Z M 7.71875 0 "/></g></g><g transform="translate(111.88866, 49.524011)"><g><path d="M 14.40625 0.453125 C 10.757812 0.453125 7.878906 -0.65625 5.765625 -2.875 C 3.648438 -5.101562 2.59375 -8.195312 2.59375 -12.15625 C 2.59375 -16.132812 3.570312 -19.296875 5.53125 -21.640625 C 7.5 -23.992188 10.132812 -25.171875 13.4375 -25.171875 C 16.539062 -25.171875 18.992188 -24.148438 20.796875 -22.109375 C 22.597656 -20.078125 23.5 -17.390625 23.5 -14.046875 L 23.5 -11.6875 L 6.46875 -11.6875 C 6.539062 -8.78125 7.269531 -6.570312 8.65625 -5.0625 C 10.050781 -3.5625 12.015625 -2.8125 14.546875 -2.8125 C 17.203125 -2.8125 19.832031 -3.367188 22.4375 -4.484375 L 22.4375 -1.15625 C 21.113281 -0.582031 19.863281 -0.171875 18.6875 0.078125 C 17.507812 0.328125 16.082031 0.453125 14.40625 0.453125 Z M 13.390625 -22.03125 C 11.410156 -22.03125 9.828125 -21.382812 8.640625 -20.09375 C 7.460938 -18.800781 6.769531 -17.015625 6.5625 -14.734375 L 19.484375 -14.734375 C 19.484375 -17.085938 18.957031 -18.890625 17.90625 -20.140625 C 16.851562 -21.398438 15.347656 -22.03125 13.390625 -22.03125 Z M 13.390625 -22.03125 "/></g></g><g transform="translate(137.798374, 49.524011)"><g><path d="M 19.171875 0 L 18.421875 -3.515625 L 18.25 -3.515625 C 17.007812 -1.960938 15.773438 -0.910156 14.546875 -0.359375 C 13.328125 0.179688 11.800781 0.453125 9.96875 0.453125 C 7.519531 0.453125 5.597656 -0.175781 4.203125 -1.4375 C 2.816406 -2.707031 2.125 -4.503906 2.125 -6.828125 C 2.125 -11.828125 6.113281 -14.445312 14.09375 -14.6875 L 18.296875 -14.8125 L 18.296875 -16.34375 C 18.296875 -18.289062 17.875 -19.722656 17.03125 -20.640625 C 16.195312 -21.566406 14.863281 -22.03125 13.03125 -22.03125 C 10.976562 -22.03125 8.648438 -21.398438 6.046875 -20.140625 L 4.890625 -23 C 6.109375 -23.664062 7.441406 -24.1875 8.890625 -24.5625 C 10.347656 -24.9375 11.804688 -25.125 13.265625 -25.125 C 16.210938 -25.125 18.394531 -24.46875 19.8125 -23.15625 C 21.226562 -21.851562 21.9375 -19.757812 21.9375 -16.875 L 21.9375 0 Z M 10.71875 -2.640625 C 13.039062 -2.640625 14.867188 -3.273438 16.203125 -4.546875 C 17.535156 -5.828125 18.203125 -7.617188 18.203125 -9.921875 L 18.203125 -12.15625 L 14.453125 -12 C 11.472656 -11.894531 9.328125 -11.429688 8.015625 -10.609375 C 6.703125 -9.785156 6.046875 -8.507812 6.046875 -6.78125 C 6.046875 -5.4375 6.453125 -4.410156 7.265625 -3.703125 C 8.085938 -2.992188 9.238281 -2.640625 10.71875 -2.640625 Z M 10.71875 -2.640625 "/></g></g><g transform="translate(163.482589, 49.524011)"><g><path d="M 20.796875 -3.3125 L 20.59375 -3.3125 C 18.863281 -0.800781 16.273438 0.453125 12.828125 0.453125 C 9.597656 0.453125 7.082031 -0.648438 5.28125 -2.859375 C 3.488281 -5.066406 2.59375 -8.210938 2.59375 -12.296875 C 2.59375 -16.367188 3.492188 -19.53125 5.296875 -21.78125 C 7.097656 -24.039062 9.609375 -25.171875 12.828125 -25.171875 C 16.179688 -25.171875 18.753906 -23.953125 20.546875 -21.515625 L 20.84375 -21.515625 L 20.6875 -23.296875 L 20.59375 -25.03125 L 20.59375 -35.09375 L 24.328125 -35.09375 L 24.328125 0 L 21.296875 0 Z M 13.3125 -2.6875 C 15.863281 -2.6875 17.710938 -3.378906 18.859375 -4.765625 C 20.015625 -6.160156 20.59375 -8.40625 20.59375 -11.5 L 20.59375 -12.296875 C 20.59375 -15.796875 20.007812 -18.289062 18.84375 -19.78125 C 17.675781 -21.28125 15.816406 -22.03125 13.265625 -22.03125 C 11.066406 -22.03125 9.382812 -21.175781 8.21875 -19.46875 C 7.050781 -17.769531 6.46875 -15.363281 6.46875 -12.25 C 6.46875 -9.09375 7.046875 -6.707031 8.203125 -5.09375 C 9.367188 -3.488281 11.070312 -2.6875 13.3125 -2.6875 Z M 13.3125 -2.6875 "/></g></g><g transform="translate(191.782581, 49.524011)"><g><path d="M 25.296875 -12.375 C 25.296875 -8.351562 24.28125 -5.207031 22.25 -2.9375 C 20.226562 -0.675781 17.425781 0.453125 13.84375 0.453125 C 11.632812 0.453125 9.671875 -0.0625 7.953125 -1.09375 C 6.242188 -2.132812 4.921875 -3.625 3.984375 -5.5625 C 3.054688 -7.507812 2.59375 -9.78125 2.59375 -12.375 C 2.59375 -16.40625 3.597656 -19.546875 5.609375 -21.796875 C 7.628906 -24.046875 10.425781 -25.171875 14 -25.171875 C 17.457031 -25.171875 20.203125 -24.019531 22.234375 -21.71875 C 24.273438 -19.414062 25.296875 -16.300781 25.296875 -12.375 Z M 6.46875 -12.375 C 6.46875 -9.21875 7.097656 -6.8125 8.359375 -5.15625 C 9.628906 -3.507812 11.488281 -2.6875 13.9375 -2.6875 C 16.382812 -2.6875 18.242188 -3.507812 19.515625 -5.15625 C 20.785156 -6.800781 21.421875 -9.207031 21.421875 -12.375 C 21.421875 -15.519531 20.785156 -17.90625 19.515625 -19.53125 C 18.242188 -21.164062 16.367188 -21.984375 13.890625 -21.984375 C 11.441406 -21.984375 9.59375 -21.175781 8.34375 -19.5625 C 7.09375 -17.957031 6.46875 -15.5625 6.46875 -12.375 Z M 6.46875 -12.375 "/></g></g><g transform="translate(219.676677, 49.524011)"><g><path d="M 19.90625 -6.75 C 19.90625 -4.445312 19.046875 -2.671875 17.328125 -1.421875 C 15.617188 -0.171875 13.21875 0.453125 10.125 0.453125 C 6.84375 0.453125 4.285156 -0.0664062 2.453125 -1.109375 L 2.453125 -4.578125 C 3.640625 -3.972656 4.914062 -3.5 6.28125 -3.15625 C 7.644531 -2.8125 8.957031 -2.640625 10.21875 -2.640625 C 12.164062 -2.640625 13.664062 -2.953125 14.71875 -3.578125 C 15.78125 -4.203125 16.3125 -5.148438 16.3125 -6.421875 C 16.3125 -7.390625 15.890625 -8.210938 15.046875 -8.890625 C 14.210938 -9.578125 12.585938 -10.390625 10.171875 -11.328125 C 7.867188 -12.179688 6.234375 -12.925781 5.265625 -13.5625 C 4.296875 -14.207031 3.570312 -14.929688 3.09375 -15.734375 C 2.625 -16.546875 2.390625 -17.519531 2.390625 -18.65625 C 2.390625 -20.664062 3.207031 -22.253906 4.84375 -23.421875 C 6.488281 -24.585938 8.738281 -25.171875 11.59375 -25.171875 C 14.25 -25.171875 16.847656 -24.628906 19.390625 -23.546875 L 18.0625 -20.5 C 15.582031 -21.519531 13.335938 -22.03125 11.328125 -22.03125 C 9.546875 -22.03125 8.203125 -21.75 7.296875 -21.1875 C 6.398438 -20.632812 5.953125 -19.875 5.953125 -18.90625 C 5.953125 -18.238281 6.117188 -17.671875 6.453125 -17.203125 C 6.796875 -16.742188 7.34375 -16.300781 8.09375 -15.875 C 8.84375 -15.457031 10.285156 -14.847656 12.421875 -14.046875 C 15.359375 -12.984375 17.335938 -11.910156 18.359375 -10.828125 C 19.390625 -9.742188 19.90625 -8.382812 19.90625 -6.75 Z M 19.90625 -6.75 "/></g></g></g></g></g></svg>