<svg xmlns="http://www.w3.org/2000/svg" xmlns:xlink="http://www.w3.org/1999/xlink" width="428" zoomAndPan="magnify" viewBox="0 0 321 299.25" height="399" preserveAspectRatio="xMidYMid meet" version="1.0"><defs><g/><clipPath id="953a2ede2a"><path d="M 46.296875 0 L 274 0 L 274 229.675781 L 46.296875 229.675781 Z M 46.296875 0 " clip-rule="nonzero"/></clipPath><clipPath id="3a2e13928d"><rect x="0" width="287" y="0" height="64"/></clipPath></defs><g clip-path="url(#953a2ede2a)"><path fill="#867baa" d="M 118.765625 65.289062 C 111.449219 65.289062 105.496094 71.242188 105.496094 78.558594 C 105.496094 85.875 111.449219 91.828125 118.765625 91.828125 C 126.082031 91.828125 132.035156 85.875 132.035156 78.558594 C 132.035156 71.242188 126.082031 65.289062 118.765625 65.289062 Z M 118.765625 84.433594 C 115.523438 84.433594 112.890625 81.796875 112.890625 78.558594 C 112.890625 75.320312 115.523438 72.683594 118.765625 72.683594 C 122.003906 72.683594 124.640625 75.320312 124.640625 78.558594 C 124.640625 81.796875 122.003906 84.433594 118.765625 84.433594 Z M 125.914062 33.671875 L 85.59375 89.792969 C 84.40625 91.441406 82.105469 91.816406 80.453125 90.628906 C 78.804688 89.441406 78.429688 87.140625 79.617188 85.488281 L 119.933594 29.367188 C 121.121094 27.71875 123.425781 27.34375 125.074219 28.53125 C 126.726562 29.71875 127.101562 32.019531 125.914062 33.671875 Z M 100 40.1875 C 100 32.871094 94.046875 26.917969 86.730469 26.917969 C 79.414062 26.917969 73.460938 32.871094 73.460938 40.1875 C 73.460938 47.503906 79.414062 53.457031 86.730469 53.457031 C 94.046875 53.457031 100 47.503906 100 40.1875 Z M 80.855469 40.1875 C 80.855469 36.949219 83.488281 34.3125 86.730469 34.3125 C 89.96875 34.3125 92.605469 36.949219 92.605469 40.1875 C 92.605469 43.429688 89.96875 46.066406 86.730469 46.066406 C 83.488281 46.066406 80.855469 43.429688 80.855469 40.1875 Z M 273.746094 97.496094 L 264.78125 49.273438 C 263.667969 43.285156 261.667969 36.503906 255.296875 31.617188 C 249.300781 27.019531 242.691406 26.59375 236.871094 26.957031 L 216.792969 4.636719 C 214.0625 1.597656 210.453125 -0.0117188 206.367188 -0.0117188 L 60.484375 -0.0117188 C 52.75 -0.0117188 46.460938 6.28125 46.460938 14.015625 L 46.460938 104.730469 C 46.460938 112.464844 52.75 118.757812 60.484375 118.757812 L 113.601562 118.757812 L 88.058594 152.050781 C 83.351562 158.1875 84.515625 167.007812 90.648438 171.71875 L 162.625 226.933594 C 165.167969 228.882812 168.167969 229.828125 171.144531 229.828125 C 175.363281 229.828125 179.53125 227.9375 182.289062 224.34375 L 271.085938 108.597656 C 273.574219 105.355469 274.496094 101.515625 273.746094 97.496094 Z M 60.484375 111.363281 C 56.828125 111.363281 53.851562 108.390625 53.851562 104.730469 L 53.851562 14.015625 C 53.851562 10.355469 56.828125 7.382812 60.484375 7.382812 L 206.367188 7.382812 C 208.355469 7.382812 209.96875 8.101562 211.296875 9.578125 L 227.574219 27.675781 L 186.886719 30.863281 C 182.8125 31.179688 179.34375 33.0625 176.855469 36.308594 L 119.273438 111.363281 Z M 265.222656 104.097656 L 176.425781 219.84375 C 174.199219 222.746094 170.027344 223.296875 167.125 221.070312 L 95.148438 165.851562 C 92.25 163.625 91.699219 159.453125 93.925781 156.550781 L 182.71875 40.808594 C 183.929688 39.230469 185.484375 38.386719 187.464844 38.230469 C 187.464844 38.230469 236.363281 34.402344 236.363281 34.402344 C 241.398438 34.007812 246.648438 34.296875 250.796875 37.480469 C 254.335938 40.195312 256.28125 44.003906 257.511719 50.625 L 266.480469 98.847656 C 266.84375 100.804688 266.433594 102.519531 265.222656 104.097656 Z M 240.949219 50.324219 C 235.128906 45.859375 226.765625 46.960938 222.304688 52.78125 C 217.839844 58.597656 218.941406 66.960938 224.757812 71.425781 C 230.503906 75.832031 239.003906 74.703125 243.40625 68.96875 C 247.867188 63.152344 246.765625 54.785156 240.949219 50.324219 Z M 237.539062 64.46875 C 235.582031 67.019531 231.808594 67.515625 229.261719 65.558594 C 226.707031 63.601562 226.210938 59.828125 228.167969 57.28125 C 229.332031 55.765625 231.085938 54.972656 232.859375 54.972656 C 237.628906 54.972656 240.472656 60.644531 237.539062 64.46875 Z M 235.125 96.726562 L 223.105469 112.394531 C 221.871094 114.015625 219.558594 114.324219 217.9375 113.089844 L 186.027344 88.613281 C 184.40625 87.378906 184.097656 85.0625 185.332031 83.445312 C 186.570312 81.828125 188.882812 81.515625 190.5 82.753906 L 219.496094 104.988281 L 229.261719 92.253906 C 230.496094 90.632812 232.8125 90.324219 234.429688 91.558594 C 236.050781 92.796875 236.359375 95.109375 235.125 96.726562 Z M 164.714844 166.238281 C 164.714844 166.238281 148.472656 153.785156 148.46875 153.78125 C 142.710938 149.367188 133.886719 150.527344 129.457031 156.300781 L 123.449219 164.132812 C 122.214844 165.753906 122.523438 168.066406 124.144531 169.304688 L 156.054688 193.777344 C 157.671875 195.015625 159.988281 194.703125 161.222656 193.085938 C 161.222656 193.085938 167.226562 185.261719 167.234375 185.25 C 171.621094 179.53125 170.40625 170.605469 164.714844 166.238281 Z M 161.371094 180.773438 L 157.613281 185.675781 L 131.550781 165.691406 C 131.550781 165.691406 135.320312 160.777344 135.320312 160.777344 C 137.34375 158.136719 141.320312 157.59375 143.992188 159.644531 C 143.992188 159.644531 160.238281 172.101562 160.238281 172.101562 C 162.878906 174.125 163.421875 178.097656 161.371094 180.773438 Z M 193.21875 151.367188 L 181.203125 167.035156 C 179.96875 168.652344 177.652344 168.964844 176.035156 167.726562 L 144.121094 143.253906 C 142.503906 142.015625 142.191406 139.703125 143.429688 138.082031 L 155.445312 122.417969 C 156.679688 120.796875 158.996094 120.488281 160.613281 121.722656 C 162.234375 122.960938 162.542969 125.273438 161.308594 126.890625 L 151.53125 139.640625 L 161.632812 147.386719 L 167.894531 139.222656 C 169.132812 137.605469 171.445312 137.296875 173.066406 138.53125 C 174.683594 139.765625 174.996094 142.082031 173.757812 143.699219 L 167.488281 151.878906 L 177.589844 159.625 L 187.359375 146.890625 C 188.59375 145.273438 190.90625 144.960938 192.527344 146.199219 C 194.144531 147.433594 194.457031 149.746094 193.21875 151.367188 Z M 214.339844 116.539062 L 174.574219 102.300781 L 174.574219 102.308594 C 173.496094 101.925781 172.253906 102.046875 171.238281 102.746094 C 169.566406 103.902344 169.144531 106.199219 170.300781 107.875 L 194.363281 142.585938 C 195.519531 144.257812 197.8125 144.679688 199.488281 143.523438 C 201.164062 142.367188 201.582031 140.070312 200.425781 138.398438 L 194.667969 130.089844 L 202.339844 120.089844 L 211.855469 123.496094 C 213.777344 124.183594 215.890625 123.179688 216.578125 121.257812 C 217.261719 119.335938 216.261719 117.222656 214.339844 116.539062 Z M 190.257812 123.722656 L 182.914062 113.132812 L 195.046875 117.476562 Z M 190.257812 123.722656 " fill-opacity="1" fill-rule="nonzero"/></g><g transform="matrix(1, 0, 0, 1, 17, 225)"><g clip-path="url(#3a2e13928d)"><g fill="#000000" fill-opacity="1"><g transform="translate(2.03245, 49.216406)"><g><path d="M 25.40625 -23.328125 C 25.40625 -19.992188 24.265625 -17.429688 21.984375 -15.640625 C 19.710938 -13.847656 16.460938 -12.953125 12.234375 -12.953125 L 8.359375 -12.953125 L 8.359375 0 L 4.53125 0 L 4.53125 -32.921875 L 13.0625 -32.921875 C 21.289062 -32.921875 25.40625 -29.722656 25.40625 -23.328125 Z M 8.359375 -16.234375 L 11.796875 -16.234375 C 15.191406 -16.234375 17.644531 -16.78125 19.15625 -17.875 C 20.675781 -18.976562 21.4375 -20.738281 21.4375 -23.15625 C 21.4375 -25.332031 20.722656 -26.953125 19.296875 -28.015625 C 17.867188 -29.078125 15.648438 -29.609375 12.640625 -29.609375 L 8.359375 -29.609375 Z M 8.359375 -16.234375 "/></g></g><g transform="translate(29.800211, 49.216406)"><g><path d="M 15.21875 -25.140625 C 16.320312 -25.140625 17.304688 -25.046875 18.171875 -24.859375 L 17.65625 -21.390625 C 16.632812 -21.617188 15.734375 -21.734375 14.953125 -21.734375 C 12.953125 -21.734375 11.242188 -20.921875 9.828125 -19.296875 C 8.410156 -17.679688 7.703125 -15.664062 7.703125 -13.25 L 7.703125 0 L 3.96875 0 L 3.96875 -24.6875 L 7.046875 -24.6875 L 7.484375 -20.109375 L 7.65625 -20.109375 C 8.570312 -21.710938 9.675781 -22.953125 10.96875 -23.828125 C 12.257812 -24.703125 13.675781 -25.140625 15.21875 -25.140625 Z M 15.21875 -25.140625 "/></g></g><g transform="translate(48.627339, 49.216406)"><g><path d="M 25.265625 -12.359375 C 25.265625 -8.335938 24.25 -5.195312 22.21875 -2.9375 C 20.195312 -0.675781 17.398438 0.453125 13.828125 0.453125 C 11.617188 0.453125 9.65625 -0.0625 7.9375 -1.09375 C 6.226562 -2.132812 4.910156 -3.625 3.984375 -5.5625 C 3.054688 -7.5 2.59375 -9.765625 2.59375 -12.359375 C 2.59375 -16.390625 3.597656 -19.523438 5.609375 -21.765625 C 7.617188 -24.015625 10.410156 -25.140625 13.984375 -25.140625 C 17.441406 -25.140625 20.1875 -23.988281 22.21875 -21.6875 C 24.25 -19.394531 25.265625 -16.285156 25.265625 -12.359375 Z M 6.46875 -12.359375 C 6.46875 -9.210938 7.097656 -6.8125 8.359375 -5.15625 C 9.617188 -3.507812 11.472656 -2.6875 13.921875 -2.6875 C 16.367188 -2.6875 18.222656 -3.503906 19.484375 -5.140625 C 20.753906 -6.785156 21.390625 -9.191406 21.390625 -12.359375 C 21.390625 -15.503906 20.753906 -17.890625 19.484375 -19.515625 C 18.222656 -21.140625 16.351562 -21.953125 13.875 -21.953125 C 11.425781 -21.953125 9.578125 -21.148438 8.328125 -19.546875 C 7.085938 -17.941406 6.46875 -15.546875 6.46875 -12.359375 Z M 6.46875 -12.359375 "/></g></g><g transform="translate(76.485183, 49.216406)"><g><path d="M 35.421875 0 L 35.421875 -16.0625 C 35.421875 -18.03125 35 -19.503906 34.15625 -20.484375 C 33.320312 -21.460938 32.019531 -21.953125 30.25 -21.953125 C 27.914062 -21.953125 26.191406 -21.285156 25.078125 -19.953125 C 23.972656 -18.617188 23.421875 -16.5625 23.421875 -13.78125 L 23.421875 0 L 19.6875 0 L 19.6875 -16.0625 C 19.6875 -18.03125 19.265625 -19.503906 18.421875 -20.484375 C 17.578125 -21.460938 16.265625 -21.953125 14.484375 -21.953125 C 12.140625 -21.953125 10.421875 -21.25 9.328125 -19.84375 C 8.242188 -18.445312 7.703125 -16.148438 7.703125 -12.953125 L 7.703125 0 L 3.96875 0 L 3.96875 -24.6875 L 7 -24.6875 L 7.609375 -21.3125 L 7.796875 -21.3125 C 8.492188 -22.507812 9.484375 -23.445312 10.765625 -24.125 C 12.054688 -24.800781 13.5 -25.140625 15.09375 -25.140625 C 18.945312 -25.140625 21.46875 -23.742188 22.65625 -20.953125 L 22.84375 -20.953125 C 23.570312 -22.234375 24.632812 -23.25 26.03125 -24 C 27.425781 -24.757812 29.019531 -25.140625 30.8125 -25.140625 C 33.601562 -25.140625 35.691406 -24.421875 37.078125 -22.984375 C 38.472656 -21.546875 39.171875 -19.253906 39.171875 -16.109375 L 39.171875 0 Z M 35.421875 0 "/></g></g><g transform="translate(119.386712, 49.216406)"><g><path d="M 25.265625 -12.359375 C 25.265625 -8.335938 24.25 -5.195312 22.21875 -2.9375 C 20.195312 -0.675781 17.398438 0.453125 13.828125 0.453125 C 11.617188 0.453125 9.65625 -0.0625 7.9375 -1.09375 C 6.226562 -2.132812 4.910156 -3.625 3.984375 -5.5625 C 3.054688 -7.5 2.59375 -9.765625 2.59375 -12.359375 C 2.59375 -16.390625 3.597656 -19.523438 5.609375 -21.765625 C 7.617188 -24.015625 10.410156 -25.140625 13.984375 -25.140625 C 17.441406 -25.140625 20.1875 -23.988281 22.21875 -21.6875 C 24.25 -19.394531 25.265625 -16.285156 25.265625 -12.359375 Z M 6.46875 -12.359375 C 6.46875 -9.210938 7.097656 -6.8125 8.359375 -5.15625 C 9.617188 -3.507812 11.472656 -2.6875 13.921875 -2.6875 C 16.367188 -2.6875 18.222656 -3.503906 19.484375 -5.140625 C 20.753906 -6.785156 21.390625 -9.191406 21.390625 -12.359375 C 21.390625 -15.503906 20.753906 -17.890625 19.484375 -19.515625 C 18.222656 -21.140625 16.351562 -21.953125 13.875 -21.953125 C 11.425781 -21.953125 9.578125 -21.148438 8.328125 -19.546875 C 7.085938 -17.941406 6.46875 -15.546875 6.46875 -12.359375 Z M 6.46875 -12.359375 "/></g></g><g transform="translate(147.244556, 49.216406)"><g><path d="M 13.828125 0.453125 C 10.253906 0.453125 7.488281 -0.644531 5.53125 -2.84375 C 3.570312 -5.050781 2.59375 -8.164062 2.59375 -12.1875 C 2.59375 -16.3125 3.585938 -19.5 5.578125 -21.75 C 7.566406 -24.007812 10.398438 -25.140625 14.078125 -25.140625 C 15.265625 -25.140625 16.445312 -25.007812 17.625 -24.75 C 18.8125 -24.5 19.742188 -24.195312 20.421875 -23.84375 L 19.28125 -20.671875 C 18.457031 -21.003906 17.554688 -21.28125 16.578125 -21.5 C 15.597656 -21.71875 14.734375 -21.828125 13.984375 -21.828125 C 8.972656 -21.828125 6.46875 -18.628906 6.46875 -12.234375 C 6.46875 -9.203125 7.078125 -6.875 8.296875 -5.25 C 9.523438 -3.625 11.335938 -2.8125 13.734375 -2.8125 C 15.796875 -2.8125 17.90625 -3.253906 20.0625 -4.140625 L 20.0625 -0.828125 C 18.414062 0.0234375 16.335938 0.453125 13.828125 0.453125 Z M 13.828125 0.453125 "/></g></g><g transform="translate(169.202031, 49.216406)"><g><path d="M 7.703125 0 L 3.96875 0 L 3.96875 -24.6875 L 7.703125 -24.6875 Z M 3.65625 -31.375 C 3.65625 -32.226562 3.863281 -32.851562 4.28125 -33.25 C 4.695312 -33.644531 5.222656 -33.84375 5.859375 -33.84375 C 6.453125 -33.84375 6.96875 -33.640625 7.40625 -33.234375 C 7.84375 -32.835938 8.0625 -32.21875 8.0625 -31.375 C 8.0625 -30.53125 7.84375 -29.898438 7.40625 -29.484375 C 6.96875 -29.078125 6.453125 -28.875 5.859375 -28.875 C 5.222656 -28.875 4.695312 -29.078125 4.28125 -29.484375 C 3.863281 -29.898438 3.65625 -30.53125 3.65625 -31.375 Z M 3.65625 -31.375 "/></g></g><g transform="translate(180.867644, 49.216406)"><g><path d="M 25.265625 -12.359375 C 25.265625 -8.335938 24.25 -5.195312 22.21875 -2.9375 C 20.195312 -0.675781 17.398438 0.453125 13.828125 0.453125 C 11.617188 0.453125 9.65625 -0.0625 7.9375 -1.09375 C 6.226562 -2.132812 4.910156 -3.625 3.984375 -5.5625 C 3.054688 -7.5 2.59375 -9.765625 2.59375 -12.359375 C 2.59375 -16.390625 3.597656 -19.523438 5.609375 -21.765625 C 7.617188 -24.015625 10.410156 -25.140625 13.984375 -25.140625 C 17.441406 -25.140625 20.1875 -23.988281 22.21875 -21.6875 C 24.25 -19.394531 25.265625 -16.285156 25.265625 -12.359375 Z M 6.46875 -12.359375 C 6.46875 -9.210938 7.097656 -6.8125 8.359375 -5.15625 C 9.617188 -3.507812 11.472656 -2.6875 13.921875 -2.6875 C 16.367188 -2.6875 18.222656 -3.503906 19.484375 -5.140625 C 20.753906 -6.785156 21.390625 -9.191406 21.390625 -12.359375 C 21.390625 -15.503906 20.753906 -17.890625 19.484375 -19.515625 C 18.222656 -21.140625 16.351562 -21.953125 13.875 -21.953125 C 11.425781 -21.953125 9.578125 -21.148438 8.328125 -19.546875 C 7.085938 -17.941406 6.46875 -15.546875 6.46875 -12.359375 Z M 6.46875 -12.359375 "/></g></g><g transform="translate(208.725487, 49.216406)"><g><path d="M 20.859375 0 L 20.859375 -15.96875 C 20.859375 -17.976562 20.398438 -19.476562 19.484375 -20.46875 C 18.566406 -21.457031 17.132812 -21.953125 15.1875 -21.953125 C 12.601562 -21.953125 10.707031 -21.253906 9.5 -19.859375 C 8.300781 -18.460938 7.703125 -16.160156 7.703125 -12.953125 L 7.703125 0 L 3.96875 0 L 3.96875 -24.6875 L 7 -24.6875 L 7.609375 -21.3125 L 7.796875 -21.3125 C 8.554688 -22.519531 9.625 -23.457031 11 -24.125 C 12.382812 -24.800781 13.925781 -25.140625 15.625 -25.140625 C 18.601562 -25.140625 20.84375 -24.421875 22.34375 -22.984375 C 23.84375 -21.546875 24.59375 -19.253906 24.59375 -16.109375 L 24.59375 0 Z M 20.859375 0 "/></g></g><g transform="translate(237.033741, 49.216406)"><g><path d="M 14.390625 0.453125 C 10.742188 0.453125 7.863281 -0.65625 5.75 -2.875 C 3.644531 -5.101562 2.59375 -8.191406 2.59375 -12.140625 C 2.59375 -16.117188 3.570312 -19.28125 5.53125 -21.625 C 7.488281 -23.96875 10.117188 -25.140625 13.421875 -25.140625 C 16.515625 -25.140625 18.960938 -24.117188 20.765625 -22.078125 C 22.566406 -20.046875 23.46875 -17.363281 23.46875 -14.03125 L 23.46875 -11.671875 L 6.46875 -11.671875 C 6.539062 -8.765625 7.269531 -6.5625 8.65625 -5.0625 C 10.050781 -3.5625 12.007812 -2.8125 14.53125 -2.8125 C 17.1875 -2.8125 19.8125 -3.367188 22.40625 -4.484375 L 22.40625 -1.15625 C 21.082031 -0.582031 19.832031 -0.171875 18.65625 0.078125 C 17.476562 0.328125 16.054688 0.453125 14.390625 0.453125 Z M 13.375 -22 C 11.394531 -22 9.816406 -21.351562 8.640625 -20.0625 C 7.460938 -18.769531 6.765625 -16.984375 6.546875 -14.703125 L 19.453125 -14.703125 C 19.453125 -17.066406 18.925781 -18.875 17.875 -20.125 C 16.832031 -21.375 15.332031 -22 13.375 -22 Z M 13.375 -22 "/></g></g><g transform="translate(262.909781, 49.216406)"><g><path d="M 19.890625 -6.734375 C 19.890625 -4.429688 19.03125 -2.65625 17.3125 -1.40625 C 15.601562 -0.164062 13.203125 0.453125 10.109375 0.453125 C 6.835938 0.453125 4.285156 -0.0664062 2.453125 -1.109375 L 2.453125 -4.578125 C 3.640625 -3.972656 4.910156 -3.5 6.265625 -3.15625 C 7.628906 -2.8125 8.941406 -2.640625 10.203125 -2.640625 C 12.148438 -2.640625 13.648438 -2.945312 14.703125 -3.5625 C 15.753906 -4.1875 16.28125 -5.140625 16.28125 -6.421875 C 16.28125 -7.378906 15.863281 -8.195312 15.03125 -8.875 C 14.195312 -9.5625 12.570312 -10.375 10.15625 -11.3125 C 7.863281 -12.164062 6.234375 -12.910156 5.265625 -13.546875 C 4.296875 -14.179688 3.570312 -14.90625 3.09375 -15.71875 C 2.625 -16.53125 2.390625 -17.5 2.390625 -18.625 C 2.390625 -20.632812 3.207031 -22.222656 4.84375 -23.390625 C 6.476562 -24.554688 8.722656 -25.140625 11.578125 -25.140625 C 14.234375 -25.140625 16.832031 -24.597656 19.375 -23.515625 L 18.046875 -20.46875 C 15.566406 -21.488281 13.320312 -22 11.3125 -22 C 9.539062 -22 8.203125 -21.722656 7.296875 -21.171875 C 6.398438 -20.617188 5.953125 -19.851562 5.953125 -18.875 C 5.953125 -18.207031 6.117188 -17.640625 6.453125 -17.171875 C 6.785156 -16.710938 7.328125 -16.269531 8.078125 -15.84375 C 8.835938 -15.425781 10.28125 -14.820312 12.40625 -14.03125 C 15.332031 -12.96875 17.3125 -11.894531 18.34375 -10.8125 C 19.375 -9.726562 19.890625 -8.367188 19.890625 -6.734375 Z M 19.890625 -6.734375 "/></g></g></g></g></g></svg>