<svg xmlns="http://www.w3.org/2000/svg" xmlns:xlink="http://www.w3.org/1999/xlink" width="403" zoomAndPan="magnify" viewBox="0 0 302.25 241.499991" height="322" preserveAspectRatio="xMidYMid meet" version="1.0"><defs><g/><clipPath id="58c9fe200c"><path d="M 182 48 L 265.503906 48 L 265.503906 151 L 182 151 Z M 182 48 " clip-rule="nonzero"/></clipPath><clipPath id="371a77bb18"><path d="M 202 64 L 265.503906 64 L 265.503906 110 L 202 110 Z M 202 64 " clip-rule="nonzero"/></clipPath><clipPath id="a5df1e38f5"><path d="M 35.824219 101 L 190 101 L 190 151 L 35.824219 151 Z M 35.824219 101 " clip-rule="nonzero"/></clipPath><clipPath id="20976df67e"><path d="M 247 116 L 265.503906 116 L 265.503906 124 L 247 124 Z M 247 116 " clip-rule="nonzero"/></clipPath><clipPath id="5b22cbf78d"><path d="M 83 0.0507812 L 142 0.0507812 L 142 58 L 83 58 Z M 83 0.0507812 " clip-rule="nonzero"/></clipPath><clipPath id="bbad85fef3"><path d="M 100 0.0507812 L 125 0.0507812 L 125 24 L 100 24 Z M 100 0.0507812 " clip-rule="nonzero"/></clipPath><clipPath id="4189258b02"><rect x="0" width="275" y="0" height="64"/></clipPath></defs><path fill="#867baa" d="M 185.730469 150.683594 L 104.089844 150.683594 C 102.105469 150.683594 100.5 149.074219 100.5 147.09375 C 100.5 145.109375 102.105469 143.5 104.089844 143.5 L 185.730469 143.5 C 187.714844 143.5 189.324219 145.109375 189.324219 147.09375 C 189.324219 149.074219 187.714844 150.683594 185.730469 150.683594 Z M 185.730469 150.683594 " fill-opacity="1" fill-rule="evenodd"/><g clip-path="url(#58c9fe200c)"><path fill="#867baa" d="M 262.105469 150.683594 L 245.695312 150.683594 C 243.710938 150.683594 242.105469 149.074219 242.105469 147.09375 C 242.105469 145.109375 243.710938 143.5 245.695312 143.5 L 258.511719 143.5 L 258.511719 107.039062 L 231.042969 59.957031 C 229.453125 57.234375 226.511719 55.546875 223.363281 55.546875 L 191.375 55.546875 C 190.242188 55.546875 189.324219 56.464844 189.324219 57.597656 L 189.324219 143.5 L 203.539062 143.5 C 205.523438 143.5 207.128906 145.109375 207.128906 147.09375 C 207.128906 149.074219 205.523438 150.683594 203.539062 150.683594 L 185.730469 150.683594 C 183.75 150.683594 182.140625 149.074219 182.140625 147.09375 L 182.140625 57.597656 C 182.140625 52.503906 186.28125 48.363281 191.375 48.363281 L 223.363281 48.363281 C 229.058594 48.363281 234.378906 51.417969 237.246094 56.335938 L 265.207031 104.257812 C 265.527344 104.804688 265.695312 105.429688 265.695312 106.066406 L 265.695312 147.09375 C 265.695312 149.074219 264.085938 150.683594 262.105469 150.683594 Z M 262.105469 150.683594 " fill-opacity="1" fill-rule="evenodd"/></g><g clip-path="url(#371a77bb18)"><path fill="#867baa" d="M 262.105469 109.660156 L 206.304688 109.660156 C 204.324219 109.660156 202.714844 108.050781 202.714844 106.066406 L 202.714844 68.566406 C 202.714844 66.582031 204.324219 64.972656 206.304688 64.972656 L 240.222656 64.972656 C 242.207031 64.972656 243.816406 66.582031 243.816406 68.566406 C 243.816406 70.550781 242.207031 72.15625 240.222656 72.15625 L 209.898438 72.15625 L 209.898438 102.476562 L 262.105469 102.476562 C 264.085938 102.476562 265.695312 104.082031 265.695312 106.066406 C 265.695312 108.050781 264.085938 109.660156 262.105469 109.660156 Z M 262.105469 109.660156 " fill-opacity="1" fill-rule="evenodd"/></g><path fill="#867baa" d="M 224.617188 171.761719 C 211.015625 171.761719 199.949219 160.695312 199.949219 147.09375 C 199.949219 133.488281 211.015625 122.421875 224.617188 122.421875 C 238.21875 122.421875 249.289062 133.488281 249.289062 147.09375 C 249.289062 160.695312 238.21875 171.761719 224.617188 171.761719 Z M 224.617188 129.605469 C 214.976562 129.605469 207.128906 137.449219 207.128906 147.09375 C 207.128906 156.734375 214.976562 164.578125 224.617188 164.578125 C 234.257812 164.578125 242.105469 156.734375 242.105469 147.09375 C 242.105469 137.449219 234.257812 129.605469 224.617188 129.605469 Z M 224.617188 129.605469 " fill-opacity="1" fill-rule="evenodd"/><path fill="#867baa" d="M 224.617188 157.78125 C 218.722656 157.78125 213.929688 152.984375 213.929688 147.09375 C 213.929688 141.199219 218.722656 136.40625 224.617188 136.40625 C 230.511719 136.40625 235.304688 141.199219 235.304688 147.09375 C 235.304688 152.984375 230.511719 157.78125 224.617188 157.78125 Z M 224.617188 143.585938 C 222.683594 143.585938 221.113281 145.160156 221.113281 147.09375 C 221.113281 149.023438 222.683594 150.597656 224.617188 150.597656 C 226.550781 150.597656 228.121094 149.023438 228.121094 147.09375 C 228.121094 145.160156 226.550781 143.585938 224.617188 143.585938 Z M 224.617188 143.585938 " fill-opacity="1" fill-rule="evenodd"/><path fill="#867baa" d="M 83.011719 171.761719 C 69.410156 171.761719 58.339844 160.695312 58.339844 147.09375 C 58.339844 133.488281 69.410156 122.421875 83.011719 122.421875 C 96.613281 122.421875 107.679688 133.488281 107.679688 147.09375 C 107.679688 160.695312 96.613281 171.761719 83.011719 171.761719 Z M 83.011719 129.605469 C 73.371094 129.605469 65.523438 137.449219 65.523438 147.09375 C 65.523438 156.734375 73.371094 164.578125 83.011719 164.578125 C 92.652344 164.578125 100.5 156.734375 100.5 147.09375 C 100.5 137.449219 92.652344 129.605469 83.011719 129.605469 Z M 83.011719 129.605469 " fill-opacity="1" fill-rule="evenodd"/><path fill="#867baa" d="M 83.011719 157.78125 C 77.117188 157.78125 72.324219 152.984375 72.324219 147.09375 C 72.324219 141.199219 77.117188 136.40625 83.011719 136.40625 C 88.90625 136.40625 93.699219 141.199219 93.699219 147.09375 C 93.699219 152.984375 88.902344 157.78125 83.011719 157.78125 Z M 83.011719 143.585938 C 81.078125 143.585938 79.507812 145.160156 79.507812 147.09375 C 79.507812 149.023438 81.078125 150.597656 83.011719 150.597656 C 84.945312 150.597656 86.515625 149.023438 86.515625 147.09375 C 86.515625 145.160156 84.945312 143.585938 83.011719 143.585938 Z M 83.011719 143.585938 " fill-opacity="1" fill-rule="evenodd"/><g clip-path="url(#a5df1e38f5)"><path fill="#867baa" d="M 61.933594 150.683594 L 44.40625 150.683594 C 39.6875 150.683594 35.851562 146.84375 35.851562 142.125 L 35.851562 104.726562 C 35.851562 102.742188 37.457031 101.136719 39.441406 101.136719 L 185.730469 101.136719 C 187.714844 101.136719 189.324219 102.742188 189.324219 104.726562 C 189.324219 106.710938 187.714844 108.316406 185.730469 108.316406 L 43.03125 108.316406 L 43.03125 142.125 C 43.03125 142.882812 43.648438 143.5 44.40625 143.5 L 61.933594 143.5 C 63.914062 143.5 65.523438 145.109375 65.523438 147.09375 C 65.523438 149.074219 63.917969 150.683594 61.933594 150.683594 Z M 61.933594 150.683594 " fill-opacity="1" fill-rule="evenodd"/></g><g clip-path="url(#20976df67e)"><path fill="#867baa" d="M 262.105469 123.5625 L 251.324219 123.5625 C 249.34375 123.5625 247.734375 121.953125 247.734375 119.96875 C 247.734375 117.988281 249.34375 116.378906 251.324219 116.378906 L 262.105469 116.378906 C 264.085938 116.378906 265.695312 117.988281 265.695312 119.96875 C 265.695312 121.953125 264.085938 123.5625 262.105469 123.5625 Z M 262.105469 123.5625 " fill-opacity="1" fill-rule="evenodd"/></g><path fill="#867baa" d="M 112.585938 108.320312 L 62.109375 108.320312 C 60.125 108.320312 58.515625 106.710938 58.515625 104.726562 L 58.515625 54.25 C 58.515625 52.265625 60.125 50.65625 62.109375 50.65625 L 112.585938 50.65625 C 114.570312 50.65625 116.179688 52.265625 116.179688 54.25 C 116.179688 56.234375 114.570312 57.839844 112.585938 57.839844 L 65.699219 57.839844 L 65.699219 101.136719 L 112.585938 101.136719 C 114.570312 101.136719 116.179688 102.742188 116.179688 104.726562 C 116.179688 106.710938 114.570312 108.320312 112.585938 108.320312 Z M 112.585938 108.320312 " fill-opacity="1" fill-rule="evenodd"/><path fill="#867baa" d="M 95.496094 74.140625 C 94.746094 74.140625 93.996094 73.902344 93.367188 73.441406 L 87.347656 69.003906 L 81.328125 73.441406 C 80.238281 74.242188 78.785156 74.363281 77.578125 73.753906 C 76.367188 73.144531 75.605469 71.902344 75.605469 70.546875 L 75.605469 54.246094 C 75.605469 52.265625 77.210938 50.65625 79.195312 50.65625 C 81.179688 50.65625 82.789062 52.265625 82.789062 54.246094 L 82.789062 63.441406 L 85.214844 61.652344 C 86.484375 60.71875 88.210938 60.71875 89.476562 61.652344 L 91.90625 63.441406 L 91.90625 54.246094 C 91.90625 52.265625 93.515625 50.65625 95.496094 50.65625 C 97.480469 50.65625 99.089844 52.265625 99.089844 54.246094 L 99.089844 70.546875 C 99.089844 71.902344 98.324219 73.144531 97.117188 73.753906 C 96.605469 74.011719 96.050781 74.140625 95.496094 74.140625 Z M 95.496094 74.140625 " fill-opacity="1" fill-rule="evenodd"/><path fill="#867baa" d="M 163.066406 108.320312 L 112.585938 108.320312 C 110.601562 108.320312 108.996094 106.710938 108.996094 104.726562 L 108.996094 54.25 C 108.996094 52.265625 110.601562 50.65625 112.585938 50.65625 L 163.066406 50.65625 C 165.046875 50.65625 166.65625 52.265625 166.65625 54.25 L 166.65625 104.726562 C 166.65625 106.710938 165.046875 108.320312 163.066406 108.320312 Z M 116.179688 101.136719 L 159.472656 101.136719 L 159.472656 57.839844 L 116.179688 57.839844 Z M 116.179688 101.136719 " fill-opacity="1" fill-rule="evenodd"/><path fill="#867baa" d="M 145.976562 74.140625 C 145.222656 74.140625 144.472656 73.902344 143.84375 73.441406 L 137.828125 69.003906 L 131.804688 73.441406 C 130.714844 74.242188 129.265625 74.363281 128.054688 73.753906 C 126.847656 73.144531 126.082031 71.902344 126.082031 70.546875 L 126.082031 54.246094 C 126.082031 52.265625 127.691406 50.65625 129.675781 50.65625 C 131.660156 50.65625 133.265625 52.265625 133.265625 54.246094 L 133.265625 63.441406 L 135.695312 61.652344 C 136.960938 60.71875 138.691406 60.71875 139.957031 61.652344 L 142.382812 63.441406 L 142.382812 54.246094 C 142.382812 52.265625 143.992188 50.65625 145.976562 50.65625 C 147.957031 50.65625 149.566406 52.265625 149.566406 54.246094 L 149.566406 70.546875 C 149.566406 71.902344 148.804688 73.144531 147.59375 73.753906 C 147.082031 74.011719 146.527344 74.140625 145.976562 74.140625 Z M 145.976562 74.140625 " fill-opacity="1" fill-rule="evenodd"/><g clip-path="url(#5b22cbf78d)"><path fill="#867baa" d="M 137.828125 57.839844 C 135.84375 57.839844 134.234375 56.230469 134.234375 54.25 L 134.234375 7.363281 L 90.9375 7.363281 L 90.9375 54.25 C 90.9375 56.230469 89.332031 57.839844 87.347656 57.839844 C 85.363281 57.839844 83.757812 56.230469 83.757812 54.25 L 83.757812 3.769531 C 83.757812 1.785156 85.363281 0.179688 87.347656 0.179688 L 137.828125 0.179688 C 139.808594 0.179688 141.417969 1.785156 141.417969 3.769531 L 141.417969 54.25 C 141.417969 56.234375 139.808594 57.839844 137.828125 57.839844 Z M 137.828125 57.839844 " fill-opacity="1" fill-rule="evenodd"/></g><g clip-path="url(#bbad85fef3)"><path fill="#867baa" d="M 120.738281 23.664062 C 119.984375 23.664062 119.234375 23.425781 118.605469 22.960938 L 112.585938 18.527344 L 106.566406 22.960938 C 105.476562 23.765625 104.027344 23.886719 102.816406 23.277344 C 101.605469 22.667969 100.84375 21.425781 100.84375 20.070312 L 100.84375 3.769531 C 100.84375 1.789062 102.453125 0.179688 104.4375 0.179688 C 106.417969 0.179688 108.027344 1.789062 108.027344 3.769531 L 108.027344 12.964844 L 110.457031 11.175781 C 111.722656 10.242188 113.449219 10.242188 114.71875 11.175781 L 117.144531 12.964844 L 117.144531 3.769531 C 117.144531 1.789062 118.753906 0.179688 120.734375 0.179688 C 122.71875 0.179688 124.328125 1.789062 124.328125 3.769531 L 124.328125 20.070312 C 124.328125 21.425781 123.566406 22.667969 122.355469 23.277344 C 121.84375 23.535156 121.289062 23.664062 120.738281 23.664062 Z M 120.738281 23.664062 " fill-opacity="1" fill-rule="evenodd"/></g><g transform="matrix(1, 0, 0, 1, 14, 167)"><g clip-path="url(#4189258b02)"><g fill="#000000" fill-opacity="1"><g transform="translate(0.667958, 49.240698)"><g><path d="M 25.40625 -23.328125 C 25.40625 -19.992188 24.265625 -17.429688 21.984375 -15.640625 C 19.710938 -13.847656 16.460938 -12.953125 12.234375 -12.953125 L 8.359375 -12.953125 L 8.359375 0 L 4.53125 0 L 4.53125 -32.921875 L 13.0625 -32.921875 C 21.289062 -32.921875 25.40625 -29.722656 25.40625 -23.328125 Z M 8.359375 -16.234375 L 11.796875 -16.234375 C 15.191406 -16.234375 17.644531 -16.78125 19.15625 -17.875 C 20.675781 -18.976562 21.4375 -20.738281 21.4375 -23.15625 C 21.4375 -25.332031 20.722656 -26.953125 19.296875 -28.015625 C 17.867188 -29.078125 15.648438 -29.609375 12.640625 -29.609375 L 8.359375 -29.609375 Z M 8.359375 -16.234375 "/></g></g><g transform="translate(28.436408, 49.240698)"><g><path d="M 15.21875 -25.140625 C 16.320312 -25.140625 17.304688 -25.046875 18.171875 -24.859375 L 17.65625 -21.390625 C 16.632812 -21.617188 15.734375 -21.734375 14.953125 -21.734375 C 12.953125 -21.734375 11.242188 -20.921875 9.828125 -19.296875 C 8.410156 -17.679688 7.703125 -15.664062 7.703125 -13.25 L 7.703125 0 L 3.96875 0 L 3.96875 -24.6875 L 7.046875 -24.6875 L 7.484375 -20.109375 L 7.65625 -20.109375 C 8.570312 -21.710938 9.675781 -22.953125 10.96875 -23.828125 C 12.257812 -24.703125 13.675781 -25.140625 15.21875 -25.140625 Z M 15.21875 -25.140625 "/></g></g><g transform="translate(47.264004, 49.240698)"><g><path d="M 25.265625 -12.359375 C 25.265625 -8.335938 24.25 -5.195312 22.21875 -2.9375 C 20.195312 -0.675781 17.398438 0.453125 13.828125 0.453125 C 11.617188 0.453125 9.65625 -0.0625 7.9375 -1.09375 C 6.226562 -2.132812 4.910156 -3.625 3.984375 -5.5625 C 3.054688 -7.5 2.59375 -9.765625 2.59375 -12.359375 C 2.59375 -16.390625 3.597656 -19.523438 5.609375 -21.765625 C 7.617188 -24.015625 10.410156 -25.140625 13.984375 -25.140625 C 17.441406 -25.140625 20.1875 -23.988281 22.21875 -21.6875 C 24.25 -19.394531 25.265625 -16.285156 25.265625 -12.359375 Z M 6.46875 -12.359375 C 6.46875 -9.210938 7.097656 -6.8125 8.359375 -5.15625 C 9.617188 -3.507812 11.472656 -2.6875 13.921875 -2.6875 C 16.367188 -2.6875 18.222656 -3.503906 19.484375 -5.140625 C 20.753906 -6.785156 21.390625 -9.191406 21.390625 -12.359375 C 21.390625 -15.503906 20.753906 -17.890625 19.484375 -19.515625 C 18.222656 -21.140625 16.351562 -21.953125 13.875 -21.953125 C 11.425781 -21.953125 9.578125 -21.148438 8.328125 -19.546875 C 7.085938 -17.941406 6.46875 -15.546875 6.46875 -12.359375 Z M 6.46875 -12.359375 "/></g></g><g transform="translate(75.122538, 49.240698)"><g><path d="M 9.375 0 L 0 -24.6875 L 4.015625 -24.6875 L 9.328125 -10.046875 C 10.523438 -6.617188 11.226562 -4.394531 11.4375 -3.375 L 11.625 -3.375 C 11.789062 -4.175781 12.3125 -5.828125 13.1875 -8.328125 C 14.0625 -10.828125 16.03125 -16.28125 19.09375 -24.6875 L 23.109375 -24.6875 L 13.734375 0 Z M 9.375 0 "/></g></g><g transform="translate(98.229132, 49.240698)"><g><path d="M 14.390625 0.453125 C 10.742188 0.453125 7.863281 -0.65625 5.75 -2.875 C 3.644531 -5.101562 2.59375 -8.191406 2.59375 -12.140625 C 2.59375 -16.117188 3.570312 -19.28125 5.53125 -21.625 C 7.488281 -23.96875 10.117188 -25.140625 13.421875 -25.140625 C 16.515625 -25.140625 18.960938 -24.117188 20.765625 -22.078125 C 22.566406 -20.046875 23.46875 -17.363281 23.46875 -14.03125 L 23.46875 -11.671875 L 6.46875 -11.671875 C 6.539062 -8.765625 7.269531 -6.5625 8.65625 -5.0625 C 10.050781 -3.5625 12.007812 -2.8125 14.53125 -2.8125 C 17.1875 -2.8125 19.8125 -3.367188 22.40625 -4.484375 L 22.40625 -1.15625 C 21.082031 -0.582031 19.832031 -0.171875 18.65625 0.078125 C 17.476562 0.328125 16.054688 0.453125 14.390625 0.453125 Z M 13.375 -22 C 11.394531 -22 9.816406 -21.351562 8.640625 -20.0625 C 7.460938 -18.769531 6.765625 -16.984375 6.546875 -14.703125 L 19.453125 -14.703125 C 19.453125 -17.066406 18.925781 -18.875 17.875 -20.125 C 16.832031 -21.375 15.332031 -22 13.375 -22 Z M 13.375 -22 "/></g></g><g transform="translate(124.105815, 49.240698)"><g><path d="M 14.390625 0.453125 C 10.742188 0.453125 7.863281 -0.65625 5.75 -2.875 C 3.644531 -5.101562 2.59375 -8.191406 2.59375 -12.140625 C 2.59375 -16.117188 3.570312 -19.28125 5.53125 -21.625 C 7.488281 -23.96875 10.117188 -25.140625 13.421875 -25.140625 C 16.515625 -25.140625 18.960938 -24.117188 20.765625 -22.078125 C 22.566406 -20.046875 23.46875 -17.363281 23.46875 -14.03125 L 23.46875 -11.671875 L 6.46875 -11.671875 C 6.539062 -8.765625 7.269531 -6.5625 8.65625 -5.0625 C 10.050781 -3.5625 12.007812 -2.8125 14.53125 -2.8125 C 17.1875 -2.8125 19.8125 -3.367188 22.40625 -4.484375 L 22.40625 -1.15625 C 21.082031 -0.582031 19.832031 -0.171875 18.65625 0.078125 C 17.476562 0.328125 16.054688 0.453125 14.390625 0.453125 Z M 13.375 -22 C 11.394531 -22 9.816406 -21.351562 8.640625 -20.0625 C 7.460938 -18.769531 6.765625 -16.984375 6.546875 -14.703125 L 19.453125 -14.703125 C 19.453125 -17.066406 18.925781 -18.875 17.875 -20.125 C 16.832031 -21.375 15.332031 -22 13.375 -22 Z M 13.375 -22 "/></g></g><g transform="translate(149.982498, 49.240698)"><g><path d="M 20.765625 -3.3125 L 20.5625 -3.3125 C 18.832031 -0.800781 16.25 0.453125 12.8125 0.453125 C 9.582031 0.453125 7.070312 -0.648438 5.28125 -2.859375 C 3.488281 -5.066406 2.59375 -8.207031 2.59375 -12.28125 C 2.59375 -16.34375 3.492188 -19.5 5.296875 -21.75 C 7.097656 -24.007812 9.601562 -25.140625 12.8125 -25.140625 C 16.164062 -25.140625 18.734375 -23.921875 20.515625 -21.484375 L 20.8125 -21.484375 L 20.65625 -23.265625 L 20.5625 -25 L 20.5625 -35.046875 L 24.296875 -35.046875 L 24.296875 0 L 21.265625 0 Z M 13.28125 -2.6875 C 15.832031 -2.6875 17.679688 -3.378906 18.828125 -4.765625 C 19.984375 -6.148438 20.5625 -8.390625 20.5625 -11.484375 L 20.5625 -12.28125 C 20.5625 -15.769531 19.976562 -18.257812 18.8125 -19.75 C 17.65625 -21.25 15.800781 -22 13.25 -22 C 11.050781 -22 9.367188 -21.144531 8.203125 -19.4375 C 7.046875 -17.738281 6.46875 -15.335938 6.46875 -12.234375 C 6.46875 -9.078125 7.046875 -6.695312 8.203125 -5.09375 C 9.359375 -3.488281 11.050781 -2.6875 13.28125 -2.6875 Z M 13.28125 -2.6875 "/></g></g><g transform="translate(178.246411, 49.240698)"><g><path d="M 25.265625 -12.359375 C 25.265625 -8.335938 24.25 -5.195312 22.21875 -2.9375 C 20.195312 -0.675781 17.398438 0.453125 13.828125 0.453125 C 11.617188 0.453125 9.65625 -0.0625 7.9375 -1.09375 C 6.226562 -2.132812 4.910156 -3.625 3.984375 -5.5625 C 3.054688 -7.5 2.59375 -9.765625 2.59375 -12.359375 C 2.59375 -16.390625 3.597656 -19.523438 5.609375 -21.765625 C 7.617188 -24.015625 10.410156 -25.140625 13.984375 -25.140625 C 17.441406 -25.140625 20.1875 -23.988281 22.21875 -21.6875 C 24.25 -19.394531 25.265625 -16.285156 25.265625 -12.359375 Z M 6.46875 -12.359375 C 6.46875 -9.210938 7.097656 -6.8125 8.359375 -5.15625 C 9.617188 -3.507812 11.472656 -2.6875 13.921875 -2.6875 C 16.367188 -2.6875 18.222656 -3.503906 19.484375 -5.140625 C 20.753906 -6.785156 21.390625 -9.191406 21.390625 -12.359375 C 21.390625 -15.503906 20.753906 -17.890625 19.484375 -19.515625 C 18.222656 -21.140625 16.351562 -21.953125 13.875 -21.953125 C 11.425781 -21.953125 9.578125 -21.148438 8.328125 -19.546875 C 7.085938 -17.941406 6.46875 -15.546875 6.46875 -12.359375 Z M 6.46875 -12.359375 "/></g></g><g transform="translate(206.104946, 49.240698)"><g><path d="M 15.21875 -25.140625 C 16.320312 -25.140625 17.304688 -25.046875 18.171875 -24.859375 L 17.65625 -21.390625 C 16.632812 -21.617188 15.734375 -21.734375 14.953125 -21.734375 C 12.953125 -21.734375 11.242188 -20.921875 9.828125 -19.296875 C 8.410156 -17.679688 7.703125 -15.664062 7.703125 -13.25 L 7.703125 0 L 3.96875 0 L 3.96875 -24.6875 L 7.046875 -24.6875 L 7.484375 -20.109375 L 7.65625 -20.109375 C 8.570312 -21.710938 9.675781 -22.953125 10.96875 -23.828125 C 12.257812 -24.703125 13.675781 -25.140625 15.21875 -25.140625 Z M 15.21875 -25.140625 "/></g></g><g transform="translate(224.932541, 49.240698)"><g><path d="M 14.390625 0.453125 C 10.742188 0.453125 7.863281 -0.65625 5.75 -2.875 C 3.644531 -5.101562 2.59375 -8.191406 2.59375 -12.140625 C 2.59375 -16.117188 3.570312 -19.28125 5.53125 -21.625 C 7.488281 -23.96875 10.117188 -25.140625 13.421875 -25.140625 C 16.515625 -25.140625 18.960938 -24.117188 20.765625 -22.078125 C 22.566406 -20.046875 23.46875 -17.363281 23.46875 -14.03125 L 23.46875 -11.671875 L 6.46875 -11.671875 C 6.539062 -8.765625 7.269531 -6.5625 8.65625 -5.0625 C 10.050781 -3.5625 12.007812 -2.8125 14.53125 -2.8125 C 17.1875 -2.8125 19.8125 -3.367188 22.40625 -4.484375 L 22.40625 -1.15625 C 21.082031 -0.582031 19.832031 -0.171875 18.65625 0.078125 C 17.476562 0.328125 16.054688 0.453125 14.390625 0.453125 Z M 13.375 -22 C 11.394531 -22 9.816406 -21.351562 8.640625 -20.0625 C 7.460938 -18.769531 6.765625 -16.984375 6.546875 -14.703125 L 19.453125 -14.703125 C 19.453125 -17.066406 18.925781 -18.875 17.875 -20.125 C 16.832031 -21.375 15.332031 -22 13.375 -22 Z M 13.375 -22 "/></g></g><g transform="translate(250.809224, 49.240698)"><g><path d="M 19.890625 -6.734375 C 19.890625 -4.429688 19.03125 -2.65625 17.3125 -1.40625 C 15.601562 -0.164062 13.203125 0.453125 10.109375 0.453125 C 6.835938 0.453125 4.285156 -0.0664062 2.453125 -1.109375 L 2.453125 -4.578125 C 3.640625 -3.972656 4.910156 -3.5 6.265625 -3.15625 C 7.628906 -2.8125 8.941406 -2.640625 10.203125 -2.640625 C 12.148438 -2.640625 13.648438 -2.945312 14.703125 -3.5625 C 15.753906 -4.1875 16.28125 -5.140625 16.28125 -6.421875 C 16.28125 -7.378906 15.863281 -8.195312 15.03125 -8.875 C 14.195312 -9.5625 12.570312 -10.375 10.15625 -11.3125 C 7.863281 -12.164062 6.234375 -12.910156 5.265625 -13.546875 C 4.296875 -14.179688 3.570312 -14.90625 3.09375 -15.71875 C 2.625 -16.53125 2.390625 -17.5 2.390625 -18.625 C 2.390625 -20.632812 3.207031 -22.222656 4.84375 -23.390625 C 6.476562 -24.554688 8.722656 -25.140625 11.578125 -25.140625 C 14.234375 -25.140625 16.832031 -24.597656 19.375 -23.515625 L 18.046875 -20.46875 C 15.566406 -21.488281 13.320312 -22 11.3125 -22 C 9.539062 -22 8.203125 -21.722656 7.296875 -21.171875 C 6.398438 -20.617188 5.953125 -19.851562 5.953125 -18.875 C 5.953125 -18.207031 6.117188 -17.640625 6.453125 -17.171875 C 6.785156 -16.710938 7.328125 -16.269531 8.078125 -15.84375 C 8.835938 -15.425781 10.28125 -14.820312 12.40625 -14.03125 C 15.332031 -12.96875 17.3125 -11.894531 18.34375 -10.8125 C 19.375 -9.726562 19.890625 -8.367188 19.890625 -6.734375 Z M 19.890625 -6.734375 "/></g></g></g></g></g></svg>