<svg xmlns="http://www.w3.org/2000/svg" xmlns:xlink="http://www.w3.org/1999/xlink" width="267" zoomAndPan="magnify" viewBox="0 0 200.25 299.249989" height="399" preserveAspectRatio="xMidYMid meet" version="1.0"><defs><g/><clipPath id="e8b18ca176"><path d="M 7.460938 55.046875 L 191.910156 55.046875 L 191.910156 229.574219 L 7.460938 229.574219 Z M 7.460938 55.046875 " clip-rule="nonzero"/></clipPath><clipPath id="4c34c7de43"><rect x="0" width="148" y="0" height="65"/></clipPath></defs><path fill="#867baa" d="M 115.847656 2.613281 C 111.199219 0.183594 105.546875 0.777344 101.503906 4.117188 C 94.269531 10.089844 84.3125 11.550781 75.667969 7.898438 L 71.40625 6.097656 C 68.640625 4.929688 65.621094 4.492188 62.636719 4.828125 C 53.675781 5.832031 49.003906 16.011719 54.089844 23.460938 C 60.394531 32.683594 68.050781 43.890625 73.480469 51.84375 C 81.160156 48.96875 89.914062 47.453125 99.636719 47.324219 L 99.738281 47.320312 L 99.839844 47.324219 C 108.582031 47.4375 116.539062 48.679688 123.636719 51.019531 C 127.195312 44.308594 132.019531 38.339844 137.738281 33.328125 L 146.371094 25.753906 C 148.152344 24.195312 147.707031 21.316406 145.542969 20.363281 L 143.160156 19.316406 C 136.023438 16.171875 127.65625 18.753906 123.53125 25.375 C 122.035156 27.777344 120.574219 30.125 119.449219 31.929688 C 120.285156 27.898438 121.523438 21.894531 122.578125 16.808594 C 123.757812 11.105469 121.011719 5.3125 115.847656 2.613281 " fill-opacity="1" fill-rule="nonzero"/><g clip-path="url(#e8b18ca176)"><path fill="#867baa" d="M 105.320312 179.894531 L 105.320312 186.375 C 105.320312 189.503906 102.785156 192.039062 99.65625 192.039062 C 96.527344 192.039062 93.992188 189.503906 93.992188 186.375 L 93.992188 180.433594 C 89.445312 179.890625 84.320312 178.371094 79.769531 175.921875 C 76.183594 173.988281 74.984375 169.421875 77.191406 165.996094 C 79.1875 162.90625 83.242188 161.894531 86.449219 163.695312 C 90.230469 165.816406 93.824219 166.890625 97.570312 166.890625 C 104.152344 166.890625 107.046875 164.160156 107.046875 158.878906 C 107.046875 146.933594 76.402344 147.148438 76.402344 126.199219 C 76.402344 114.824219 83.058594 106.9375 93.992188 104.761719 L 93.992188 98.441406 C 93.992188 95.3125 96.527344 92.777344 99.65625 92.777344 C 102.785156 92.777344 105.320312 95.3125 105.320312 98.441406 L 105.320312 104.519531 C 109.851562 105.207031 113.640625 106.847656 116.933594 109.121094 C 120.21875 111.390625 120.773438 116.027344 118.144531 119.035156 C 115.980469 121.519531 112.335938 122.046875 109.53125 120.3125 C 106.992188 118.738281 104.429688 117.929688 101.355469 117.929688 C 95.773438 117.929688 92.742188 120.179688 92.742188 125.394531 C 92.742188 136.464844 123.386719 135.5 123.386719 157.6875 C 123.386719 168.816406 117.234375 177.371094 105.320312 179.894531 Z M 131.941406 63.363281 C 122.332031 57.390625 110.871094 55.25 99.738281 55.101562 C 88.605469 55.25 77.136719 57.390625 67.527344 63.363281 C 61.550781 67.085938 55.171875 72.632812 48.886719 79.46875 C 22.222656 108.429688 -2.804688 160.417969 11.75 193.359375 C 13.882812 198.207031 16.878906 202.632812 20.847656 206.523438 C 23.195312 208.824219 25.785156 210.878906 28.585938 212.691406 C 46.582031 224.449219 72.195312 229.714844 99.738281 229.714844 C 126.65625 229.714844 152.898438 224.449219 170.886719 212.691406 C 173.679688 210.871094 176.273438 208.824219 178.621094 206.523438 C 182.589844 202.632812 185.585938 198.207031 187.71875 193.359375 C 202.273438 160.417969 177.246094 108.429688 150.582031 79.46875 C 144.296875 72.632812 137.914062 67.085938 131.941406 63.363281 " fill-opacity="1" fill-rule="nonzero"/></g><g transform="matrix(1, 0, 0, 1, 25, 224)"><g clip-path="url(#4c34c7de43)"><g fill="#000000" fill-opacity="1"><g transform="translate(2.020464, 50.062591)"><g><path d="M 23.296875 -32.875 L 27.421875 -32.875 L 15.5625 0 L 11.78125 0 L 0 -32.875 L 4.046875 -32.875 L 11.609375 -11.609375 C 12.472656 -9.160156 13.160156 -6.78125 13.671875 -4.46875 C 14.210938 -6.90625 14.914062 -9.328125 15.78125 -11.734375 Z M 23.296875 -32.875 "/></g></g><g transform="translate(29.439051, 50.062591)"><g><path d="M 14.375 0.453125 C 10.726562 0.453125 7.851562 -0.65625 5.75 -2.875 C 3.644531 -5.09375 2.59375 -8.175781 2.59375 -12.125 C 2.59375 -16.09375 3.566406 -19.242188 5.515625 -21.578125 C 7.472656 -23.921875 10.101562 -25.09375 13.40625 -25.09375 C 16.488281 -25.09375 18.929688 -24.078125 20.734375 -22.046875 C 22.535156 -20.015625 23.4375 -17.335938 23.4375 -14.015625 L 23.4375 -11.65625 L 6.453125 -11.65625 C 6.523438 -8.757812 7.253906 -6.5625 8.640625 -5.0625 C 10.035156 -3.5625 11.988281 -2.8125 14.5 -2.8125 C 17.15625 -2.8125 19.78125 -3.363281 22.375 -4.46875 L 22.375 -1.140625 C 21.0625 -0.578125 19.816406 -0.171875 18.640625 0.078125 C 17.460938 0.328125 16.039062 0.453125 14.375 0.453125 Z M 13.359375 -21.96875 C 11.378906 -21.96875 9.800781 -21.320312 8.625 -20.03125 C 7.445312 -18.75 6.753906 -16.96875 6.546875 -14.6875 L 19.4375 -14.6875 C 19.4375 -17.039062 18.910156 -18.84375 17.859375 -20.09375 C 16.804688 -21.34375 15.304688 -21.96875 13.359375 -21.96875 Z M 13.359375 -21.96875 "/></g></g><g transform="translate(55.283149, 50.062591)"><g><path d="M 20.828125 0 L 20.828125 -15.953125 C 20.828125 -17.953125 20.367188 -19.445312 19.453125 -20.4375 C 18.535156 -21.425781 17.101562 -21.921875 15.15625 -21.921875 C 12.582031 -21.921875 10.691406 -21.222656 9.484375 -19.828125 C 8.285156 -18.441406 7.6875 -16.144531 7.6875 -12.9375 L 7.6875 0 L 3.953125 0 L 3.953125 -24.65625 L 7 -24.65625 L 7.609375 -21.28125 L 7.78125 -21.28125 C 8.539062 -22.488281 9.609375 -23.425781 10.984375 -24.09375 C 12.367188 -24.757812 13.910156 -25.09375 15.609375 -25.09375 C 18.578125 -25.09375 20.8125 -24.375 22.3125 -22.9375 C 23.8125 -21.507812 24.5625 -19.222656 24.5625 -16.078125 L 24.5625 0 Z M 20.828125 0 "/></g></g><g transform="translate(83.556458, 50.062591)"><g><path d="M 11.921875 -2.625 C 12.578125 -2.625 13.210938 -2.671875 13.828125 -2.765625 C 14.441406 -2.867188 14.929688 -2.972656 15.296875 -3.078125 L 15.296875 -0.21875 C 14.890625 -0.03125 14.289062 0.125 13.5 0.25 C 12.71875 0.382812 12.007812 0.453125 11.375 0.453125 C 6.613281 0.453125 4.234375 -2.054688 4.234375 -7.078125 L 4.234375 -21.75 L 0.703125 -21.75 L 0.703125 -23.546875 L 4.234375 -25.09375 L 5.796875 -30.359375 L 7.96875 -30.359375 L 7.96875 -24.65625 L 15.109375 -24.65625 L 15.109375 -21.75 L 7.96875 -21.75 L 7.96875 -7.25 C 7.96875 -5.757812 8.316406 -4.613281 9.015625 -3.8125 C 9.722656 -3.019531 10.691406 -2.625 11.921875 -2.625 Z M 11.921875 -2.625 "/></g></g><g transform="translate(99.818671, 50.062591)"><g><path d="M 19.125 0 L 18.375 -3.515625 L 18.203125 -3.515625 C 16.960938 -1.960938 15.734375 -0.910156 14.515625 -0.359375 C 13.296875 0.179688 11.769531 0.453125 9.9375 0.453125 C 7.5 0.453125 5.582031 -0.175781 4.1875 -1.4375 C 2.800781 -2.695312 2.109375 -4.488281 2.109375 -6.8125 C 2.109375 -11.789062 6.09375 -14.398438 14.0625 -14.640625 L 18.234375 -14.78125 L 18.234375 -16.3125 C 18.234375 -18.238281 17.816406 -19.660156 16.984375 -20.578125 C 16.160156 -21.503906 14.832031 -21.96875 13 -21.96875 C 10.945312 -21.96875 8.625 -21.335938 6.03125 -20.078125 L 4.875 -22.9375 C 6.09375 -23.601562 7.425781 -24.125 8.875 -24.5 C 10.320312 -24.875 11.769531 -25.0625 13.21875 -25.0625 C 16.164062 -25.0625 18.347656 -24.40625 19.765625 -23.09375 C 21.179688 -21.789062 21.890625 -19.703125 21.890625 -16.828125 L 21.890625 0 Z M 10.6875 -2.625 C 13.007812 -2.625 14.832031 -3.257812 16.15625 -4.53125 C 17.488281 -5.8125 18.15625 -7.597656 18.15625 -9.890625 L 18.15625 -12.125 L 14.421875 -11.96875 C 11.453125 -11.863281 9.3125 -11.398438 8 -10.578125 C 6.6875 -9.765625 6.03125 -8.492188 6.03125 -6.765625 C 6.03125 -5.421875 6.4375 -4.394531 7.25 -3.6875 C 8.070312 -2.976562 9.21875 -2.625 10.6875 -2.625 Z M 10.6875 -2.625 "/></g></g><g transform="translate(125.437842, 50.062591)"><g><path d="M 19.859375 -6.71875 C 19.859375 -4.425781 19.003906 -2.65625 17.296875 -1.40625 C 15.585938 -0.164062 13.1875 0.453125 10.09375 0.453125 C 6.832031 0.453125 4.285156 -0.0664062 2.453125 -1.109375 L 2.453125 -4.5625 C 3.640625 -3.96875 4.910156 -3.492188 6.265625 -3.140625 C 7.617188 -2.796875 8.925781 -2.625 10.1875 -2.625 C 12.132812 -2.625 13.632812 -2.9375 14.6875 -3.5625 C 15.738281 -4.1875 16.265625 -5.132812 16.265625 -6.40625 C 16.265625 -7.363281 15.847656 -8.179688 15.015625 -8.859375 C 14.179688 -9.546875 12.554688 -10.359375 10.140625 -11.296875 C 7.847656 -12.148438 6.21875 -12.894531 5.25 -13.53125 C 4.28125 -14.164062 3.5625 -14.882812 3.09375 -15.6875 C 2.625 -16.5 2.390625 -17.46875 2.390625 -18.59375 C 2.390625 -20.601562 3.203125 -22.1875 4.828125 -23.34375 C 6.460938 -24.507812 8.707031 -25.09375 11.5625 -25.09375 C 14.21875 -25.09375 16.8125 -24.554688 19.34375 -23.484375 L 18.015625 -20.4375 C 15.535156 -21.457031 13.296875 -21.96875 11.296875 -21.96875 C 9.523438 -21.96875 8.1875 -21.691406 7.28125 -21.140625 C 6.382812 -20.585938 5.9375 -19.820312 5.9375 -18.84375 C 5.9375 -18.1875 6.101562 -17.625 6.4375 -17.15625 C 6.78125 -16.695312 7.328125 -16.253906 8.078125 -15.828125 C 8.828125 -15.410156 10.265625 -14.804688 12.390625 -14.015625 C 15.316406 -12.953125 17.289062 -11.878906 18.3125 -10.796875 C 19.34375 -9.710938 19.859375 -8.351562 19.859375 -6.71875 Z M 19.859375 -6.71875 "/></g></g></g></g></g></svg>