<svg xmlns="http://www.w3.org/2000/svg" xmlns:xlink="http://www.w3.org/1999/xlink" width="354" zoomAndPan="magnify" viewBox="0 0 265.5 242.249991" height="323" preserveAspectRatio="xMidYMid meet" version="1.0"><defs><g/><clipPath id="f4463ce47e"><path d="M 75 2 L 247.1875 2 L 247.1875 45 L 75 45 Z M 75 2 " clip-rule="nonzero"/></clipPath><clipPath id="a2b59b69bb"><path d="M 75 65 L 247.1875 65 L 247.1875 107 L 75 107 Z M 75 65 " clip-rule="nonzero"/></clipPath><clipPath id="7ee0bac137"><path d="M 75 127 L 247.1875 127 L 247.1875 170 L 75 170 Z M 75 127 " clip-rule="nonzero"/></clipPath><clipPath id="059180b74d"><path d="M 17.648438 0 L 65 0 L 65 48 L 17.648438 48 Z M 17.648438 0 " clip-rule="nonzero"/></clipPath><clipPath id="e3439654d2"><path d="M 17.648438 62 L 65 62 L 65 110 L 17.648438 110 Z M 17.648438 62 " clip-rule="nonzero"/></clipPath><clipPath id="ae5c8251ec"><path d="M 17.648438 125 L 65 125 L 65 171.96875 L 17.648438 171.96875 Z M 17.648438 125 " clip-rule="nonzero"/></clipPath><clipPath id="88ddf5d92c"><rect x="0" width="232" y="0" height="65"/></clipPath></defs><g clip-path="url(#f4463ce47e)"><path fill="#867baa" d="M 247.332031 23.488281 C 247.332031 11.957031 237.984375 2.609375 226.453125 2.609375 L 95.949219 2.609375 C 84.417969 2.609375 75.074219 11.957031 75.074219 23.488281 C 75.074219 35.019531 84.417969 44.371094 95.949219 44.371094 L 226.453125 44.371094 C 237.984375 44.371094 247.332031 35.019531 247.332031 23.488281 Z M 236.894531 23.488281 C 236.894531 29.257812 232.21875 33.929688 226.453125 33.929688 L 95.949219 33.929688 C 90.1875 33.929688 85.511719 29.257812 85.511719 23.488281 C 85.511719 17.722656 90.1875 13.050781 95.949219 13.050781 L 226.453125 13.050781 C 232.21875 13.050781 236.894531 17.722656 236.894531 23.488281 Z M 236.894531 23.488281 " fill-opacity="1" fill-rule="evenodd"/></g><g clip-path="url(#a2b59b69bb)"><path fill="#867baa" d="M 247.332031 86.089844 C 247.332031 74.558594 237.984375 65.207031 226.453125 65.207031 L 95.949219 65.207031 C 84.417969 65.207031 75.074219 74.558594 75.074219 86.089844 C 75.074219 97.617188 84.417969 106.96875 95.949219 106.96875 L 226.453125 106.96875 C 237.984375 106.96875 247.332031 97.617188 247.332031 86.089844 Z M 236.894531 86.089844 C 236.894531 91.855469 232.21875 96.527344 226.453125 96.527344 L 95.949219 96.527344 C 90.1875 96.527344 85.511719 91.855469 85.511719 86.089844 C 85.511719 80.320312 90.1875 75.648438 95.949219 75.648438 L 226.453125 75.648438 C 232.21875 75.648438 236.894531 80.320312 236.894531 86.089844 Z M 236.894531 86.089844 " fill-opacity="1" fill-rule="evenodd"/></g><g clip-path="url(#7ee0bac137)"><path fill="#867baa" d="M 247.332031 148.6875 C 247.332031 137.15625 237.984375 127.804688 226.453125 127.804688 L 95.949219 127.804688 C 84.417969 127.804688 75.074219 137.15625 75.074219 148.6875 C 75.074219 160.21875 84.417969 169.566406 95.949219 169.566406 L 226.453125 169.566406 C 237.984375 169.566406 247.332031 160.21875 247.332031 148.6875 Z M 236.894531 148.6875 C 236.894531 154.453125 232.21875 159.125 226.453125 159.125 L 95.949219 159.125 C 90.1875 159.125 85.511719 154.453125 85.511719 148.6875 C 85.511719 142.917969 90.1875 138.246094 95.949219 138.246094 L 226.453125 138.246094 C 232.21875 138.246094 236.894531 142.917969 236.894531 148.6875 Z M 236.894531 148.6875 " fill-opacity="1" fill-rule="evenodd"/></g><g clip-path="url(#059180b74d)"><path fill="#867baa" d="M 41.148438 0.0507812 C 28.179688 0.0507812 17.660156 10.570312 17.660156 23.539062 C 17.660156 36.5 28.179688 47.027344 41.148438 47.027344 C 54.109375 47.027344 64.636719 36.5 64.636719 23.539062 C 64.636719 10.570312 54.109375 0.0507812 41.148438 0.0507812 Z M 41.148438 10.484375 C 48.351562 10.484375 54.195312 16.335938 54.195312 23.539062 C 54.195312 30.742188 48.351562 36.585938 41.148438 36.585938 C 33.941406 36.585938 28.09375 30.742188 28.09375 23.539062 C 28.09375 16.335938 33.941406 10.484375 41.148438 10.484375 Z M 41.148438 10.484375 " fill-opacity="1" fill-rule="evenodd"/></g><g clip-path="url(#e3439654d2)"><path fill="#867baa" d="M 41.148438 62.648438 C 28.179688 62.648438 17.660156 73.167969 17.660156 86.136719 C 17.660156 99.101562 28.179688 109.625 41.148438 109.625 C 54.109375 109.625 64.636719 99.101562 64.636719 86.136719 C 64.636719 73.167969 54.109375 62.648438 41.148438 62.648438 Z M 41.148438 73.082031 C 48.351562 73.082031 54.195312 78.933594 54.195312 86.136719 C 54.195312 93.339844 48.351562 99.183594 41.148438 99.183594 C 33.941406 99.183594 28.09375 93.339844 28.09375 86.136719 C 28.09375 78.933594 33.941406 73.082031 41.148438 73.082031 Z M 41.148438 73.082031 " fill-opacity="1" fill-rule="evenodd"/></g><g clip-path="url(#ae5c8251ec)"><path fill="#867baa" d="M 41.148438 125.246094 C 28.179688 125.246094 17.660156 135.765625 17.660156 148.734375 C 17.660156 161.699219 28.179688 172.222656 41.148438 172.222656 C 54.109375 172.222656 64.636719 161.699219 64.636719 148.734375 C 64.636719 135.765625 54.109375 125.246094 41.148438 125.246094 Z M 41.148438 135.683594 C 48.351562 135.683594 54.195312 141.53125 54.195312 148.734375 C 54.195312 155.9375 48.351562 161.78125 41.148438 161.78125 C 33.941406 161.78125 28.09375 155.9375 28.09375 148.734375 C 28.09375 141.53125 33.941406 135.683594 41.148438 135.683594 Z M 41.148438 135.683594 " fill-opacity="1" fill-rule="evenodd"/></g><g transform="matrix(1, 0, 0, 1, 17, 167)"><g clip-path="url(#88ddf5d92c)"><g fill="#000000" fill-opacity="1"><g transform="translate(1.465643, 49.632945)"><g><path d="M 18.609375 -29.953125 C 14.992188 -29.953125 12.140625 -28.75 10.046875 -26.34375 C 7.953125 -23.9375 6.90625 -20.640625 6.90625 -16.453125 C 6.90625 -12.148438 7.914062 -8.820312 9.9375 -6.46875 C 11.957031 -4.125 14.832031 -2.953125 18.5625 -2.953125 C 20.863281 -2.953125 23.484375 -3.363281 26.421875 -4.1875 L 26.421875 -0.828125 C 24.140625 0.0234375 21.328125 0.453125 17.984375 0.453125 C 13.140625 0.453125 9.398438 -1.015625 6.765625 -3.953125 C 4.128906 -6.898438 2.8125 -11.082031 2.8125 -16.5 C 2.8125 -19.882812 3.441406 -22.851562 4.703125 -25.40625 C 5.972656 -27.957031 7.804688 -29.921875 10.203125 -31.296875 C 12.597656 -32.679688 15.414062 -33.375 18.65625 -33.375 C 22.101562 -33.375 25.117188 -32.742188 27.703125 -31.484375 L 26.078125 -28.203125 C 23.585938 -29.367188 21.097656 -29.953125 18.609375 -29.953125 Z M 18.609375 -29.953125 "/></g></g><g transform="translate(30.545007, 49.632945)"><g><path d="M 19.125 0 L 18.390625 -3.515625 L 18.203125 -3.515625 C 16.972656 -1.960938 15.742188 -0.910156 14.515625 -0.359375 C 13.296875 0.179688 11.773438 0.453125 9.953125 0.453125 C 7.503906 0.453125 5.582031 -0.175781 4.1875 -1.4375 C 2.800781 -2.695312 2.109375 -4.488281 2.109375 -6.8125 C 2.109375 -11.800781 6.09375 -14.414062 14.0625 -14.65625 L 18.25 -14.78125 L 18.25 -16.3125 C 18.25 -18.25 17.832031 -19.675781 17 -20.59375 C 16.164062 -21.519531 14.835938 -21.984375 13.015625 -21.984375 C 10.953125 -21.984375 8.625 -21.351562 6.03125 -20.09375 L 4.890625 -22.953125 C 6.097656 -23.617188 7.425781 -24.140625 8.875 -24.515625 C 10.320312 -24.890625 11.773438 -25.078125 13.234375 -25.078125 C 16.171875 -25.078125 18.347656 -24.421875 19.765625 -23.109375 C 21.191406 -21.804688 21.90625 -19.710938 21.90625 -16.828125 L 21.90625 0 Z M 10.6875 -2.640625 C 13.007812 -2.640625 14.832031 -3.273438 16.15625 -4.546875 C 17.488281 -5.816406 18.15625 -7.601562 18.15625 -9.90625 L 18.15625 -12.125 L 14.421875 -11.96875 C 11.453125 -11.863281 9.3125 -11.398438 8 -10.578125 C 6.6875 -9.765625 6.03125 -8.5 6.03125 -6.78125 C 6.03125 -5.425781 6.4375 -4.394531 7.25 -3.6875 C 8.070312 -2.988281 9.21875 -2.640625 10.6875 -2.640625 Z M 10.6875 -2.640625 "/></g></g><g transform="translate(56.180762, 49.632945)"><g><path d="M 11.921875 -2.640625 C 12.585938 -2.640625 13.226562 -2.6875 13.84375 -2.78125 C 14.457031 -2.875 14.941406 -2.972656 15.296875 -3.078125 L 15.296875 -0.21875 C 14.898438 -0.03125 14.304688 0.125 13.515625 0.25 C 12.722656 0.382812 12.015625 0.453125 11.390625 0.453125 C 6.617188 0.453125 4.234375 -2.0625 4.234375 -7.09375 L 4.234375 -21.765625 L 0.703125 -21.765625 L 0.703125 -23.5625 L 4.234375 -25.125 L 5.8125 -30.390625 L 7.96875 -30.390625 L 7.96875 -24.671875 L 15.125 -24.671875 L 15.125 -21.765625 L 7.96875 -21.765625 L 7.96875 -7.25 C 7.96875 -5.757812 8.316406 -4.617188 9.015625 -3.828125 C 9.722656 -3.035156 10.691406 -2.640625 11.921875 -2.640625 Z M 11.921875 -2.640625 "/></g></g><g transform="translate(72.453501, 49.632945)"><g><path d="M 14.375 0.453125 C 10.726562 0.453125 7.851562 -0.65625 5.75 -2.875 C 3.644531 -5.101562 2.59375 -8.1875 2.59375 -12.125 C 2.59375 -16.101562 3.570312 -19.265625 5.53125 -21.609375 C 7.488281 -23.953125 10.113281 -25.125 13.40625 -25.125 C 16.5 -25.125 18.945312 -24.101562 20.75 -22.0625 C 22.550781 -20.03125 23.453125 -17.347656 23.453125 -14.015625 L 23.453125 -11.65625 L 6.453125 -11.65625 C 6.535156 -8.757812 7.269531 -6.5625 8.65625 -5.0625 C 10.039062 -3.5625 11.992188 -2.8125 14.515625 -2.8125 C 17.171875 -2.8125 19.796875 -3.367188 22.390625 -4.484375 L 22.390625 -1.140625 C 21.066406 -0.578125 19.816406 -0.171875 18.640625 0.078125 C 17.460938 0.328125 16.039062 0.453125 14.375 0.453125 Z M 13.375 -21.984375 C 11.382812 -21.984375 9.800781 -21.335938 8.625 -20.046875 C 7.445312 -18.765625 6.753906 -16.984375 6.546875 -14.703125 L 19.453125 -14.703125 C 19.453125 -17.054688 18.925781 -18.859375 17.875 -20.109375 C 16.820312 -21.359375 15.320312 -21.984375 13.375 -21.984375 Z M 13.375 -21.984375 "/></g></g><g transform="translate(98.314329, 49.632945)"><g><path d="M 24.15625 -24.671875 L 24.15625 -22.296875 L 19.578125 -21.765625 C 20.003906 -21.234375 20.378906 -20.546875 20.703125 -19.703125 C 21.035156 -18.859375 21.203125 -17.898438 21.203125 -16.828125 C 21.203125 -14.421875 20.375 -12.492188 18.71875 -11.046875 C 17.070312 -9.609375 14.804688 -8.890625 11.921875 -8.890625 C 11.191406 -8.890625 10.503906 -8.945312 9.859375 -9.0625 C 8.265625 -8.226562 7.46875 -7.171875 7.46875 -5.890625 C 7.46875 -5.222656 7.742188 -4.726562 8.296875 -4.40625 C 8.859375 -4.082031 9.8125 -3.921875 11.15625 -3.921875 L 15.53125 -3.921875 C 18.195312 -3.921875 20.242188 -3.359375 21.671875 -2.234375 C 23.109375 -1.109375 23.828125 0.523438 23.828125 2.671875 C 23.828125 5.410156 22.734375 7.492188 20.546875 8.921875 C 18.359375 10.359375 15.160156 11.078125 10.953125 11.078125 C 7.734375 11.078125 5.25 10.472656 3.5 9.265625 C 1.75 8.066406 0.875 6.375 0.875 4.1875 C 0.875 2.6875 1.351562 1.390625 2.3125 0.296875 C 3.28125 -0.796875 4.632812 -1.539062 6.375 -1.9375 C 5.738281 -2.21875 5.207031 -2.65625 4.78125 -3.25 C 4.351562 -3.851562 4.140625 -4.554688 4.140625 -5.359375 C 4.140625 -6.253906 4.378906 -7.039062 4.859375 -7.71875 C 5.335938 -8.394531 6.097656 -9.046875 7.140625 -9.671875 C 5.859375 -10.203125 4.816406 -11.097656 4.015625 -12.359375 C 3.210938 -13.617188 2.8125 -15.054688 2.8125 -16.671875 C 2.8125 -19.378906 3.617188 -21.460938 5.234375 -22.921875 C 6.859375 -24.390625 9.15625 -25.125 12.125 -25.125 C 13.414062 -25.125 14.582031 -24.972656 15.625 -24.671875 Z M 4.484375 4.140625 C 4.484375 5.472656 5.046875 6.484375 6.171875 7.171875 C 7.296875 7.867188 8.90625 8.21875 11 8.21875 C 14.132812 8.21875 16.457031 7.75 17.96875 6.8125 C 19.476562 5.875 20.234375 4.601562 20.234375 3 C 20.234375 1.65625 19.816406 0.722656 18.984375 0.203125 C 18.160156 -0.304688 16.613281 -0.5625 14.34375 -0.5625 L 9.859375 -0.5625 C 8.160156 -0.5625 6.835938 -0.15625 5.890625 0.65625 C 4.953125 1.46875 4.484375 2.628906 4.484375 4.140625 Z M 6.5 -16.765625 C 6.5 -15.035156 6.988281 -13.726562 7.96875 -12.84375 C 8.945312 -11.96875 10.304688 -11.53125 12.046875 -11.53125 C 15.691406 -11.53125 17.515625 -13.296875 17.515625 -16.828125 C 17.515625 -20.535156 15.664062 -22.390625 11.96875 -22.390625 C 10.21875 -22.390625 8.867188 -21.914062 7.921875 -20.96875 C 6.972656 -20.03125 6.5 -18.628906 6.5 -16.765625 Z M 6.5 -16.765625 "/></g></g><g transform="translate(123.56746, 49.632945)"><g><path d="M 25.25 -12.359375 C 25.25 -8.335938 24.234375 -5.195312 22.203125 -2.9375 C 20.179688 -0.675781 17.382812 0.453125 13.8125 0.453125 C 11.613281 0.453125 9.65625 -0.0625 7.9375 -1.09375 C 6.226562 -2.132812 4.910156 -3.625 3.984375 -5.5625 C 3.054688 -7.5 2.59375 -9.765625 2.59375 -12.359375 C 2.59375 -16.378906 3.597656 -19.507812 5.609375 -21.75 C 7.617188 -24 10.410156 -25.125 13.984375 -25.125 C 17.429688 -25.125 20.171875 -23.972656 22.203125 -21.671875 C 24.234375 -19.378906 25.25 -16.273438 25.25 -12.359375 Z M 6.453125 -12.359375 C 6.453125 -9.203125 7.082031 -6.796875 8.34375 -5.140625 C 9.601562 -3.492188 11.457031 -2.671875 13.90625 -2.671875 C 16.351562 -2.671875 18.207031 -3.492188 19.46875 -5.140625 C 20.738281 -6.785156 21.375 -9.191406 21.375 -12.359375 C 21.375 -15.492188 20.738281 -17.875 19.46875 -19.5 C 18.207031 -21.125 16.335938 -21.9375 13.859375 -21.9375 C 11.421875 -21.9375 9.578125 -21.132812 8.328125 -19.53125 C 7.078125 -17.925781 6.453125 -15.535156 6.453125 -12.359375 Z M 6.453125 -12.359375 "/></g></g><g transform="translate(151.408926, 49.632945)"><g><path d="M 15.21875 -25.125 C 16.3125 -25.125 17.289062 -25.03125 18.15625 -24.84375 L 17.640625 -21.375 C 16.617188 -21.601562 15.71875 -21.71875 14.9375 -21.71875 C 12.945312 -21.71875 11.242188 -20.90625 9.828125 -19.28125 C 8.410156 -17.664062 7.703125 -15.648438 7.703125 -13.234375 L 7.703125 0 L 3.96875 0 L 3.96875 -24.671875 L 7.046875 -24.671875 L 7.46875 -20.09375 L 7.65625 -20.09375 C 8.570312 -21.695312 9.671875 -22.9375 10.953125 -23.8125 C 12.242188 -24.6875 13.664062 -25.125 15.21875 -25.125 Z M 15.21875 -25.125 "/></g></g><g transform="translate(170.224985, 49.632945)"><g><path d="M 7.703125 0 L 3.96875 0 L 3.96875 -24.671875 L 7.703125 -24.671875 Z M 3.640625 -31.359375 C 3.640625 -32.210938 3.847656 -32.835938 4.265625 -33.234375 C 4.691406 -33.628906 5.222656 -33.828125 5.859375 -33.828125 C 6.453125 -33.828125 6.96875 -33.625 7.40625 -33.21875 C 7.84375 -32.8125 8.0625 -32.191406 8.0625 -31.359375 C 8.0625 -30.515625 7.84375 -29.882812 7.40625 -29.46875 C 6.96875 -29.0625 6.453125 -28.859375 5.859375 -28.859375 C 5.222656 -28.859375 4.691406 -29.0625 4.265625 -29.46875 C 3.847656 -29.882812 3.640625 -30.515625 3.640625 -31.359375 Z M 3.640625 -31.359375 "/></g></g><g transform="translate(181.883739, 49.632945)"><g><path d="M 19.125 0 L 18.390625 -3.515625 L 18.203125 -3.515625 C 16.972656 -1.960938 15.742188 -0.910156 14.515625 -0.359375 C 13.296875 0.179688 11.773438 0.453125 9.953125 0.453125 C 7.503906 0.453125 5.582031 -0.175781 4.1875 -1.4375 C 2.800781 -2.695312 2.109375 -4.488281 2.109375 -6.8125 C 2.109375 -11.800781 6.09375 -14.414062 14.0625 -14.65625 L 18.25 -14.78125 L 18.25 -16.3125 C 18.25 -18.25 17.832031 -19.675781 17 -20.59375 C 16.164062 -21.519531 14.835938 -21.984375 13.015625 -21.984375 C 10.953125 -21.984375 8.625 -21.351562 6.03125 -20.09375 L 4.890625 -22.953125 C 6.097656 -23.617188 7.425781 -24.140625 8.875 -24.515625 C 10.320312 -24.890625 11.773438 -25.078125 13.234375 -25.078125 C 16.171875 -25.078125 18.347656 -24.421875 19.765625 -23.109375 C 21.191406 -21.804688 21.90625 -19.710938 21.90625 -16.828125 L 21.90625 0 Z M 10.6875 -2.640625 C 13.007812 -2.640625 14.832031 -3.273438 16.15625 -4.546875 C 17.488281 -5.816406 18.15625 -7.601562 18.15625 -9.90625 L 18.15625 -12.125 L 14.421875 -11.96875 C 11.453125 -11.863281 9.3125 -11.398438 8 -10.578125 C 6.6875 -9.765625 6.03125 -8.5 6.03125 -6.78125 C 6.03125 -5.425781 6.4375 -4.394531 7.25 -3.6875 C 8.070312 -2.988281 9.21875 -2.640625 10.6875 -2.640625 Z M 10.6875 -2.640625 "/></g></g><g transform="translate(207.519494, 49.632945)"><g><path d="M 19.875 -6.734375 C 19.875 -4.429688 19.015625 -2.65625 17.296875 -1.40625 C 15.585938 -0.164062 13.191406 0.453125 10.109375 0.453125 C 6.835938 0.453125 4.285156 -0.0664062 2.453125 -1.109375 L 2.453125 -4.5625 C 3.640625 -3.96875 4.910156 -3.5 6.265625 -3.15625 C 7.628906 -2.8125 8.941406 -2.640625 10.203125 -2.640625 C 12.148438 -2.640625 13.644531 -2.945312 14.6875 -3.5625 C 15.738281 -4.1875 16.265625 -5.140625 16.265625 -6.421875 C 16.265625 -7.378906 15.847656 -8.195312 15.015625 -8.875 C 14.191406 -9.5625 12.570312 -10.367188 10.15625 -11.296875 C 7.851562 -12.148438 6.21875 -12.894531 5.25 -13.53125 C 4.28125 -14.175781 3.5625 -14.898438 3.09375 -15.703125 C 2.625 -16.515625 2.390625 -17.484375 2.390625 -18.609375 C 2.390625 -20.617188 3.207031 -22.207031 4.84375 -23.375 C 6.476562 -24.539062 8.71875 -25.125 11.5625 -25.125 C 14.21875 -25.125 16.816406 -24.582031 19.359375 -23.5 L 18.03125 -20.453125 C 15.550781 -21.472656 13.304688 -21.984375 11.296875 -21.984375 C 9.523438 -21.984375 8.1875 -21.707031 7.28125 -21.15625 C 6.382812 -20.601562 5.9375 -19.835938 5.9375 -18.859375 C 5.9375 -18.203125 6.101562 -17.640625 6.4375 -17.171875 C 6.78125 -16.703125 7.328125 -16.257812 8.078125 -15.84375 C 8.828125 -15.425781 10.269531 -14.816406 12.40625 -14.015625 C 15.332031 -12.953125 17.304688 -11.878906 18.328125 -10.796875 C 19.359375 -9.722656 19.875 -8.367188 19.875 -6.734375 Z M 19.875 -6.734375 "/></g></g></g></g></g></svg>