<svg xmlns="http://www.w3.org/2000/svg" xmlns:xlink="http://www.w3.org/1999/xlink" width="257" zoomAndPan="magnify" viewBox="0 0 192.75 231" height="308" preserveAspectRatio="xMidYMid meet" version="1.0"><defs><clipPath id="60e56d5d32"><path d="M 0 0.148438 L 192.5 0.148438 L 192.5 230.101562 L 0 230.101562 Z M 0 0.148438 " clip-rule="nonzero"/></clipPath></defs><g clip-path="url(#60e56d5d32)"><path fill="#ffffff" d="M 179.953125 30.261719 L 140.289062 2.5 C 137.371094 0.457031 133.554688 0.203125 130.390625 1.851562 C 127.226562 3.496094 125.242188 6.769531 125.242188 10.335938 L 125.242188 34.246094 L 86.984375 34.246094 C 71.164062 34.246094 58.292969 47.117188 58.292969 62.9375 L 58.292969 105.976562 L 33.558594 105.976562 L 45.925781 93.609375 C 49.660156 89.875 49.660156 83.816406 45.925781 80.085938 C 42.1875 76.347656 36.136719 76.347656 32.402344 80.085938 L 3.707031 108.777344 C -0.0273438 112.511719 -0.0273438 118.566406 3.707031 122.300781 L 32.402344 150.992188 C 34.269531 152.863281 36.71875 153.796875 39.164062 153.796875 C 41.613281 153.796875 44.058594 152.863281 45.925781 150.992188 C 49.660156 147.261719 49.660156 141.203125 45.925781 137.46875 L 33.558594 125.101562 L 58.292969 125.101562 L 58.292969 168.140625 C 58.292969 183.960938 71.164062 196.832031 86.984375 196.832031 L 125.242188 196.832031 L 125.242188 220.742188 C 125.242188 224.308594 127.226562 227.582031 130.390625 229.226562 C 131.78125 229.949219 133.296875 230.308594 134.804688 230.308594 C 136.738281 230.308594 138.65625 229.726562 140.289062 228.578125 L 179.949219 200.816406 C 187.613281 195.453125 192.1875 186.664062 192.1875 177.308594 L 192.1875 53.765625 C 192.195312 44.414062 187.617188 35.625 179.953125 30.261719 Z M 86.988281 177.707031 C 81.71875 177.707031 77.425781 173.414062 77.425781 168.140625 L 77.425781 125.101562 L 110.898438 125.101562 C 116.179688 125.101562 120.460938 120.820312 120.460938 115.539062 C 120.460938 110.257812 116.179688 105.976562 110.898438 105.976562 L 77.425781 105.976562 L 77.425781 62.9375 C 77.425781 57.664062 81.71875 53.371094 86.988281 53.371094 L 125.246094 53.371094 L 125.246094 177.707031 Z M 173.066406 177.308594 C 173.066406 180.429688 171.539062 183.359375 168.992188 185.144531 L 144.375 202.375 L 144.375 28.703125 L 168.992188 45.929688 C 171.539062 47.71875 173.066406 50.648438 173.066406 53.765625 Z M 173.066406 177.308594 " fill-opacity="1" fill-rule="nonzero"/></g></svg>