<svg xmlns="http://www.w3.org/2000/svg" xmlns:xlink="http://www.w3.org/1999/xlink" width="267" zoomAndPan="magnify" viewBox="0 0 200.25 299.249989" height="399" preserveAspectRatio="xMidYMid meet" version="1.0"><defs><g/><clipPath id="506b08d302"><path d="M 5.054688 106 L 150 106 L 150 203 L 5.054688 203 Z M 5.054688 106 " clip-rule="nonzero"/></clipPath><clipPath id="988c4e9bfe"><path d="M 109 145 L 194.097656 145 L 194.097656 229.574219 L 109 229.574219 Z M 109 145 " clip-rule="nonzero"/></clipPath><clipPath id="85b63c811f"><rect x="0" width="174" y="0" height="65"/></clipPath></defs><g clip-path="url(#506b08d302)"><path fill="#867baa" d="M 149.082031 135.699219 C 148.703125 127.601562 143.527344 120.414062 135.804688 117.550781 L 105.808594 106.445312 L 86.324219 162.503906 L 83.863281 132.164062 L 90.429688 120.855469 C 91.761719 118.550781 90.101562 115.65625 87.429688 115.652344 L 67.316406 115.609375 C 64.648438 115.609375 62.980469 118.492188 64.296875 120.804688 L 70.820312 132.136719 L 68.253906 162.496094 L 48.976562 106.335938 L 18.917969 117.324219 C 10.523438 120.394531 5.105469 128.578125 5.5625 137.5 L 8.351562 192.457031 C 8.714844 198.363281 13.601562 202.964844 19.507812 202.972656 L 102.617188 202.972656 C 101.054688 198.046875 100.210938 192.804688 100.210938 187.371094 C 100.210938 159.800781 121.882812 137.203125 149.082031 135.699219 " fill-opacity="1" fill-rule="nonzero"/></g><path fill="#867baa" d="M 52.425781 56.234375 L 52.425781 42.191406 C 52.777344 39.246094 55.277344 37.019531 58.246094 37.019531 L 96.449219 37.019531 C 99.421875 37.019531 101.921875 39.246094 102.265625 42.191406 L 102.265625 56.046875 C 102.265625 58.234375 103.996094 59.84375 105.960938 59.957031 C 104.925781 65.941406 102.09375 72.15625 97.507812 78.507812 C 91.402344 86.953125 86.386719 91.527344 77.347656 91.527344 C 68.304688 91.527344 63.285156 86.953125 57.191406 78.507812 C 52.648438 72.226562 49.828125 66.070312 48.761719 60.144531 C 50.722656 60.015625 52.425781 58.40625 52.425781 56.234375 Z M 36.757812 56.382812 C 37.109375 59.683594 39.0625 62.421875 41.753906 63.921875 C 43.28125 70.203125 46.371094 76.585938 50.992188 82.984375 C 58.210938 92.976562 65.132812 99.171875 77.347656 99.171875 C 89.550781 99.171875 96.480469 92.976562 103.699219 82.984375 C 108.332031 76.566406 111.425781 70.179688 112.945312 63.886719 C 115.609375 62.378906 117.535156 59.660156 117.882812 56.382812 L 118.171875 53.683594 C 118.488281 50.742188 116.710938 48.074219 114.054688 47.125 L 114.054688 46.011719 C 114.140625 42.5625 114.546875 35.347656 114.527344 34.011719 C 114.5 31.570312 114.289062 29.71875 113.902344 27.675781 C 112.335938 19.40625 105.582031 10.660156 98.203125 7.324219 C 82.324219 0.15625 69.304688 3.230469 59.277344 6.703125 C 53.570312 8.6875 49.21875 13.605469 47.917969 19.550781 L 47.601562 20.996094 C 43.476562 24.546875 41.023438 28.921875 40.316406 34.011719 C 39.910156 36.894531 40.164062 41.792969 40.640625 46.011719 L 40.640625 47.105469 C 37.949219 48.039062 36.152344 50.726562 36.46875 53.683594 L 36.757812 56.382812 " fill-opacity="1" fill-rule="nonzero"/><g clip-path="url(#988c4e9bfe)"><path fill="#867baa" d="M 151.960938 219.519531 C 139.894531 219.519531 129.363281 212.832031 123.863281 202.972656 C 121.28125 198.355469 119.8125 193.027344 119.8125 187.371094 C 119.8125 170.941406 132.207031 157.347656 148.132812 155.453125 C 149.390625 155.304688 150.667969 155.222656 151.960938 155.222656 C 169.691406 155.222656 184.109375 169.644531 184.109375 187.371094 C 184.109375 205.09375 169.691406 219.519531 151.960938 219.519531 Z M 151.960938 145.042969 C 150.855469 145.042969 149.769531 145.085938 148.679688 145.167969 C 126.871094 146.847656 109.632812 165.136719 109.632812 187.371094 C 109.632812 192.878906 110.691406 198.140625 112.613281 202.972656 C 118.839844 218.617188 134.128906 229.703125 151.960938 229.703125 C 175.304688 229.703125 194.292969 210.710938 194.292969 187.371094 C 194.292969 164.035156 175.304688 145.042969 151.960938 145.042969 " fill-opacity="1" fill-rule="nonzero"/></g><path fill="#867baa" d="M 154.324219 182.902344 C 148.683594 180.570312 147.695312 179.277344 147.695312 177.421875 C 147.695312 175.671875 148.96875 173.804688 152.554688 173.804688 C 154.101562 173.804688 155.40625 174.039062 156.472656 174.351562 C 158.324219 174.894531 160.289062 174.007812 161.101562 172.261719 C 162.117188 170.0625 160.898438 167.488281 158.550781 166.863281 C 157.601562 166.617188 156.613281 166.4375 155.570312 166.328125 L 155.570312 163.839844 C 155.570312 161.828125 153.941406 160.203125 151.929688 160.203125 C 149.921875 160.203125 148.292969 161.828125 148.292969 163.839844 L 148.292969 166.789062 C 142.582031 168.261719 138.933594 172.660156 138.933594 178.160156 C 138.933594 185.09375 144.367188 188.179688 150.234375 190.480469 C 155.160156 192.480469 156.164062 194.238281 156.164062 196.269531 C 156.164062 198.835938 153.835938 200.628906 150.503906 200.628906 C 148.867188 200.628906 147.195312 200.335938 145.632812 199.785156 C 143.757812 199.128906 141.6875 199.957031 140.8125 201.742188 C 139.769531 203.847656 140.792969 206.417969 143.023438 207.167969 C 144.523438 207.667969 146.175781 208.019531 147.859375 208.183594 L 147.859375 210.90625 C 147.859375 212.914062 149.488281 214.542969 151.496094 214.542969 L 151.5625 214.542969 C 153.570312 214.542969 155.195312 212.914062 155.195312 210.90625 L 155.195312 207.765625 C 157.980469 207.054688 160.347656 205.644531 162.066406 203.671875 C 163.953125 201.519531 164.996094 198.730469 164.996094 195.835938 C 164.996094 189.820312 161.800781 185.953125 154.324219 182.902344 " fill-opacity="1" fill-rule="nonzero"/><g transform="matrix(1, 0, 0, 1, 14, 224)"><g clip-path="url(#85b63c811f)"><g fill="#000000" fill-opacity="1"><g transform="translate(0.424561, 50.062591)"><g><path d="M 18.59375 -29.9375 C 14.988281 -29.9375 12.140625 -28.734375 10.046875 -26.328125 C 7.953125 -23.921875 6.90625 -20.625 6.90625 -16.4375 C 6.90625 -12.132812 7.910156 -8.8125 9.921875 -6.46875 C 11.941406 -4.125 14.820312 -2.953125 18.5625 -2.953125 C 20.851562 -2.953125 23.46875 -3.363281 26.40625 -4.1875 L 26.40625 -0.828125 C 24.125 0.0234375 21.3125 0.453125 17.96875 0.453125 C 13.125 0.453125 9.382812 -1.015625 6.75 -3.953125 C 4.125 -6.890625 2.8125 -11.066406 2.8125 -16.484375 C 2.8125 -19.867188 3.441406 -22.835938 4.703125 -25.390625 C 5.972656 -27.941406 7.800781 -29.90625 10.1875 -31.28125 C 12.582031 -32.664062 15.398438 -33.359375 18.640625 -33.359375 C 22.085938 -33.359375 25.101562 -32.726562 27.6875 -31.46875 L 26.0625 -28.1875 C 23.570312 -29.351562 21.082031 -29.9375 18.59375 -29.9375 Z M 18.59375 -29.9375 "/></g></g><g transform="translate(29.485114, 50.062591)"><g><path d="M 7.6875 0 L 3.953125 0 L 3.953125 -35 L 7.6875 -35 Z M 7.6875 0 "/></g></g><g transform="translate(41.136326, 50.062591)"><g><path d="M 7.6875 0 L 3.953125 0 L 3.953125 -24.65625 L 7.6875 -24.65625 Z M 3.640625 -31.328125 C 3.640625 -32.179688 3.847656 -32.804688 4.265625 -33.203125 C 4.691406 -33.597656 5.21875 -33.796875 5.84375 -33.796875 C 6.445312 -33.796875 6.960938 -33.59375 7.390625 -33.1875 C 7.828125 -32.789062 8.046875 -32.171875 8.046875 -31.328125 C 8.046875 -30.492188 7.828125 -29.867188 7.390625 -29.453125 C 6.960938 -29.035156 6.445312 -28.828125 5.84375 -28.828125 C 5.21875 -28.828125 4.691406 -29.035156 4.265625 -29.453125 C 3.847656 -29.867188 3.640625 -30.492188 3.640625 -31.328125 Z M 3.640625 -31.328125 "/></g></g><g transform="translate(52.787539, 50.062591)"><g><path d="M 14.375 0.453125 C 10.726562 0.453125 7.851562 -0.65625 5.75 -2.875 C 3.644531 -5.09375 2.59375 -8.175781 2.59375 -12.125 C 2.59375 -16.09375 3.566406 -19.242188 5.515625 -21.578125 C 7.472656 -23.921875 10.101562 -25.09375 13.40625 -25.09375 C 16.488281 -25.09375 18.929688 -24.078125 20.734375 -22.046875 C 22.535156 -20.015625 23.4375 -17.335938 23.4375 -14.015625 L 23.4375 -11.65625 L 6.453125 -11.65625 C 6.523438 -8.757812 7.253906 -6.5625 8.640625 -5.0625 C 10.035156 -3.5625 11.988281 -2.8125 14.5 -2.8125 C 17.15625 -2.8125 19.78125 -3.363281 22.375 -4.46875 L 22.375 -1.140625 C 21.0625 -0.578125 19.816406 -0.171875 18.640625 0.078125 C 17.460938 0.328125 16.039062 0.453125 14.375 0.453125 Z M 13.359375 -21.96875 C 11.378906 -21.96875 9.800781 -21.320312 8.625 -20.03125 C 7.445312 -18.75 6.753906 -16.96875 6.546875 -14.6875 L 19.4375 -14.6875 C 19.4375 -17.039062 18.910156 -18.84375 17.859375 -20.09375 C 16.804688 -21.34375 15.304688 -21.96875 13.359375 -21.96875 Z M 13.359375 -21.96875 "/></g></g><g transform="translate(78.631637, 50.062591)"><g><path d="M 20.828125 0 L 20.828125 -15.953125 C 20.828125 -17.953125 20.367188 -19.445312 19.453125 -20.4375 C 18.535156 -21.425781 17.101562 -21.921875 15.15625 -21.921875 C 12.582031 -21.921875 10.691406 -21.222656 9.484375 -19.828125 C 8.285156 -18.441406 7.6875 -16.144531 7.6875 -12.9375 L 7.6875 0 L 3.953125 0 L 3.953125 -24.65625 L 7 -24.65625 L 7.609375 -21.28125 L 7.78125 -21.28125 C 8.539062 -22.488281 9.609375 -23.425781 10.984375 -24.09375 C 12.367188 -24.757812 13.910156 -25.09375 15.609375 -25.09375 C 18.578125 -25.09375 20.8125 -24.375 22.3125 -22.9375 C 23.8125 -21.507812 24.5625 -19.222656 24.5625 -16.078125 L 24.5625 0 Z M 20.828125 0 "/></g></g><g transform="translate(106.904946, 50.062591)"><g><path d="M 11.921875 -2.625 C 12.578125 -2.625 13.210938 -2.671875 13.828125 -2.765625 C 14.441406 -2.867188 14.929688 -2.972656 15.296875 -3.078125 L 15.296875 -0.21875 C 14.890625 -0.03125 14.289062 0.125 13.5 0.25 C 12.71875 0.382812 12.007812 0.453125 11.375 0.453125 C 6.613281 0.453125 4.234375 -2.054688 4.234375 -7.078125 L 4.234375 -21.75 L 0.703125 -21.75 L 0.703125 -23.546875 L 4.234375 -25.09375 L 5.796875 -30.359375 L 7.96875 -30.359375 L 7.96875 -24.65625 L 15.109375 -24.65625 L 15.109375 -21.75 L 7.96875 -21.75 L 7.96875 -7.25 C 7.96875 -5.757812 8.316406 -4.613281 9.015625 -3.8125 C 9.722656 -3.019531 10.691406 -2.625 11.921875 -2.625 Z M 11.921875 -2.625 "/></g></g><g transform="translate(123.167159, 50.062591)"><g><path d="M 14.375 0.453125 C 10.726562 0.453125 7.851562 -0.65625 5.75 -2.875 C 3.644531 -5.09375 2.59375 -8.175781 2.59375 -12.125 C 2.59375 -16.09375 3.566406 -19.242188 5.515625 -21.578125 C 7.472656 -23.921875 10.101562 -25.09375 13.40625 -25.09375 C 16.488281 -25.09375 18.929688 -24.078125 20.734375 -22.046875 C 22.535156 -20.015625 23.4375 -17.335938 23.4375 -14.015625 L 23.4375 -11.65625 L 6.453125 -11.65625 C 6.523438 -8.757812 7.253906 -6.5625 8.640625 -5.0625 C 10.035156 -3.5625 11.988281 -2.8125 14.5 -2.8125 C 17.15625 -2.8125 19.78125 -3.363281 22.375 -4.46875 L 22.375 -1.140625 C 21.0625 -0.578125 19.816406 -0.171875 18.640625 0.078125 C 17.460938 0.328125 16.039062 0.453125 14.375 0.453125 Z M 13.359375 -21.96875 C 11.378906 -21.96875 9.800781 -21.320312 8.625 -20.03125 C 7.445312 -18.75 6.753906 -16.96875 6.546875 -14.6875 L 19.4375 -14.6875 C 19.4375 -17.039062 18.910156 -18.84375 17.859375 -20.09375 C 16.804688 -21.34375 15.304688 -21.96875 13.359375 -21.96875 Z M 13.359375 -21.96875 "/></g></g><g transform="translate(149.011257, 50.062591)"><g><path d="M 19.859375 -6.71875 C 19.859375 -4.425781 19.003906 -2.65625 17.296875 -1.40625 C 15.585938 -0.164062 13.1875 0.453125 10.09375 0.453125 C 6.832031 0.453125 4.285156 -0.0664062 2.453125 -1.109375 L 2.453125 -4.5625 C 3.640625 -3.96875 4.910156 -3.492188 6.265625 -3.140625 C 7.617188 -2.796875 8.925781 -2.625 10.1875 -2.625 C 12.132812 -2.625 13.632812 -2.9375 14.6875 -3.5625 C 15.738281 -4.1875 16.265625 -5.132812 16.265625 -6.40625 C 16.265625 -7.363281 15.847656 -8.179688 15.015625 -8.859375 C 14.179688 -9.546875 12.554688 -10.359375 10.140625 -11.296875 C 7.847656 -12.148438 6.21875 -12.894531 5.25 -13.53125 C 4.28125 -14.164062 3.5625 -14.882812 3.09375 -15.6875 C 2.625 -16.5 2.390625 -17.46875 2.390625 -18.59375 C 2.390625 -20.601562 3.203125 -22.1875 4.828125 -23.34375 C 6.460938 -24.507812 8.707031 -25.09375 11.5625 -25.09375 C 14.21875 -25.09375 16.8125 -24.554688 19.34375 -23.484375 L 18.015625 -20.4375 C 15.535156 -21.457031 13.296875 -21.96875 11.296875 -21.96875 C 9.523438 -21.96875 8.1875 -21.691406 7.28125 -21.140625 C 6.382812 -20.585938 5.9375 -19.820312 5.9375 -18.84375 C 5.9375 -18.1875 6.101562 -17.625 6.4375 -17.15625 C 6.78125 -16.695312 7.328125 -16.253906 8.078125 -15.828125 C 8.828125 -15.410156 10.265625 -14.804688 12.390625 -14.015625 C 15.316406 -12.953125 17.289062 -11.878906 18.3125 -10.796875 C 19.34375 -9.710938 19.859375 -8.351562 19.859375 -6.71875 Z M 19.859375 -6.71875 "/></g></g></g></g></g></svg>