<svg xmlns="http://www.w3.org/2000/svg" xmlns:xlink="http://www.w3.org/1999/xlink" width="308" zoomAndPan="magnify" viewBox="0 0 230.87999 227.249992" height="303" preserveAspectRatio="xMidYMid meet" version="1.0"><defs><g/><clipPath id="3f0c29b4b2"><rect x="0" width="6" y="0" height="22"/></clipPath></defs><path fill="#ffffff" d="M 13.875 89.5625 L 114.730469 19.511719 L 215.589844 89.5625 C 217 90.539062 218.609375 91.011719 220.207031 91.011719 C 222.773438 91.011719 225.304688 89.796875 226.878906 87.527344 C 229.433594 83.84375 228.523438 78.789062 224.84375 76.234375 L 119.359375 2.972656 C 116.578125 1.039062 112.882812 1.039062 110.101562 2.972656 L 4.617188 76.234375 C 0.9375 78.789062 0.0273438 83.84375 2.582031 87.527344 C 5.136719 91.203125 10.1875 92.117188 13.875 89.5625 Z M 13.875 89.5625 " fill-opacity="1" fill-rule="nonzero"/><path fill="#ffffff" d="M 163.414062 25.863281 L 179.644531 25.863281 L 179.644531 33.980469 C 179.644531 38.460938 183.277344 42.09375 187.757812 42.09375 C 192.238281 42.09375 195.871094 38.460938 195.871094 33.980469 L 195.871094 17.75 C 195.871094 13.269531 192.238281 9.636719 187.757812 9.636719 L 163.414062 9.636719 C 158.933594 9.636719 155.300781 13.269531 155.300781 17.75 C 155.300781 22.230469 158.933594 25.863281 163.414062 25.863281 Z M 163.414062 25.863281 " fill-opacity="1" fill-rule="nonzero"/><path fill="#ffffff" d="M 135.792969 220.605469 L 196.835938 220.605469 C 201.316406 220.605469 204.949219 216.972656 204.949219 212.492188 L 204.949219 107.007812 C 204.949219 102.527344 201.316406 98.890625 196.835938 98.890625 C 192.355469 98.890625 188.722656 102.527344 188.722656 107.007812 L 188.722656 204.378906 L 143.90625 204.378906 L 143.90625 150.699219 C 143.90625 146.21875 140.273438 142.585938 135.792969 142.585938 L 94.597656 142.585938 C 90.117188 142.585938 86.484375 146.21875 86.484375 150.699219 L 86.476562 204.378906 L 40.738281 204.378906 L 40.738281 107.007812 C 40.738281 102.527344 37.105469 98.890625 32.625 98.890625 C 28.144531 98.890625 24.511719 102.527344 24.511719 107.007812 L 24.511719 212.492188 C 24.511719 216.972656 28.144531 220.605469 32.625 220.605469 L 94.589844 220.605469 C 99.074219 220.605469 102.707031 216.972656 102.707031 212.492188 L 102.714844 158.8125 L 127.679688 158.8125 L 127.679688 212.492188 C 127.679688 216.972656 131.3125 220.605469 135.792969 220.605469 Z M 135.792969 220.605469 " fill-opacity="1" fill-rule="nonzero"/><g transform="matrix(1, 0, 0, 1, 160, 201)"><g clip-path="url(#3f0c29b4b2)"><g fill="#ffffff" fill-opacity="1"><g transform="translate(0.648521, 17.015798)"><g><path d="M 1.15625 -0.796875 C 1.15625 -1.140625 1.226562 -1.394531 1.375 -1.5625 C 1.53125 -1.738281 1.753906 -1.828125 2.046875 -1.828125 C 2.335938 -1.828125 2.566406 -1.738281 2.734375 -1.5625 C 2.898438 -1.394531 2.984375 -1.140625 2.984375 -0.796875 C 2.984375 -0.472656 2.898438 -0.222656 2.734375 -0.046875 C 2.566406 0.128906 2.335938 0.21875 2.046875 0.21875 C 1.785156 0.21875 1.570312 0.140625 1.40625 -0.015625 C 1.238281 -0.179688 1.15625 -0.441406 1.15625 -0.796875 Z M 1.15625 -0.796875 "/></g></g></g></g></g></svg>