<svg xmlns="http://www.w3.org/2000/svg" xmlns:xlink="http://www.w3.org/1999/xlink" width="308" zoomAndPan="magnify" viewBox="0 0 230.87999 290.999983" height="388" preserveAspectRatio="xMidYMid meet" version="1.0"><defs><g/><clipPath id="31d1522fa6"><path d="M 24 99 L 206 99 L 206 221.960938 L 24 221.960938 Z M 24 99 " clip-rule="nonzero"/></clipPath><clipPath id="283ade0173"><rect x="0" width="120" y="0" height="64"/></clipPath></defs><path fill="#867baa" d="M 13.589844 89.886719 L 114.730469 19.644531 L 215.867188 89.886719 C 217.28125 90.867188 218.898438 91.339844 220.5 91.339844 C 223.074219 91.339844 225.609375 90.121094 227.191406 87.84375 C 229.753906 84.152344 228.839844 79.082031 225.148438 76.519531 L 119.367188 3.054688 C 116.578125 1.117188 112.878906 1.117188 110.089844 3.054688 L 4.308594 76.519531 C 0.617188 79.082031 -0.292969 84.152344 2.269531 87.84375 C 4.832031 91.53125 9.894531 92.449219 13.589844 89.886719 Z M 13.589844 89.886719 " fill-opacity="1" fill-rule="nonzero"/><path fill="#867baa" d="M 163.550781 26.011719 L 179.824219 26.011719 L 179.824219 34.148438 C 179.824219 38.640625 183.464844 42.285156 187.960938 42.285156 C 192.453125 42.285156 196.097656 38.640625 196.097656 34.148438 L 196.097656 17.875 C 196.097656 13.382812 192.453125 9.738281 187.960938 9.738281 L 163.550781 9.738281 C 159.054688 9.738281 155.414062 13.382812 155.414062 17.875 C 155.414062 22.367188 159.054688 26.011719 163.550781 26.011719 Z M 163.550781 26.011719 " fill-opacity="1" fill-rule="nonzero"/><g clip-path="url(#31d1522fa6)"><path fill="#867baa" d="M 135.847656 221.292969 L 197.0625 221.292969 C 201.554688 221.292969 205.199219 217.652344 205.199219 213.15625 L 205.199219 107.378906 C 205.199219 102.886719 201.554688 99.242188 197.0625 99.242188 C 192.566406 99.242188 188.925781 102.886719 188.925781 107.378906 L 188.925781 205.019531 L 143.984375 205.019531 L 143.984375 151.195312 C 143.984375 146.699219 140.34375 143.058594 135.847656 143.058594 L 94.542969 143.058594 C 90.046875 143.058594 86.40625 146.699219 86.40625 151.195312 L 86.398438 205.019531 L 40.53125 205.019531 L 40.53125 107.378906 C 40.53125 102.886719 36.890625 99.242188 32.394531 99.242188 C 27.902344 99.242188 24.257812 102.886719 24.257812 107.378906 L 24.257812 213.15625 C 24.257812 217.652344 27.902344 221.292969 32.394531 221.292969 L 94.535156 221.292969 C 99.027344 221.292969 102.671875 217.652344 102.671875 213.15625 L 102.679688 159.332031 L 127.710938 159.332031 L 127.710938 213.15625 C 127.710938 217.652344 131.355469 221.292969 135.847656 221.292969 Z M 135.847656 221.292969 " fill-opacity="1" fill-rule="nonzero"/></g><g transform="matrix(1, 0, 0, 1, 55, 217)"><g clip-path="url(#283ade0173)"><g fill="#000000" fill-opacity="1"><g transform="translate(2.845605, 49.488736)"><g><path d="M 4.53125 0 L 4.53125 -33 L 8.375 -33 L 8.375 0 Z M 4.53125 0 "/></g></g><g transform="translate(15.730334, 49.488736)"><g><path d="M 20.890625 0 L 20.890625 -16 C 20.890625 -18.019531 20.429688 -19.523438 19.515625 -20.515625 C 18.597656 -21.503906 17.160156 -22 15.203125 -22 C 12.617188 -22 10.722656 -21.300781 9.515625 -19.90625 C 8.316406 -18.507812 7.71875 -16.195312 7.71875 -12.96875 L 7.71875 0 L 3.96875 0 L 3.96875 -24.734375 L 7.015625 -24.734375 L 7.625 -21.34375 L 7.8125 -21.34375 C 8.570312 -22.5625 9.644531 -23.503906 11.03125 -24.171875 C 12.414062 -24.847656 13.957031 -25.1875 15.65625 -25.1875 C 18.632812 -25.1875 20.875 -24.46875 22.375 -23.03125 C 23.882812 -21.59375 24.640625 -19.296875 24.640625 -16.140625 L 24.640625 0 Z M 20.890625 0 "/></g></g><g transform="translate(44.094792, 49.488736)"><g><path d="M 7.71875 0 L 3.96875 0 L 3.96875 -24.734375 L 7.71875 -24.734375 Z M 3.65625 -31.4375 C 3.65625 -32.289062 3.863281 -32.914062 4.28125 -33.3125 C 4.707031 -33.71875 5.238281 -33.921875 5.875 -33.921875 C 6.46875 -33.921875 6.984375 -33.71875 7.421875 -33.3125 C 7.859375 -32.90625 8.078125 -32.28125 8.078125 -31.4375 C 8.078125 -30.59375 7.859375 -29.960938 7.421875 -29.546875 C 6.984375 -29.140625 6.46875 -28.9375 5.875 -28.9375 C 5.238281 -28.9375 4.707031 -29.140625 4.28125 -29.546875 C 3.863281 -29.960938 3.65625 -30.59375 3.65625 -31.4375 Z M 3.65625 -31.4375 "/></g></g><g transform="translate(55.783566, 49.488736)"><g><path d="M 13.859375 0.453125 C 10.273438 0.453125 7.5 -0.644531 5.53125 -2.84375 C 3.570312 -5.050781 2.59375 -8.171875 2.59375 -12.203125 C 2.59375 -16.347656 3.585938 -19.546875 5.578125 -21.796875 C 7.578125 -24.054688 10.421875 -25.1875 14.109375 -25.1875 C 15.296875 -25.1875 16.484375 -25.054688 17.671875 -24.796875 C 18.859375 -24.546875 19.789062 -24.25 20.46875 -23.90625 L 19.3125 -20.71875 C 18.488281 -21.050781 17.585938 -21.328125 16.609375 -21.546875 C 15.628906 -21.765625 14.765625 -21.875 14.015625 -21.875 C 8.992188 -21.875 6.484375 -18.664062 6.484375 -12.25 C 6.484375 -9.21875 7.09375 -6.890625 8.3125 -5.265625 C 9.539062 -3.640625 11.359375 -2.828125 13.765625 -2.828125 C 15.828125 -2.828125 17.941406 -3.269531 20.109375 -4.15625 L 20.109375 -0.828125 C 18.453125 0.0234375 16.367188 0.453125 13.859375 0.453125 Z M 13.859375 0.453125 "/></g></g><g transform="translate(77.784637, 49.488736)"><g><path d="M 7.71875 0 L 3.96875 0 L 3.96875 -24.734375 L 7.71875 -24.734375 Z M 3.65625 -31.4375 C 3.65625 -32.289062 3.863281 -32.914062 4.28125 -33.3125 C 4.707031 -33.71875 5.238281 -33.921875 5.875 -33.921875 C 6.46875 -33.921875 6.984375 -33.71875 7.421875 -33.3125 C 7.859375 -32.90625 8.078125 -32.28125 8.078125 -31.4375 C 8.078125 -30.59375 7.859375 -29.960938 7.421875 -29.546875 C 6.984375 -29.140625 6.46875 -28.9375 5.875 -28.9375 C 5.238281 -28.9375 4.707031 -29.140625 4.28125 -29.546875 C 3.863281 -29.960938 3.65625 -30.59375 3.65625 -31.4375 Z M 3.65625 -31.4375 "/></g></g><g transform="translate(89.473411, 49.488736)"><g><path d="M 25.328125 -12.390625 C 25.328125 -8.359375 24.3125 -5.207031 22.28125 -2.9375 C 20.25 -0.675781 17.441406 0.453125 13.859375 0.453125 C 11.648438 0.453125 9.6875 -0.0625 7.96875 -1.09375 C 6.25 -2.132812 4.921875 -3.625 3.984375 -5.5625 C 3.054688 -7.507812 2.59375 -9.785156 2.59375 -12.390625 C 2.59375 -16.421875 3.597656 -19.5625 5.609375 -21.8125 C 7.628906 -24.0625 10.429688 -25.1875 14.015625 -25.1875 C 17.472656 -25.1875 20.222656 -24.035156 22.265625 -21.734375 C 24.304688 -19.429688 25.328125 -16.316406 25.328125 -12.390625 Z M 6.484375 -12.390625 C 6.484375 -9.234375 7.113281 -6.828125 8.375 -5.171875 C 9.632812 -3.515625 11.492188 -2.6875 13.953125 -2.6875 C 16.398438 -2.6875 18.257812 -3.507812 19.53125 -5.15625 C 20.800781 -6.800781 21.4375 -9.210938 21.4375 -12.390625 C 21.4375 -15.535156 20.800781 -17.921875 19.53125 -19.546875 C 18.257812 -21.179688 16.382812 -22 13.90625 -22 C 11.445312 -22 9.59375 -21.191406 8.34375 -19.578125 C 7.101562 -17.972656 6.484375 -15.578125 6.484375 -12.390625 Z M 6.484375 -12.390625 "/></g></g></g></g></g></svg>