<svg xmlns="http://www.w3.org/2000/svg" xmlns:xlink="http://www.w3.org/1999/xlink" width="352" zoomAndPan="magnify" viewBox="0 0 264 209.999996" height="280" preserveAspectRatio="xMidYMid meet" version="1.0"><defs><g/><clipPath id="36fd01222e"><path d="M 19 0 L 247.039062 0 L 247.039062 140.25 L 19 140.25 Z M 19 0 " clip-rule="nonzero"/></clipPath><clipPath id="5379812049"><rect x="0" width="223" y="0" height="65"/></clipPath></defs><path fill="#867baa" d="M 111.46875 4.730469 C 117.214844 2.542969 123.199219 1.285156 129.417969 0.957031 C 138.765625 0.46875 148.257812 1.285156 157.90625 3.417969 C 165.109375 5.007812 171.152344 8.472656 176.035156 13.808594 C 176.320312 14.125 176.667969 14.335938 177.078125 14.445312 C 186.949219 17.171875 196.074219 22.492188 203.632812 29.21875 C 204.046875 29.589844 204.507812 29.878906 205.019531 30.09375 C 207.773438 31.246094 210.328125 32.6875 212.691406 34.414062 C 215.941406 36.789062 217.605469 38.003906 217.679688 38.054688 C 221.851562 40.964844 224.808594 44.371094 227.007812 48.867188 C 228.59375 52.113281 230.070312 55.175781 231.4375 58.042969 C 232.46875 60.214844 233.929688 61.566406 235.097656 63.453125 C 240.90625 72.792969 244.289062 82.621094 245.246094 92.9375 C 246.882812 110.492188 235.738281 125.191406 220.382812 132.378906 C 204.566406 139.78125 187.789062 140.296875 170.679688 139.304688 C 158.078125 138.574219 144.707031 137.308594 130.570312 135.503906 C 114.972656 133.511719 97.511719 130.976562 78.183594 127.898438 C 69.289062 126.480469 60.0625 125.074219 51.757812 123.4375 C 46.582031 122.421875 41.363281 121.023438 36.890625 118.308594 C 17.117188 106.328125 20.734375 77.914062 28.722656 60.199219 C 33.652344 49.253906 40.925781 40.230469 50.535156 33.128906 C 51.320312 32.546875 53.035156 31.363281 55.675781 29.578125 C 55.804688 29.492188 55.902344 29.375 55.964844 29.230469 C 59.335938 22.023438 65.027344 16.558594 71.382812 12.011719 C 79.257812 6.375 88.980469 1.683594 98.804688 1.136719 C 103.355469 0.882812 107.402344 2.058594 110.941406 4.65625 C 111.101562 4.777344 111.277344 4.800781 111.46875 4.730469 Z M 97.5 32.042969 C 93.484375 39.617188 90.378906 47.695312 88.179688 56.273438 C 86.714844 62.011719 85.953125 68.488281 85.40625 74.6875 C 85.371094 75.050781 85.308594 75.355469 85.21875 75.605469 C 85.167969 75.738281 85.070312 75.808594 84.929688 75.816406 C 84.789062 75.828125 84.683594 75.769531 84.617188 75.648438 C 84.019531 74.589844 83.566406 73.625 83.257812 72.753906 C 81.039062 66.585938 79.667969 60.566406 79.132812 54.695312 C 78.1875 44.214844 79.253906 34.027344 82.332031 24.132812 C 83.476562 20.597656 85.007812 17.308594 86.925781 14.265625 C 86.964844 14.210938 86.992188 14.191406 87.007812 14.207031 C 87.019531 14.214844 87.027344 14.21875 87.035156 14.210938 C 87.371094 13.636719 87.988281 12.730469 88.886719 11.503906 C 88.945312 11.421875 88.941406 11.339844 88.878906 11.261719 C 88.816406 11.183594 88.742188 11.160156 88.648438 11.195312 C 87.507812 11.667969 86.144531 12.347656 84.554688 13.230469 C 84.21875 13.417969 83.792969 13.570312 83.285156 13.679688 C 83.035156 13.730469 82.640625 13.9375 82.097656 14.300781 C 81.902344 14.433594 81.644531 14.542969 81.324219 14.628906 C 81.300781 14.632812 81.292969 14.648438 81.304688 14.671875 C 81.316406 14.695312 81.335938 14.703125 81.363281 14.695312 C 81.382812 14.695312 81.398438 14.695312 81.414062 14.707031 C 81.433594 14.726562 81.40625 14.761719 81.339844 14.8125 C 80.566406 15.375 79.851562 15.757812 79.199219 15.953125 C 79.050781 15.996094 78.925781 16.078125 78.828125 16.199219 C 78.527344 16.570312 78.195312 16.785156 77.832031 16.851562 C 77.828125 16.859375 77.84375 16.867188 77.875 16.878906 C 77.945312 16.90625 77.988281 16.921875 77.996094 16.925781 C 78.003906 16.929688 78.007812 16.9375 78.007812 16.949219 C 78.003906 16.960938 78 16.96875 77.988281 16.972656 C 77.480469 17.078125 77.148438 17.261719 76.992188 17.523438 C 76.925781 17.628906 76.824219 17.691406 76.695312 17.703125 C 76.652344 17.703125 76.628906 17.707031 76.628906 17.710938 C 76.46875 17.761719 76.320312 17.835938 76.1875 17.933594 C 73.027344 20.289062 71.070312 21.785156 70.324219 22.421875 C 69.671875 22.984375 67.84375 24.742188 64.839844 27.703125 C 64.683594 27.851562 64.550781 28.019531 64.441406 28.207031 C 63.394531 29.9375 62.6875 31.570312 62.324219 33.101562 C 60.296875 41.648438 59.695312 50.460938 60.515625 59.535156 C 60.765625 62.359375 61.132812 65.171875 61.617188 67.976562 C 61.699219 68.449219 61.675781 68.824219 61.542969 69.101562 C 61.46875 69.253906 61.367188 69.382812 61.238281 69.488281 C 61.109375 69.589844 60.960938 69.664062 60.800781 69.703125 C 60.636719 69.742188 60.472656 69.746094 60.308594 69.710938 C 60.144531 69.675781 59.996094 69.609375 59.863281 69.507812 C 58.996094 68.847656 58.183594 68.023438 57.433594 67.042969 C 55.082031 63.976562 53.234375 60.753906 51.890625 57.386719 C 50.113281 52.867188 49.128906 48.335938 48.9375 43.792969 C 48.9375 43.71875 48.902344 43.664062 48.828125 43.636719 C 48.757812 43.605469 48.695312 43.621094 48.640625 43.675781 C 44.257812 47.988281 40.636719 52.589844 37.773438 57.484375 C 37.726562 57.5625 37.707031 57.648438 37.710938 57.753906 C 37.710938 57.820312 37.683594 57.875 37.636719 57.921875 C 37.226562 58.300781 36.9375 58.808594 36.769531 59.449219 C 36.753906 59.519531 36.722656 59.585938 36.679688 59.648438 C 36.300781 60.164062 35.910156 60.917969 35.507812 61.914062 C 35.5 61.929688 35.484375 61.9375 35.464844 61.933594 C 35.445312 61.933594 35.433594 61.917969 35.429688 61.898438 C 35.414062 61.53125 35.402344 61.316406 35.398438 61.246094 C 35.398438 61.234375 35.398438 61.238281 35.394531 61.25 C 35.390625 61.28125 35.386719 61.296875 35.382812 61.308594 C 35.253906 61.644531 35.050781 62.261719 34.773438 63.164062 C 34.683594 63.449219 34.511719 63.671875 34.261719 63.832031 C 34.238281 63.847656 34.234375 63.917969 34.25 64.039062 C 34.28125 64.246094 34.246094 64.441406 34.148438 64.632812 L 33.25 66.394531 C 33.234375 66.417969 33.226562 66.441406 33.226562 66.464844 C 33.175781 66.890625 32.957031 67.546875 32.574219 68.4375 C 32.265625 69.152344 32.390625 69.808594 31.957031 70.40625 C 31.90625 70.480469 31.867188 70.558594 31.839844 70.644531 C 30.433594 75.054688 29.578125 79.503906 29.273438 83.992188 C 27.710938 97.996094 31.898438 111.152344 46.835938 115.257812 C 49.808594 116.074219 53.453125 116.835938 57.769531 117.535156 C 71.53125 119.773438 80.648438 121.253906 85.125 121.972656 C 91.886719 123.054688 102.335938 124.589844 116.472656 126.578125 C 123.898438 127.621094 134.828125 128.949219 149.265625 130.558594 C 155.597656 131.261719 162.964844 131.824219 171.375 132.246094 C 176.910156 132.519531 181.996094 132.601562 186.628906 132.492188 C 195.125 132.300781 203.117188 130.996094 210.605469 128.582031 C 222.183594 124.851562 233.472656 116.390625 236.996094 104.386719 C 238.441406 99.460938 238.617188 94.273438 237.527344 88.820312 C 236.8125 85.257812 235.957031 82.066406 234.960938 79.242188 C 232.984375 74.199219 230.460938 69.425781 227.390625 64.921875 C 227.207031 64.65625 226.980469 64.433594 226.707031 64.257812 C 223.808594 62.394531 220.742188 61.199219 217.511719 60.667969 C 207.976562 59.105469 198.808594 60.46875 190.003906 64.757812 C 181.226562 69.03125 173.625 75.425781 167.203125 82.894531 C 163.441406 87.269531 160.121094 91.652344 157.242188 96.039062 C 153.65625 101.511719 151.675781 104.535156 151.296875 105.113281 C 151.128906 105.363281 150.90625 105.535156 150.628906 105.628906 C 150.347656 105.722656 150.066406 105.722656 149.792969 105.621094 C 148.507812 105.148438 147.953125 101.804688 147.761719 100.46875 C 147.273438 96.976562 147.460938 93.519531 148.324219 90.101562 C 149.109375 86.996094 149.980469 84.410156 150.9375 82.335938 C 157.980469 67.09375 168.242188 54.96875 181.714844 45.957031 C 185.933594 43.140625 190.671875 40.925781 195.933594 39.304688 C 198.519531 38.503906 201.050781 38.074219 203.535156 38.019531 C 203.589844 38.019531 203.628906 37.996094 203.648438 37.945312 C 203.667969 37.894531 203.660156 37.851562 203.621094 37.8125 C 202.542969 36.753906 201.328125 35.886719 199.980469 35.214844 C 197.539062 34 194.207031 34.914062 191.816406 36.042969 C 190.191406 36.773438 188.578125 37.714844 186.976562 38.867188 C 185.4375 39.96875 183.988281 41.070312 182.625 42.171875 C 180.726562 43.703125 178.128906 40.457031 179.992188 38.796875 C 182.730469 36.351562 185.375 34.429688 187.925781 33.035156 C 189.9375 31.96875 191.828125 31.28125 193.59375 30.96875 C 193.691406 30.953125 193.753906 30.894531 193.777344 30.796875 C 193.800781 30.699219 193.773438 30.621094 193.695312 30.558594 C 188.6875 26.777344 183.300781 23.832031 177.53125 21.722656 C 175.1875 20.867188 173.484375 20.492188 172.417969 20.601562 C 170.457031 20.792969 167.484375 21.644531 163.5 23.152344 C 157.40625 25.441406 151.765625 28.691406 146.574219 32.898438 C 135.441406 41.921875 126.972656 53.566406 120.363281 66.199219 C 119.019531 68.769531 117.308594 72.261719 115.234375 76.675781 C 115 77.179688 114.550781 77.75 113.886719 78.378906 C 113.753906 78.507812 113.613281 78.515625 113.46875 78.402344 C 112.878906 77.949219 112.550781 77.421875 112.488281 76.8125 C 111.960938 71.679688 112.988281 65.945312 114.289062 60.933594 C 117.949219 46.796875 124.207031 33.832031 133.066406 22.046875 C 133.847656 21.007812 135.046875 19.578125 136.660156 17.761719 C 139.59375 14.546875 142.917969 11.65625 146.640625 9.09375 C 146.703125 9.050781 146.726562 8.996094 146.707031 8.921875 C 146.691406 8.847656 146.644531 8.808594 146.570312 8.796875 C 136.839844 7.453125 125.890625 7.617188 116.601562 10.898438 C 113.226562 12.089844 110.476562 13.847656 108.351562 16.167969 C 105.902344 18.835938 103.511719 22.027344 101.175781 25.746094 C 99.34375 28.65625 98.121094 30.753906 97.5 32.042969 Z M 95.527344 12.015625 C 94.714844 12.402344 94.253906 13.03125 94.148438 13.910156 C 93.910156 13.898438 93.738281 13.988281 93.636719 14.179688 C 93.1875 15.011719 92.78125 15.703125 92.421875 16.257812 C 91.675781 17.402344 91.246094 18.078125 91.140625 18.289062 C 89.21875 21.980469 87.875 25.164062 87.101562 27.832031 C 86.03125 31.53125 85.304688 34.667969 84.925781 37.242188 C 84.175781 42.351562 83.960938 47.957031 84.277344 54.058594 C 84.28125 54.121094 84.3125 54.179688 84.375 54.242188 C 84.410156 54.273438 84.445312 54.285156 84.492188 54.269531 C 84.535156 54.257812 84.5625 54.226562 84.570312 54.183594 C 85.261719 50.894531 86.140625 47.785156 87.203125 44.855469 C 90.679688 35.300781 95.222656 26.582031 100.839844 18.707031 C 102.828125 15.914062 104.820312 13.292969 106.816406 10.835938 C 106.878906 10.761719 106.917969 10.671875 106.941406 10.578125 C 106.964844 10.480469 106.964844 10.386719 106.941406 10.292969 C 106.921875 10.195312 106.878906 10.109375 106.816406 10.035156 C 106.757812 9.957031 106.683594 9.898438 106.59375 9.855469 C 104.480469 8.851562 102.242188 8.351562 99.886719 8.355469 C 99.726562 8.355469 99.582031 8.398438 99.453125 8.488281 C 97.992188 9.496094 96.683594 10.671875 95.527344 12.015625 Z M 140.570312 21.511719 L 140.570312 21.621094 C 140.570312 21.640625 140.5625 21.65625 140.550781 21.667969 C 134.34375 28.414062 129.246094 36.03125 125.261719 44.515625 C 123.128906 49.058594 121.199219 53.847656 119.46875 58.878906 C 119.4375 58.984375 119.46875 59.054688 119.5625 59.101562 L 119.570312 59.105469 C 119.683594 59.160156 119.765625 59.132812 119.824219 59.023438 C 124.816406 49.835938 130.992188 41.660156 138.355469 34.503906 C 146.617188 26.457031 156.320312 20.515625 167.445312 17.523438 C 167.492188 17.507812 167.535156 17.484375 167.570312 17.449219 C 167.605469 17.414062 167.632812 17.371094 167.644531 17.324219 C 167.660156 17.273438 167.660156 17.226562 167.652344 17.175781 C 167.640625 17.125 167.617188 17.082031 167.582031 17.046875 C 165.84375 15.160156 163.835938 13.546875 161.558594 12.203125 C 159.039062 10.71875 156.457031 10.558594 153.820312 11.722656 C 150.339844 13.261719 147.234375 15.339844 144.503906 17.960938 C 144.183594 18.273438 143.605469 18.785156 142.769531 19.496094 C 142.207031 19.984375 141.65625 20.523438 141.117188 21.125 C 140.921875 21.335938 140.753906 21.449219 140.617188 21.460938 C 140.585938 21.464844 140.570312 21.480469 140.570312 21.511719 Z M 55.824219 55.191406 C 55.851562 55.269531 55.90625 55.300781 55.992188 55.28125 C 56.074219 55.261719 56.109375 55.210938 56.101562 55.125 C 55.800781 49.675781 56.09375 44.453125 56.980469 39.449219 C 57.011719 39.273438 56.980469 39.109375 56.894531 38.953125 C 56.808594 38.800781 56.679688 38.691406 56.515625 38.628906 C 53.984375 37.675781 52.433594 39.863281 52.640625 42.113281 C 53.046875 46.515625 54.105469 50.875 55.824219 55.191406 Z M 151.382812 97.480469 C 152.214844 96.351562 153.046875 95.136719 153.878906 93.835938 C 158.710938 86.253906 164.277344 79.460938 170.574219 73.457031 C 175.308594 68.945312 180.140625 65.328125 185.070312 62.601562 C 196.90625 56.066406 209.453125 54.503906 222.703125 57.921875 C 222.789062 57.945312 222.859375 57.925781 222.917969 57.859375 C 222.976562 57.792969 222.988281 57.71875 222.957031 57.636719 C 220.875 52.226562 217.691406 47.257812 212.898438 44.140625 C 208.964844 41.589844 203.125 41.828125 198.707031 42.925781 C 194.234375 44.03125 189.90625 45.882812 185.722656 48.484375 C 172.859375 56.472656 162.609375 68.476562 155.847656 82.144531 C 153.496094 86.90625 151.902344 91.972656 151.070312 97.34375 C 151.054688 97.4375 151.089844 97.5 151.171875 97.535156 C 151.257812 97.570312 151.328125 97.554688 151.382812 97.480469 Z M 151.382812 97.480469 " fill-opacity="1" fill-rule="nonzero"/><g clip-path="url(#36fd01222e)"><path stroke-linecap="butt" transform="matrix(0.462312, 0, 0, 0.462312, -1371.940567, -96.946897)" fill="none" stroke-linejoin="miter" d="M 3208.673316 219.932184 C 3221.102345 215.200534 3234.046786 212.479836 3247.49819 211.770089 C 3267.717542 210.713917 3288.249521 212.479836 3309.119474 217.093194 C 3324.70012 220.532089 3337.771302 228.026684 3348.333019 239.568529 C 3348.949823 240.252928 3349.701818 240.709195 3350.589002 240.945777 C 3371.94057 246.84344 3391.678308 258.351488 3408.027847 272.90131 C 3408.92348 273.704 3409.920506 274.329254 3411.027374 274.793969 C 3416.984183 277.286535 3422.510074 280.404354 3427.621945 284.138977 C 3434.651824 289.276196 3438.251257 291.903952 3438.411796 292.013794 C 3447.435727 298.308577 3453.831903 305.676431 3458.588901 315.401661 C 3462.019347 322.423091 3465.21321 329.0474 3468.170491 335.24924 C 3470.401126 339.947092 3473.561191 342.870576 3476.087554 346.951623 C 3488.651773 367.154077 3495.968931 388.412702 3498.039028 410.727499 C 3501.579316 448.698985 3477.473252 480.49398 3444.258762 496.040828 C 3410.047247 512.052392 3373.757186 513.167709 3336.748927 511.021568 C 3309.491247 509.441535 3280.56904 506.703938 3249.990755 502.800327 C 3216.252405 498.491146 3178.483703 493.007503 3136.6762 486.349396 C 3117.436975 483.282273 3097.479554 480.240499 3079.516185 476.700211 C 3068.320764 474.503374 3057.032401 471.478498 3047.357867 465.606183 C 3004.587136 439.691953 3012.411256 378.231206 3029.690226 339.913295 C 3040.353336 316.238149 3056.086071 296.720095 3076.871531 281.359133 C 3078.569855 280.100176 3082.27913 277.540016 3087.990907 273.678652 C 3088.269736 273.492766 3088.480971 273.239285 3088.616161 272.926658 C 3095.90797 257.337563 3108.218708 245.516888 3121.96584 235.681817 C 3138.999778 223.48937 3160.03027 213.341672 3181.280445 212.15876 C 3191.123966 211.60955 3199.877518 214.152812 3207.532651 219.771646 C 3207.879075 220.033576 3208.259297 220.084273 3208.673316 219.932184 Z M 3178.458355 279.010207 C 3169.772398 295.393543 3163.055146 312.866849 3158.298148 331.421674 C 3155.129633 343.833804 3153.482005 357.842867 3152.299093 371.252023 C 3152.223048 372.037815 3152.087858 372.696866 3151.893523 373.237626 C 3151.783681 373.524905 3151.572446 373.676993 3151.268269 373.693892 C 3150.964092 373.71924 3150.735958 373.5925 3150.592319 373.330569 C 3149.299565 371.040789 3148.319437 368.953793 3147.651937 367.069583 C 3142.852692 353.728021 3139.886962 340.707536 3138.729398 328.008127 C 3136.684649 305.338456 3138.991329 283.302489 3145.649435 261.900225 C 3148.125102 254.253541 3151.437256 247.139168 3155.585899 240.557106 C 3155.670393 240.438815 3155.729538 240.396568 3155.763336 240.430365 C 3155.788684 240.447264 3155.805583 240.455713 3155.822482 240.438815 C 3156.549128 239.196757 3157.884129 237.236502 3159.827485 234.583398 C 3159.954225 234.405962 3159.945776 234.228525 3159.810586 234.059537 C 3159.675396 233.89055 3159.514858 233.839854 3159.312073 233.915898 C 3156.844856 234.938272 3153.896024 236.408463 3150.457129 238.318022 C 3149.730483 238.723592 3148.809501 239.053117 3147.711083 239.2897 C 3147.170323 239.399542 3146.316936 239.847358 3145.142473 240.63315 C 3144.720004 240.920429 3144.162345 241.157011 3143.469497 241.342898 C 3143.418801 241.351347 3143.401902 241.385145 3143.42725 241.435841 C 3143.452598 241.486537 3143.494845 241.503436 3143.55399 241.486537 C 3143.596237 241.486537 3143.630035 241.486537 3143.663832 241.511885 C 3143.706079 241.554132 3143.646934 241.630176 3143.503294 241.740018 C 3141.830318 242.956728 3140.284083 243.784767 3138.873037 244.207235 C 3138.551961 244.300179 3138.281581 244.477615 3138.070347 244.739546 C 3137.419745 245.542237 3136.701548 246.006952 3135.915756 246.150591 C 3135.907307 246.16749 3135.941105 246.184389 3136.0087 246.209737 C 3136.160788 246.268883 3136.253731 246.30268 3136.27063 246.31113 C 3136.287529 246.319579 3136.295978 246.336478 3136.295978 246.361826 C 3136.287529 246.387174 3136.279079 246.404073 3136.253731 246.412522 C 3135.155313 246.640655 3134.437116 247.037776 3134.099141 247.603884 C 3133.955502 247.832017 3133.735818 247.967207 3133.456989 247.992555 C 3133.364045 247.992555 3133.313349 248.001004 3133.313349 248.009454 C 3132.966925 248.119296 3132.645849 248.279834 3132.35857 248.491068 C 3125.523026 253.586041 3121.28989 256.822151 3119.67606 258.199399 C 3118.265014 259.416109 3114.310707 263.218327 3107.813138 269.622952 C 3107.475163 269.944029 3107.187885 270.307352 3106.951302 270.712922 C 3104.68687 274.455994 3103.157533 277.987833 3102.371742 281.299987 C 3097.986516 299.787218 3096.685313 318.849005 3098.459681 338.476901 C 3099.000441 344.585799 3099.794682 350.669348 3100.842405 356.735999 C 3101.019842 357.758373 3100.969145 358.569513 3100.681867 359.169418 C 3100.521329 359.498944 3100.301645 359.777773 3100.022816 360.005906 C 3099.743986 360.22559 3099.42291 360.386128 3099.076486 360.470622 C 3098.721612 360.555116 3098.366738 360.563565 3098.011865 360.487521 C 3097.656991 360.411476 3097.335915 360.267837 3097.048636 360.048153 C 3095.172875 358.620209 3093.415405 356.837391 3091.793125 354.716598 C 3086.706602 348.08384 3082.710048 341.113106 3079.803464 333.829746 C 3075.958998 324.05382 3073.829756 314.252546 3073.415737 304.425924 C 3073.415737 304.265386 3073.339692 304.147095 3073.179154 304.087949 C 3073.027066 304.020354 3072.891876 304.054152 3072.773584 304.172443 C 3063.293387 313.500552 3055.460817 323.453914 3049.267426 334.04098 C 3049.166033 334.209967 3049.123786 334.395854 3049.132236 334.623987 C 3049.132236 334.767626 3049.07309 334.885917 3048.971698 334.98731 C 3048.084513 335.806899 3047.45926 336.905318 3047.095937 338.291015 C 3047.062139 338.443104 3046.994544 338.586743 3046.901601 338.721933 C 3046.082012 339.837251 3045.237074 341.46798 3044.366789 343.62257 C 3044.34989 343.656368 3044.316093 343.673266 3044.273846 343.664817 C 3044.231599 343.664817 3044.206251 343.631019 3044.197801 343.588773 C 3044.164004 342.794531 3044.138656 342.329816 3044.130206 342.177727 C 3044.130206 342.152379 3044.130206 342.160828 3044.121757 342.186177 C 3044.113308 342.253772 3044.104858 342.287569 3044.096409 342.312917 C 3043.81758 343.039563 3043.378212 344.374564 3042.778307 346.32637 C 3042.583971 346.943174 3042.212199 347.424788 3041.671439 347.771213 C 3041.620742 347.80501 3041.612293 347.957099 3041.64609 348.21903 C 3041.713685 348.666846 3041.637641 349.089315 3041.426407 349.503334 L 3039.483051 353.314002 C 3039.449253 353.364698 3039.432354 353.415395 3039.432354 353.466091 C 3039.322513 354.387073 3038.849348 355.806567 3038.021309 357.733025 C 3037.353808 359.27926 3037.624188 360.698755 3036.686308 361.991509 C 3036.576466 362.152047 3036.491972 362.321035 3036.432827 362.506921 C 3033.391052 372.046264 3031.540639 381.670101 3030.881588 391.378432 C 3027.501838 421.669438 3036.559567 450.12693 3068.869974 459.007222 C 3075.299947 460.773141 3083.183213 462.420769 3092.519771 463.933207 C 3122.286916 468.774698 3142.007755 471.977011 3151.690738 473.531696 C 3166.316604 475.872172 3188.91868 479.192776 3219.496964 483.493508 C 3235.559224 485.74949 3259.200573 488.622278 3290.429459 492.10342 C 3304.125894 493.624307 3320.061414 494.841017 3338.252916 495.753549 C 3350.225679 496.345005 3361.226764 496.522442 3371.247721 496.28586 C 3389.62511 495.87184 3406.912529 493.04975 3423.109979 487.828036 C 3448.153924 479.758884 3472.572615 461.45754 3480.19395 435.492614 C 3483.320218 424.837953 3483.70044 413.617184 3481.343065 401.821858 C 3479.796829 394.116029 3477.946417 387.212891 3475.791826 381.103993 C 3471.516443 370.195851 3466.058147 359.870716 3459.416939 350.128588 C 3459.019819 349.554031 3458.529755 349.072416 3457.938299 348.692195 C 3451.668863 344.661843 3445.036105 342.076335 3438.048472 340.92722 C 3417.42355 337.54747 3397.59287 340.496302 3378.547981 349.773714 C 3359.562237 359.01733 3343.119755 372.848955 3329.228984 389.004158 C 3321.092237 398.467457 3313.910269 407.947654 3307.683081 417.436301 C 3299.926555 429.273874 3295.642723 435.81369 3294.823134 437.064197 C 3294.45981 437.604957 3293.978196 437.97673 3293.378291 438.179515 C 3292.769936 438.3823 3292.161581 438.3823 3291.570125 438.162616 C 3288.79028 437.140242 3287.590469 429.907578 3287.17645 427.017892 C 3286.120278 419.464151 3286.525848 411.986455 3288.39316 404.593253 C 3290.091484 397.876001 3291.975694 392.282515 3294.045791 387.795897 C 3309.280012 354.82644 3331.476518 328.599583 3360.618409 309.106877 C 3369.743733 303.014879 3379.992824 298.224084 3391.37413 294.717593 C 3396.967616 292.985472 3402.44281 292.05604 3407.816612 291.937749 C 3407.934903 291.937749 3408.019397 291.887053 3408.061644 291.777211 C 3408.103891 291.667369 3408.086992 291.574426 3408.002498 291.489932 C 3405.670471 289.200152 3403.042716 287.324391 3400.127682 285.871099 C 3394.846823 283.243343 3387.639507 285.220497 3382.46849 287.662366 C 3378.953551 289.242399 3375.463959 291.278698 3371.999716 293.771263 C 3368.670662 296.153987 3365.535945 298.53671 3362.587113 300.919434 C 3358.480717 304.231588 3352.861884 297.210159 3356.892235 293.619175 C 3362.815246 288.329867 3368.535472 284.172775 3374.052914 281.156348 C 3378.404341 278.849669 3382.493838 277.362579 3386.312955 276.686629 C 3386.52419 276.652832 3386.65938 276.526091 3386.710076 276.314857 C 3386.760772 276.103622 3386.701627 275.934635 3386.532639 275.799445 C 3375.700542 267.620451 3364.048855 261.249623 3351.569129 256.686961 C 3346.499505 254.836548 3342.815578 254.025408 3340.508899 254.261991 C 3336.267313 254.67601 3329.837339 256.517973 3321.218978 259.779432 C 3308.037954 264.730765 3295.837058 271.760644 3284.60784 280.86062 C 3260.527124 300.378674 3242.208882 325.566258 3227.912541 352.891533 C 3225.005956 358.451221 3221.30513 366.004962 3216.818513 375.552755 C 3216.31155 376.642724 3215.339872 377.876332 3213.903479 379.236682 C 3213.6162 379.515511 3213.312022 379.53241 3212.999396 379.287378 C 3211.72354 378.30725 3211.013793 377.166585 3210.878603 375.848483 C 3209.737937 364.746005 3211.960123 352.342324 3214.773764 341.501777 C 3222.690828 310.923493 3236.226725 282.88002 3255.389905 257.388259 C 3257.07978 255.140725 3259.673738 252.048255 3263.163329 248.119296 C 3269.508809 241.165461 3276.699226 234.912924 3284.75148 229.370135 C 3284.88667 229.277192 3284.937366 229.1589 3284.895119 228.998362 C 3284.861322 228.837824 3284.759929 228.75333 3284.599391 228.727982 C 3263.552 225.821398 3239.868405 226.176271 3219.775793 233.273745 C 3212.475534 235.850805 3206.527175 239.653023 3201.930716 244.671951 C 3196.632958 250.442873 3191.461941 257.346012 3186.409216 265.389816 C 3182.446459 271.6846 3179.801805 276.221914 3178.458355 279.010207 Z M 3174.191421 235.690266 C 3172.433951 236.526754 3171.436925 237.887104 3171.208792 239.788213 C 3170.69338 239.762865 3170.321607 239.9572 3170.101924 240.37122 C 3169.130246 242.170936 3168.251511 243.666475 3167.474168 244.866287 C 3165.860338 247.341953 3164.930907 248.803695 3164.702774 249.259961 C 3160.545682 257.24462 3157.639097 264.130859 3155.966121 269.901782 C 3153.650992 277.903339 3152.079409 284.688186 3151.25982 290.256324 C 3149.63754 301.308105 3149.172824 313.432957 3149.857224 326.630879 C 3149.865673 326.766069 3149.933268 326.89281 3150.068458 327.028 C 3150.144502 327.095595 3150.220547 327.120943 3150.321939 327.087145 C 3150.414882 327.061797 3150.474028 326.994202 3150.490927 326.901259 C 3151.986466 319.786886 3153.887575 313.061184 3156.185805 306.724154 C 3163.705748 286.056985 3173.53237 267.197982 3185.682569 250.164044 C 3189.983301 244.122742 3194.292481 238.453212 3198.610112 233.138555 C 3198.745302 232.978017 3198.829795 232.783682 3198.880492 232.580897 C 3198.931188 232.369662 3198.931188 232.166877 3198.880492 231.964092 C 3198.838245 231.752858 3198.745302 231.566972 3198.610112 231.406434 C 3198.483371 231.237446 3198.322833 231.110706 3198.128497 231.017763 C 3193.557386 228.846273 3188.715895 227.764754 3183.620922 227.773203 C 3183.274498 227.773203 3182.961871 227.866146 3182.683042 228.060482 C 3179.522976 230.24042 3176.692435 232.783682 3174.191421 235.690266 Z M 3271.621152 256.230695 L 3271.621152 256.467277 C 3271.621152 256.509524 3271.604254 256.543321 3271.578906 256.56867 C 3258.15285 271.160739 3247.126417 287.637018 3238.508056 305.989058 C 3233.894697 315.81568 3229.720707 326.174613 3225.977634 337.057406 C 3225.910039 337.28554 3225.977634 337.437628 3226.180419 337.539021 L 3226.197318 337.54747 C 3226.44235 337.665761 3226.619786 337.606616 3226.746527 337.370033 C 3237.544827 317.497106 3250.903287 299.812566 3266.830357 284.333313 C 3284.700783 266.927602 3305.689028 254.076104 3329.752846 247.603884 C 3329.854238 247.570086 3329.947181 247.51939 3330.023226 247.443346 C 3330.09927 247.367301 3330.158416 247.274358 3330.183764 247.172966 C 3330.217561 247.063124 3330.217561 246.961731 3330.200663 246.851889 C 3330.175314 246.742048 3330.124618 246.649105 3330.048574 246.57306 C 3326.288602 242.492012 3321.945624 239.002421 3317.019639 236.095836 C 3311.569793 232.885074 3305.984757 232.53865 3300.281429 235.056563 C 3292.753037 238.385617 3286.035785 242.880684 3280.129672 248.550214 C 3279.436823 249.226164 3278.186316 250.333032 3276.37815 251.870818 C 3275.16144 252.926989 3273.970078 254.093003 3272.804065 255.394207 C 3272.381596 255.850473 3272.018273 256.095505 3271.722545 256.120853 C 3271.65495 256.129302 3271.621152 256.1631 3271.621152 256.230695 Z M 3088.311983 329.081197 C 3088.371129 329.250185 3088.48942 329.31778 3088.675306 329.275533 C 3088.852743 329.233286 3088.928787 329.123444 3088.911889 328.937558 C 3088.261287 317.150681 3088.89499 305.853868 3090.812998 295.03022 C 3090.880593 294.649998 3090.812998 294.295125 3090.627112 293.95715 C 3090.441225 293.627624 3090.162396 293.391042 3089.807522 293.255852 C 3084.332328 291.194204 3080.977927 295.925854 3081.425743 300.792693 C 3082.304478 310.315138 3084.594259 319.744639 3088.311983 329.081197 Z M 3295.00902 420.554121 C 3296.808736 418.112251 3298.608453 415.484496 3300.40817 412.670855 C 3310.860045 396.27062 3322.900403 381.577158 3336.520794 368.59047 C 3346.761436 358.831443 3357.213311 351.007323 3367.876421 345.10966 C 3393.478025 330.973857 3420.617414 327.594108 3449.277691 334.98731 C 3449.463577 335.038006 3449.615665 334.995759 3449.742406 334.85212 C 3449.869147 334.708481 3449.894495 334.547942 3449.8269 334.370506 C 3445.323383 322.668123 3438.437144 311.920519 3428.069762 305.177918 C 3419.561242 299.660477 3406.929428 300.175889 3397.373186 302.550163 C 3387.698653 304.941336 3378.336746 308.946339 3369.287467 314.573622 C 3341.463678 331.852592 3319.292521 357.817518 3304.666654 387.381878 C 3299.580131 397.681665 3296.132786 408.640503 3294.33307 420.258392 C 3294.299272 420.461177 3294.375317 420.596367 3294.552754 420.672412 C 3294.73864 420.748456 3294.890728 420.714659 3295.00902 420.554121 Z M 3295.00902 420.554121 " stroke="#000000" stroke-width="1" stroke-opacity="1" stroke-miterlimit="4"/></g><path stroke-linecap="butt" transform="matrix(0.462312, 0, 0, 0.462312, -1371.940567, -96.946897)" fill-opacity="1" fill="#867baa" fill-rule="nonzero" stroke-linejoin="miter" d="M 3235.221249 250.442873 C 3234.097482 251.600438 3232.720234 253.290312 3231.106404 255.512498 C 3230.734632 256.02791 3230.244568 256.365885 3229.636213 256.543321 C 3229.027858 256.720758 3228.427952 256.686961 3227.836496 256.450378 C 3226.417001 255.875821 3225.876242 254.67601 3226.214216 252.859394 C 3229.010959 249.057176 3231.925993 245.246508 3234.959319 241.435841 C 3235.331091 240.979575 3235.804256 240.683846 3236.378813 240.548656 C 3236.96182 240.421916 3237.51103 240.481061 3238.051789 240.742992 C 3240.87388 242.103341 3239.716316 244.249482 3238.127834 246.31113 C 3237.249099 247.443346 3236.277421 248.820594 3235.221249 250.442873 Z M 3235.221249 250.442873 " stroke="#000000" stroke-width="1" stroke-opacity="1" stroke-miterlimit="4"/><path stroke-linecap="butt" transform="matrix(0.462312, 0, 0, 0.462312, -1371.940567, -96.946897)" fill-opacity="1" fill="#867baa" fill-rule="nonzero" stroke-linejoin="miter" d="M 3357.990654 272.960455 C 3357.999103 274.65033 3357.264007 275.689603 3355.793816 276.069825 C 3335.701205 281.274639 3317.602646 290.670343 3301.48969 304.240038 C 3301.21931 304.468171 3300.915132 304.628709 3300.568708 304.721652 C 3300.230733 304.814595 3299.884309 304.839943 3299.537884 304.780798 C 3299.18301 304.730102 3298.861934 304.603361 3298.566206 304.409025 C 3298.278927 304.20624 3298.033896 303.961208 3297.848009 303.657031 L 3297.695921 303.411999 C 3297.493136 303.082474 3297.349496 302.7276 3297.273452 302.347378 C 3297.205857 301.958707 3297.197408 301.578485 3297.256553 301.198263 C 3297.324148 300.809592 3297.459338 300.454718 3297.653674 300.116743 C 3297.848009 299.778768 3298.101491 299.48304 3298.397219 299.238008 C 3315.667739 285.237396 3333.529716 275.883939 3352.000047 271.177637 C 3355.278405 269.876434 3357.272457 270.476339 3357.990654 272.960455 Z M 3357.990654 272.960455 " stroke="#000000" stroke-width="1" stroke-opacity="1" stroke-miterlimit="4"/><path stroke-linecap="butt" transform="matrix(0.462312, 0, 0, 0.462312, -1371.940567, -96.946897)" fill-opacity="1" fill="#867baa" fill-rule="nonzero" stroke-linejoin="miter" d="M 3130.73629 273.180139 L 3124.492203 290.856229 C 3124.382361 291.168856 3124.213373 291.439236 3123.99369 291.675819 C 3123.774006 291.92085 3123.512075 292.106737 3123.207898 292.241927 C 3122.90372 292.385566 3122.582644 292.453161 3122.244669 292.47006 C 3121.906694 292.486959 3121.577169 292.436262 3121.256092 292.317971 L 3121.163149 292.292623 C 3120.850523 292.182781 3120.563244 292.013794 3120.318212 291.79411 C 3120.07318 291.574426 3119.878845 291.320945 3119.726756 291.025217 C 3119.583116 290.729489 3119.507072 290.425311 3119.481724 290.095786 C 3119.464825 289.774709 3119.507072 289.453633 3119.616914 289.149456 L 3124.111981 276.466945 C 3124.771032 274.025076 3125.463881 272.512638 3126.198976 271.938081 C 3127.821256 270.662225 3129.333694 271.076245 3130.73629 273.180139 Z M 3130.73629 273.180139 " stroke="#000000" stroke-width="1" stroke-opacity="1" stroke-miterlimit="4"/><path stroke-linecap="butt" transform="matrix(0.409703, 0.214187, -0.214187, 0.409703, 106.802456, 39.27344)" fill-opacity="1" fill="#867baa" fill-rule="nonzero" stroke-linejoin="miter" d="M -0.104119 -14.161287 L 0.096186 -14.161127 C 0.459016 -14.160123 0.800406 -14.090704 1.131759 -13.949298 C 1.466686 -13.819294 1.761282 -13.620534 2.007718 -13.367994 C 2.261643 -13.119369 2.456006 -12.820537 2.597954 -12.494303 C 2.732414 -12.164154 2.799142 -11.817665 2.798138 -11.454835 L 2.803986 11.462683 C 2.799067 11.818025 2.729649 12.159415 2.599645 12.494341 C 2.458238 12.825694 2.266966 13.116376 2.006939 13.366727 C 1.758313 13.620652 1.463396 13.822503 1.133247 13.956963 C 0.803099 14.091423 0.456609 14.158151 0.0976936 14.164635 L -0.0951238 14.16056 C -0.457954 14.159556 -0.799344 14.090137 -1.138185 13.952645 C -1.465623 13.818727 -1.760219 13.619967 -2.006656 13.367427 C -2.260581 13.118802 -2.454944 12.81997 -2.596892 12.493736 C -2.731352 12.163587 -2.79808 11.817098 -2.804564 11.458182 L -2.799009 -11.455762 C -2.798005 -11.818592 -2.728586 -12.159982 -2.598582 -12.494908 C -2.457176 -12.826261 -2.265904 -13.116943 -2.005876 -13.367294 C -1.757251 -13.621219 -1.462334 -13.82307 -1.132185 -13.95753 C -0.802036 -14.09199 -0.455547 -14.158718 -0.104119 -14.161287 Z M -0.104119 -14.161287 " stroke="#000000" stroke-width="1" stroke-opacity="1" stroke-miterlimit="4"/><path stroke-linecap="butt" transform="matrix(0.462312, 0, 0, 0.462312, -1371.940567, -96.946897)" fill-opacity="1" fill="#867baa" fill-rule="nonzero" stroke-linejoin="miter" d="M 3178.433006 301.671428 L 3178.618893 301.772821 C 3178.948418 301.933359 3179.244146 302.153042 3179.489178 302.431872 C 3179.742659 302.702252 3179.928546 303.014879 3180.063736 303.361303 C 3180.190476 303.707727 3180.258071 304.07105 3180.249622 304.442823 C 3180.241172 304.806146 3180.173577 305.169469 3180.029938 305.507444 C 3176.591043 313.914571 3173.473224 323.394769 3170.676481 333.939587 C 3167.710751 345.160356 3166.544737 356.381125 3167.169991 367.610343 C 3167.18689 367.948318 3167.136193 368.277843 3167.017902 368.59047 C 3166.899611 368.911547 3166.722174 369.190376 3166.485592 369.426958 C 3166.249009 369.67199 3165.97018 369.849427 3165.657553 369.976168 C 3165.344926 370.102908 3165.0154 370.153605 3164.677426 370.136706 L 3164.491539 370.136706 C 3164.145115 370.128256 3163.80714 370.052212 3163.494513 369.908573 C 3163.173437 369.773383 3162.886158 369.587496 3162.641126 369.342465 C 3162.396095 369.097433 3162.201759 368.810154 3162.05812 368.497527 C 3161.91448 368.176451 3161.838436 367.846925 3161.821537 367.500501 C 3161.196283 355.544637 3162.303151 343.985893 3165.116793 332.807371 C 3167.736099 322.439989 3170.989108 312.503526 3174.867371 303.023328 C 3175.002561 302.685353 3175.205346 302.389625 3175.458827 302.136144 C 3175.720757 301.891112 3176.016485 301.696776 3176.35446 301.570036 C 3176.692435 301.443295 3177.03886 301.384149 3177.402183 301.401048 C 3177.765506 301.417947 3178.103481 301.51089 3178.433006 301.671428 Z M 3178.433006 301.671428 " stroke="#000000" stroke-width="1" stroke-opacity="1" stroke-miterlimit="4"/><path stroke-linecap="butt" transform="matrix(0.462312, 0, 0, 0.462312, -1371.940567, -96.946897)" fill-opacity="1" fill="#867baa" fill-rule="nonzero" stroke-linejoin="miter" d="M 3117.301785 334.666234 C 3117.436975 340.394909 3117.867893 345.464534 3118.602989 349.866657 C 3118.873369 351.497387 3118.814223 352.587356 3118.434002 353.128116 C 3117.048304 355.079921 3113.845991 354.370174 3113.45732 351.9959 C 3112.527889 346.31792 3111.987129 340.589245 3111.851939 334.801424 C 3111.716749 329.013602 3111.987129 323.259579 3112.64618 317.539353 C 3112.933459 315.156629 3116.093525 314.303242 3117.563716 316.179003 C 3117.969286 316.702864 3118.079128 317.792834 3117.876343 319.432012 C 3117.352482 323.867934 3117.158146 328.946007 3117.301785 334.666234 Z M 3117.301785 334.666234 " stroke="#000000" stroke-width="1" stroke-opacity="1" stroke-miterlimit="4"/><path stroke-linecap="butt" transform="matrix(0.462312, 0, 0, 0.462312, -1371.940567, -96.946897)" fill-opacity="1" fill="#867baa" fill-rule="nonzero" stroke-linejoin="miter" d="M 3265.022191 328.77702 C 3265.267223 328.464393 3265.571401 328.219361 3265.934724 328.050374 C 3266.298047 327.872937 3266.678269 327.796893 3267.083839 327.805342 C 3267.480959 327.805342 3267.861181 327.906734 3268.216055 328.084171 C 3268.579378 328.270058 3268.875106 328.523539 3269.111688 328.853064 L 3269.196182 328.971356 C 3269.77074 329.748698 3270.066468 330.618983 3270.066468 331.582212 C 3270.074917 332.545441 3269.796088 333.415726 3269.22998 334.201518 C 3258.676711 348.759789 3250.404774 363.723631 3244.422617 379.093042 C 3243.586129 381.213835 3240.907678 382.776969 3239.048816 380.512537 C 3237.409637 378.493137 3238.98967 373.567152 3240.028943 371.049238 C 3246.213885 356.152992 3254.544968 342.059436 3265.022191 328.77702 Z M 3265.022191 328.77702 " stroke="#000000" stroke-width="1" stroke-opacity="1" stroke-miterlimit="4"/><path stroke-linecap="butt" transform="matrix(0.462312, 0, 0, 0.462312, -1371.940567, -96.946897)" fill-opacity="1" fill="#867baa" fill-rule="nonzero" stroke-linejoin="miter" d="M 3061.620411 338.037534 L 3060.319207 356.288182 C 3060.293859 356.617707 3060.209365 356.930334 3060.057276 357.234512 C 3059.905188 357.53024 3059.710852 357.783721 3059.457371 358.003405 C 3059.20389 358.223088 3058.916611 358.383627 3058.595535 358.493468 C 3058.274459 358.60331 3057.944933 358.645557 3057.606958 358.628658 L 3057.514015 358.628658 C 3057.167591 358.61176 3056.846514 358.527266 3056.542337 358.383627 C 3056.238159 358.239987 3055.967779 358.045652 3055.739646 357.80062 C 3055.519963 357.547138 3055.350975 357.268309 3055.241133 356.964132 C 3055.122842 356.651505 3055.080595 356.330429 3055.097494 356.000903 L 3055.638254 347.019218 C 3055.807241 344.475957 3055.942431 341.932695 3056.060723 339.372535 C 3056.221261 335.612564 3060.260061 333.728353 3061.620411 338.037534 Z M 3061.620411 338.037534 " stroke="#000000" stroke-width="1" stroke-opacity="1" stroke-miterlimit="4"/><path stroke-linecap="butt" transform="matrix(0.384623, 0.256511, -0.256511, 0.384623, 142.673315, 65.269258)" fill-opacity="1" fill="#867baa" fill-rule="nonzero" stroke-linejoin="miter" d="M -0.0764998 -9.169972 L 0.0758234 -9.169998 C 0.453117 -9.16772 0.804644 -9.097478 1.153841 -8.954589 C 1.49132 -8.814042 1.798345 -8.61256 2.063198 -8.352484 C 2.321022 -8.087721 2.522609 -7.785453 2.667961 -7.44568 C 2.806284 -7.101219 2.881335 -6.74503 2.879057 -6.367736 L 2.881265 6.366488 C 2.878987 6.743781 2.808745 7.095309 2.665856 7.444505 C 2.525308 7.781984 2.323826 8.089009 2.059063 8.346833 C 1.798987 8.611686 1.496719 8.813274 1.152258 8.951596 C 0.805456 9.101636 0.451608 9.16497 0.0790031 9.169722 L -0.0803497 9.174436 C -0.450614 9.16747 -0.80917 9.101916 -1.151338 8.954339 C -1.495846 8.81848 -1.795841 8.612309 -2.060695 8.352234 C -2.318518 8.087471 -2.520106 7.785202 -2.665458 7.44543 C -2.808469 7.093939 -2.878832 6.74478 -2.883584 6.372174 L -2.878762 -6.366738 C -2.883513 -6.739343 -2.806242 -7.095559 -2.670382 -7.440067 C -2.522805 -7.782235 -2.321323 -8.089259 -2.05656 -8.347083 C -1.796484 -8.611936 -1.494216 -8.813524 -1.154443 -8.958876 C -0.809982 -9.097198 -0.453793 -9.17225 -0.0764998 -9.169972 Z M -0.0764998 -9.169972 " stroke="#000000" stroke-width="1" stroke-opacity="1" stroke-miterlimit="4"/><path stroke-linecap="butt" transform="matrix(0.462312, 0, 0, 0.462312, -1371.940567, -96.946897)" fill-opacity="1" fill="#867baa" fill-rule="nonzero" stroke-linejoin="miter" d="M 3404.546704 371.142181 C 3395.860748 375.003545 3388.180267 379.084593 3381.53061 383.393774 C 3381.048995 383.7064 3380.516685 383.84159 3379.942127 383.807793 C 3379.36757 383.765546 3378.860607 383.562761 3378.42124 383.190989 C 3376.866555 381.872886 3376.765163 380.487189 3378.117063 379.033897 C 3378.277601 378.84801 3378.463487 378.695922 3378.666272 378.560732 C 3386.11017 373.72769 3393.951189 369.477655 3402.189329 365.819076 C 3410.435918 362.160497 3418.843045 359.186317 3427.41916 356.913435 C 3427.655742 356.84584 3427.892325 356.820492 3428.128907 356.820492 C 3430.11451 356.786695 3431.077739 357.79217 3431.018593 359.828469 C 3431.001695 360.403027 3430.807359 360.918439 3430.452485 361.366256 C 3430.089162 361.814072 3429.632896 362.1098 3429.083687 362.261889 C 3421.428554 364.315087 3413.24956 367.272368 3404.546704 371.142181 Z M 3404.546704 371.142181 " stroke="#000000" stroke-width="1" stroke-opacity="1" stroke-miterlimit="4"/><path stroke-linecap="butt" transform="matrix(0.461011, -0.0346636, 0.0346636, 0.461011, 43.225313, 77.589883)" fill-opacity="1" fill="#867baa" fill-rule="nonzero" stroke-linejoin="miter" d="M -0.147109 -5.332332 L 0.149054 -5.32701 C 0.487978 -5.326946 0.814042 -5.268536 1.125979 -5.13493 C 1.430123 -5.010382 1.703923 -4.820331 1.948645 -4.581626 C 2.185574 -4.35198 2.368149 -4.075583 2.497003 -3.760858 C 2.62649 -3.454559 2.686672 -3.128051 2.686608 -2.789127 L 2.691029 2.786588 C 2.690965 3.125512 2.62413 3.450942 2.498949 3.763513 C 2.365342 4.075449 2.183716 4.349882 1.945645 4.586179 C 1.707574 4.822475 1.431176 5.00505 1.124877 5.134537 C 0.810152 5.263391 0.483011 5.331998 0.152512 5.332568 L -0.152076 5.326612 C -0.482574 5.327181 -0.808638 5.268772 -1.120575 5.135165 C -1.433145 5.009984 -1.707578 4.828358 -1.943874 4.590287 C -2.188596 4.351582 -2.371171 4.075185 -2.500025 3.76046 C -2.629512 3.454161 -2.689694 3.127653 -2.68963 2.788729 L -2.694051 -2.786986 C -2.693987 -3.12591 -2.627152 -3.451341 -2.493545 -3.763277 C -2.368364 -4.075847 -2.186738 -4.350281 -1.948667 -4.586577 C -1.710596 -4.822873 -1.434198 -5.005448 -1.119473 -5.134302 C -0.813174 -5.263789 -0.486033 -5.332396 -0.147109 -5.332332 Z M -0.147109 -5.332332 " stroke="#000000" stroke-width="1" stroke-opacity="1" stroke-miterlimit="4"/><path stroke-linecap="butt" transform="matrix(0.413017, -0.207726, 0.207726, 0.413017, 196.495771, 85.555526)" fill-opacity="1" fill="#867baa" fill-rule="nonzero" stroke-linejoin="miter" d="M -13.311679 -2.866677 L 13.312941 -2.868206 C 13.664366 -2.871157 14.000516 -2.806127 14.328939 -2.669321 C 14.649814 -2.536311 14.940317 -2.342914 15.185352 -2.096722 C 15.430387 -1.850531 15.622404 -1.555341 15.753901 -1.233843 C 15.892946 -0.908549 15.96017 -0.572087 15.963121 -0.220663 L 15.958301 0.221432 C 15.961252 0.572857 15.896223 0.909007 15.759417 1.23743 C 15.626407 1.558305 15.43301 1.848808 15.186818 2.093843 C 14.93683 2.346426 14.652985 2.534692 14.320142 2.669941 C 13.998644 2.801437 13.662183 2.868661 13.310758 2.871612 L -13.310065 2.865592 C -13.66149 2.868543 -13.99764 2.803514 -14.326063 2.666708 C -14.646938 2.533698 -14.937441 2.340301 -15.182476 2.094109 C -15.435059 1.844121 -15.623325 1.560276 -15.76237 1.234982 C -15.893867 0.913484 -15.957294 0.569474 -15.960245 0.218049 L -15.959222 -0.216497 C -15.962173 -0.567922 -15.893347 -0.91162 -15.760337 -1.232495 C -15.623531 -1.560918 -15.43393 -1.843873 -15.183942 -2.096456 C -14.93775 -2.341491 -14.650109 -2.537305 -14.321063 -2.665005 C -13.995768 -2.804051 -13.659307 -2.871274 -13.311679 -2.866677 Z M -13.311679 -2.866677 " stroke="#000000" stroke-width="1" stroke-opacity="1" stroke-miterlimit="4"/><path stroke-linecap="butt" transform="matrix(0.462312, 0, 0, 0.462312, -1371.940567, -96.946897)" fill-opacity="1" fill="#867baa" fill-rule="nonzero" stroke-linejoin="miter" d="M 3330.817467 425.243523 C 3328.012275 428.673969 3325.494361 432.3072 3323.272176 436.126317 C 3322.993346 436.599482 3322.596226 436.937457 3322.080814 437.131792 C 3321.573852 437.334577 3321.04999 437.343027 3320.526129 437.182489 C 3318.2279 436.447393 3317.653342 434.994101 3318.810906 432.831061 C 3320.77961 429.138685 3323.305973 425.404061 3326.398444 421.627191 C 3329.482466 417.850321 3332.642532 414.631109 3335.878642 411.969557 C 3337.771302 410.406422 3339.309088 410.685252 3340.483551 412.789146 C 3340.745481 413.27076 3340.838424 413.786172 3340.745481 414.326932 C 3340.652538 414.867692 3340.399057 415.323958 3339.993487 415.687281 C 3336.681332 418.627663 3333.622659 421.813077 3330.817467 425.243523 Z M 3330.817467 425.243523 " stroke="#000000" stroke-width="1" stroke-opacity="1" stroke-miterlimit="4"/><path stroke-linecap="butt" transform="matrix(0.462312, 0, 0, 0.462312, -1371.940567, -96.946897)" fill-opacity="1" fill="#867baa" fill-rule="nonzero" stroke-linejoin="miter" d="M 3059.018003 429.848432 C 3061.662658 431.926978 3065.084654 433.777391 3069.300892 435.40812 C 3069.672664 435.551759 3070.00219 435.754544 3070.297918 436.024924 C 3070.593646 436.286855 3070.830228 436.599482 3071.016115 436.954355 C 3071.193551 437.30078 3071.311843 437.681002 3071.35409 438.069673 C 3071.404786 438.466793 3071.379438 438.855465 3071.278045 439.244136 L 3071.227349 439.396225 C 3071.142855 439.751098 3070.982317 440.080624 3070.754184 440.367903 C 3070.526051 440.655181 3070.255671 440.883314 3069.934595 441.052302 C 3069.605069 441.229739 3069.267094 441.322682 3068.903771 441.34803 C 3068.540448 441.373378 3068.185574 441.322682 3067.83915 441.195941 C 3060.369903 438.483692 3054.793316 435.044797 3051.126288 430.870806 C 3049.639198 429.172482 3049.808186 427.372765 3051.6417 425.471656 C 3053.018948 424.930896 3054.049772 425.023839 3054.74262 425.758935 C 3056.795818 427.947323 3058.223762 429.307672 3059.018003 429.848432 Z M 3059.018003 429.848432 " stroke="#000000" stroke-width="1" stroke-opacity="1" stroke-miterlimit="4"/><path stroke-linecap="butt" transform="matrix(0.462312, 0, 0, 0.462312, -1371.940567, -96.946897)" fill-opacity="1" fill="#867baa" fill-rule="nonzero" stroke-linejoin="miter" d="M 3266.610674 464.389473 L 3282.757427 467.228463 C 3283.289738 467.321406 3283.771352 467.515741 3284.219169 467.811469 C 3284.666986 468.115647 3285.030309 468.487419 3285.317588 468.943685 C 3285.613316 469.391502 3285.799202 469.890015 3285.875246 470.422326 C 3285.95974 470.954637 3285.934392 471.478498 3285.799202 472.002359 L 3285.756955 472.171346 C 3285.621765 472.720556 3285.385183 473.227518 3285.047208 473.692234 C 3284.717682 474.156949 3284.312112 474.54562 3283.838947 474.866697 C 3283.357333 475.179324 3282.841921 475.399007 3282.284262 475.517298 C 3281.726604 475.63559 3281.168945 475.652488 3280.602837 475.567995 C 3219.987028 466.273683 3158.864256 456.945574 3097.242972 447.583668 C 3094.843349 447.220345 3092.316986 446.586642 3091.759328 443.91664 C 3091.353758 441.964834 3092.26629 440.114421 3094.488476 438.37385 Z M 3266.610674 464.389473 " stroke="#000000" stroke-width="1" stroke-opacity="1" stroke-miterlimit="4"/><path stroke-linecap="butt" transform="matrix(0.462312, 0, 0, 0.462312, -1371.940567, -96.946897)" fill-opacity="1" fill="#867baa" fill-rule="nonzero" stroke-linejoin="miter" d="M 3371.687089 482.952748 C 3370.014113 481.372715 3369.566296 477.39306 3372.692564 477.131129 C 3380.398394 476.472078 3387.495868 475.660938 3393.976538 474.697709 C 3407.123764 472.762803 3419.696432 468.935236 3431.711442 463.231909 C 3440.879013 458.872032 3448.475 452.915223 3454.507853 445.369932 C 3454.871176 444.922115 3455.302094 444.541893 3455.792158 444.246165 C 3456.290671 443.950437 3456.822982 443.747652 3457.38909 443.63781 C 3457.955198 443.527968 3458.521306 443.519519 3459.087414 443.612462 C 3459.661971 443.705405 3460.194282 443.891292 3460.701244 444.17857 L 3460.75194 444.203918 C 3461.216656 444.465849 3461.605327 444.803824 3461.926403 445.226293 C 3462.255929 445.648761 3462.484062 446.113477 3462.610803 446.628889 C 3462.745993 447.144301 3462.771341 447.668162 3462.686847 448.192023 C 3462.610803 448.715884 3462.433366 449.205948 3462.146087 449.662214 C 3455.978044 459.666273 3444.055977 467.346754 3433.266127 472.027707 C 3415.94491 479.564549 3397.685813 483.485058 3378.497284 483.797685 C 3375.970922 483.839932 3374.027566 483.721641 3372.658767 483.451261 C 3372.286994 483.375216 3371.965918 483.206229 3371.687089 482.952748 Z M 3371.687089 482.952748 " stroke="#000000" stroke-width="1" stroke-opacity="1" stroke-miterlimit="4"/><path stroke-linecap="butt" transform="matrix(0.458035, 0.062743, -0.062743, 0.458035, 165.62718, 125.10635)" fill-opacity="1" fill="#867baa" fill-rule="nonzero" stroke-linejoin="miter" d="M -15.946428 -2.94303 L 15.950119 -2.937307 C 16.333703 -2.938681 16.692977 -2.8685 17.045828 -2.720684 C 17.398679 -2.572868 17.708183 -2.367945 17.975487 -2.097543 C 18.251162 -1.828288 18.454937 -1.523598 18.597475 -1.16788 C 18.748385 -0.813307 18.823954 -0.448415 18.815811 -0.0720549 L 18.818562 0.0725489 C 18.818791 0.447762 18.749756 0.815406 18.60194 1.168257 C 18.454124 1.521108 18.249201 1.830613 17.978799 2.097917 C 17.708397 2.365221 17.396483 2.578513 17.049135 2.719905 C 16.694563 2.870815 16.328524 2.938012 15.953311 2.93824 L -15.95046 2.942035 C -16.334045 2.943409 -16.694464 2.864857 -17.046169 2.725412 C -17.39902 2.577596 -17.709671 2.364302 -17.975828 2.102271 C -18.251503 1.833016 -18.456425 1.519955 -18.598963 1.164236 C -18.748726 0.818035 -18.815924 0.451996 -18.817299 0.0684118 L -18.818904 -0.0678208 C -18.820278 -0.451405 -18.751244 -0.819049 -18.603428 -1.1719 C -18.454465 -1.51638 -18.249542 -1.825885 -17.980287 -2.10156 C -17.709885 -2.368864 -17.396824 -2.573785 -17.050623 -2.723548 C -16.694904 -2.866086 -16.330012 -2.941655 -15.946428 -2.94303 Z M -15.946428 -2.94303 " stroke="#000000" stroke-width="1" stroke-opacity="1" stroke-miterlimit="4"/><g transform="matrix(1, 0, 0, 1, 20, 135)"><g clip-path="url(#5379812049)"><g fill="#000000" fill-opacity="1"><g transform="translate(2.10959, 50.047635)"><g><path d="M 25.46875 -23.390625 C 25.46875 -20.046875 24.328125 -17.472656 22.046875 -15.671875 C 19.765625 -13.878906 16.503906 -12.984375 12.265625 -12.984375 L 8.375 -12.984375 L 8.375 0 L 4.53125 0 L 4.53125 -33 L 13.09375 -33 C 21.34375 -33 25.46875 -29.796875 25.46875 -23.390625 Z M 8.375 -16.28125 L 11.828125 -16.28125 C 15.234375 -16.28125 17.691406 -16.828125 19.203125 -17.921875 C 20.722656 -19.023438 21.484375 -20.785156 21.484375 -23.203125 C 21.484375 -25.390625 20.769531 -27.015625 19.34375 -28.078125 C 17.914062 -29.148438 15.691406 -29.6875 12.671875 -29.6875 L 8.375 -29.6875 Z M 8.375 -16.28125 "/></g></g><g transform="translate(29.946944, 50.047635)"><g><path d="M 15.265625 -25.1875 C 16.359375 -25.1875 17.34375 -25.097656 18.21875 -24.921875 L 17.703125 -21.453125 C 16.671875 -21.671875 15.765625 -21.78125 14.984375 -21.78125 C 12.984375 -21.78125 11.269531 -20.96875 9.84375 -19.34375 C 8.425781 -17.71875 7.71875 -15.695312 7.71875 -13.28125 L 7.71875 0 L 3.96875 0 L 3.96875 -24.75 L 7.0625 -24.75 L 7.5 -20.15625 L 7.671875 -20.15625 C 8.585938 -21.769531 9.691406 -23.007812 10.984375 -23.875 C 12.285156 -24.75 13.710938 -25.1875 15.265625 -25.1875 Z M 15.265625 -25.1875 "/></g></g><g transform="translate(48.821258, 50.047635)"><g><path d="M 25.328125 -12.390625 C 25.328125 -8.359375 24.3125 -5.207031 22.28125 -2.9375 C 20.25 -0.675781 17.441406 0.453125 13.859375 0.453125 C 11.648438 0.453125 9.6875 -0.0625 7.96875 -1.09375 C 6.25 -2.132812 4.921875 -3.625 3.984375 -5.5625 C 3.054688 -7.507812 2.59375 -9.785156 2.59375 -12.390625 C 2.59375 -16.421875 3.597656 -19.5625 5.609375 -21.8125 C 7.628906 -24.0625 10.429688 -25.1875 14.015625 -25.1875 C 17.484375 -25.1875 20.234375 -24.035156 22.265625 -21.734375 C 24.304688 -19.429688 25.328125 -16.316406 25.328125 -12.390625 Z M 6.484375 -12.390625 C 6.484375 -9.234375 7.113281 -6.828125 8.375 -5.171875 C 9.632812 -3.515625 11.492188 -2.6875 13.953125 -2.6875 C 16.398438 -2.6875 18.257812 -3.507812 19.53125 -5.15625 C 20.8125 -6.800781 21.453125 -9.210938 21.453125 -12.390625 C 21.453125 -15.535156 20.8125 -17.925781 19.53125 -19.5625 C 18.257812 -21.195312 16.382812 -22.015625 13.90625 -22.015625 C 11.457031 -22.015625 9.609375 -21.207031 8.359375 -19.59375 C 7.109375 -17.988281 6.484375 -15.585938 6.484375 -12.390625 Z M 6.484375 -12.390625 "/></g></g><g transform="translate(76.74892, 50.047635)"><g><path d="M 20.8125 -3.3125 L 20.609375 -3.3125 C 18.878906 -0.800781 16.289062 0.453125 12.84375 0.453125 C 9.601562 0.453125 7.082031 -0.648438 5.28125 -2.859375 C 3.488281 -5.078125 2.59375 -8.222656 2.59375 -12.296875 C 2.59375 -16.378906 3.492188 -19.546875 5.296875 -21.796875 C 7.109375 -24.054688 9.625 -25.1875 12.84375 -25.1875 C 16.195312 -25.1875 18.769531 -23.96875 20.5625 -21.53125 L 20.859375 -21.53125 L 20.703125 -23.328125 L 20.609375 -25.0625 L 20.609375 -35.125 L 24.359375 -35.125 L 24.359375 0 L 21.3125 0 Z M 13.3125 -2.6875 C 15.875 -2.6875 17.726562 -3.378906 18.875 -4.765625 C 20.03125 -6.160156 20.609375 -8.410156 20.609375 -11.515625 L 20.609375 -12.296875 C 20.609375 -15.804688 20.023438 -18.3125 18.859375 -19.8125 C 17.691406 -21.3125 15.832031 -22.0625 13.28125 -22.0625 C 11.082031 -22.0625 9.398438 -21.207031 8.234375 -19.5 C 7.066406 -17.789062 6.484375 -15.378906 6.484375 -12.265625 C 6.484375 -9.097656 7.0625 -6.707031 8.21875 -5.09375 C 9.375 -3.488281 11.070312 -2.6875 13.3125 -2.6875 Z M 13.3125 -2.6875 "/></g></g><g transform="translate(105.082967, 50.047635)"><g><path d="M 7.5 -24.75 L 7.5 -8.6875 C 7.5 -6.675781 7.957031 -5.171875 8.875 -4.171875 C 9.789062 -3.179688 11.226562 -2.6875 13.1875 -2.6875 C 15.769531 -2.6875 17.660156 -3.394531 18.859375 -4.8125 C 20.054688 -6.226562 20.65625 -8.535156 20.65625 -11.734375 L 20.65625 -24.75 L 24.40625 -24.75 L 24.40625 0 L 21.3125 0 L 20.765625 -3.3125 L 20.5625 -3.3125 C 19.800781 -2.09375 18.738281 -1.160156 17.375 -0.515625 C 16.007812 0.128906 14.453125 0.453125 12.703125 0.453125 C 9.691406 0.453125 7.4375 -0.257812 5.9375 -1.6875 C 4.445312 -3.125 3.703125 -5.414062 3.703125 -8.5625 L 3.703125 -24.75 Z M 7.5 -24.75 "/></g></g><g transform="translate(133.462167, 50.047635)"><g><path d="M 13.859375 0.453125 C 10.273438 0.453125 7.5 -0.644531 5.53125 -2.84375 C 3.570312 -5.050781 2.59375 -8.175781 2.59375 -12.21875 C 2.59375 -16.351562 3.585938 -19.546875 5.578125 -21.796875 C 7.578125 -24.054688 10.421875 -25.1875 14.109375 -25.1875 C 15.296875 -25.1875 16.484375 -25.054688 17.671875 -24.796875 C 18.859375 -24.546875 19.789062 -24.25 20.46875 -23.90625 L 19.328125 -20.71875 C 18.492188 -21.050781 17.585938 -21.328125 16.609375 -21.546875 C 15.628906 -21.765625 14.765625 -21.875 14.015625 -21.875 C 8.992188 -21.875 6.484375 -18.671875 6.484375 -12.265625 C 6.484375 -9.222656 7.09375 -6.890625 8.3125 -5.265625 C 9.539062 -3.640625 11.359375 -2.828125 13.765625 -2.828125 C 15.828125 -2.828125 17.941406 -3.269531 20.109375 -4.15625 L 20.109375 -0.828125 C 18.453125 0.0234375 16.367188 0.453125 13.859375 0.453125 Z M 13.859375 0.453125 "/></g></g><g transform="translate(155.474674, 50.047635)"><g><path d="M 11.96875 -2.640625 C 12.625 -2.640625 13.257812 -2.6875 13.875 -2.78125 C 14.5 -2.882812 14.988281 -2.988281 15.34375 -3.09375 L 15.34375 -0.21875 C 14.9375 -0.03125 14.335938 0.125 13.546875 0.25 C 12.765625 0.382812 12.054688 0.453125 11.421875 0.453125 C 6.640625 0.453125 4.25 -2.066406 4.25 -7.109375 L 4.25 -21.828125 L 0.703125 -21.828125 L 0.703125 -23.640625 L 4.25 -25.1875 L 5.828125 -30.484375 L 7.984375 -30.484375 L 7.984375 -24.75 L 15.171875 -24.75 L 15.171875 -21.828125 L 7.984375 -21.828125 L 7.984375 -7.265625 C 7.984375 -5.773438 8.335938 -4.628906 9.046875 -3.828125 C 9.753906 -3.035156 10.726562 -2.640625 11.96875 -2.640625 Z M 11.96875 -2.640625 "/></g></g><g transform="translate(171.797794, 50.047635)"><g><path d="M 25.328125 -12.390625 C 25.328125 -8.359375 24.3125 -5.207031 22.28125 -2.9375 C 20.25 -0.675781 17.441406 0.453125 13.859375 0.453125 C 11.648438 0.453125 9.6875 -0.0625 7.96875 -1.09375 C 6.25 -2.132812 4.921875 -3.625 3.984375 -5.5625 C 3.054688 -7.507812 2.59375 -9.785156 2.59375 -12.390625 C 2.59375 -16.421875 3.597656 -19.5625 5.609375 -21.8125 C 7.628906 -24.0625 10.429688 -25.1875 14.015625 -25.1875 C 17.484375 -25.1875 20.234375 -24.035156 22.265625 -21.734375 C 24.304688 -19.429688 25.328125 -16.316406 25.328125 -12.390625 Z M 6.484375 -12.390625 C 6.484375 -9.234375 7.113281 -6.828125 8.375 -5.171875 C 9.632812 -3.515625 11.492188 -2.6875 13.953125 -2.6875 C 16.398438 -2.6875 18.257812 -3.507812 19.53125 -5.15625 C 20.8125 -6.800781 21.453125 -9.210938 21.453125 -12.390625 C 21.453125 -15.535156 20.8125 -17.925781 19.53125 -19.5625 C 18.257812 -21.195312 16.382812 -22.015625 13.90625 -22.015625 C 11.457031 -22.015625 9.609375 -21.207031 8.359375 -19.59375 C 7.109375 -17.988281 6.484375 -15.585938 6.484375 -12.390625 Z M 6.484375 -12.390625 "/></g></g><g transform="translate(199.725456, 50.047635)"><g><path d="M 19.9375 -6.75 C 19.9375 -4.445312 19.078125 -2.671875 17.359375 -1.421875 C 15.640625 -0.171875 13.234375 0.453125 10.140625 0.453125 C 6.859375 0.453125 4.296875 -0.0664062 2.453125 -1.109375 L 2.453125 -4.578125 C 3.648438 -3.984375 4.925781 -3.507812 6.28125 -3.15625 C 7.644531 -2.8125 8.960938 -2.640625 10.234375 -2.640625 C 12.179688 -2.640625 13.679688 -2.953125 14.734375 -3.578125 C 15.796875 -4.203125 16.328125 -5.15625 16.328125 -6.4375 C 16.328125 -7.394531 15.90625 -8.21875 15.0625 -8.90625 C 14.226562 -9.59375 12.601562 -10.398438 10.1875 -11.328125 C 7.882812 -12.191406 6.242188 -12.941406 5.265625 -13.578125 C 4.296875 -14.210938 3.570312 -14.9375 3.09375 -15.75 C 2.625 -16.570312 2.390625 -17.546875 2.390625 -18.671875 C 2.390625 -20.679688 3.207031 -22.269531 4.84375 -23.4375 C 6.488281 -24.601562 8.742188 -25.1875 11.609375 -25.1875 C 14.265625 -25.1875 16.867188 -24.644531 19.421875 -23.5625 L 18.078125 -20.515625 C 15.597656 -21.546875 13.347656 -22.0625 11.328125 -22.0625 C 9.554688 -22.0625 8.21875 -21.78125 7.3125 -21.21875 C 6.40625 -20.664062 5.953125 -19.898438 5.953125 -18.921875 C 5.953125 -18.253906 6.117188 -17.6875 6.453125 -17.21875 C 6.796875 -16.757812 7.34375 -16.316406 8.09375 -15.890625 C 8.851562 -15.472656 10.300781 -14.863281 12.4375 -14.0625 C 15.375 -13 17.359375 -11.921875 18.390625 -10.828125 C 19.421875 -9.742188 19.9375 -8.382812 19.9375 -6.75 Z M 19.9375 -6.75 "/></g></g></g></g></g></svg>