<svg xmlns="http://www.w3.org/2000/svg" xmlns:xlink="http://www.w3.org/1999/xlink" width="276" zoomAndPan="magnify" viewBox="0 0 206.87999 299.25" height="399" preserveAspectRatio="xMidYMid meet" version="1.0"><defs><g/><clipPath id="88b6b54965"><path d="M 0.199219 0 L 206.5625 0 L 206.5625 229.675781 L 0.199219 229.675781 Z M 0.199219 0 " clip-rule="nonzero"/></clipPath><clipPath id="0b7e36b8f2"><rect x="0" width="177" y="0" height="64"/></clipPath></defs><g clip-path="url(#88b6b54965)"><path fill="#867baa" d="M 206.429688 83.859375 L 206.429688 103.589844 C 206.429688 112.65625 199.085938 120.03125 190.0625 120.03125 C 181.035156 120.03125 173.691406 112.65625 173.691406 103.589844 L 173.691406 89.210938 C 173.683594 89.050781 173.601562 88.914062 173.601562 88.75 C 173.601562 48.878906 142.027344 16.441406 103.214844 16.441406 C 65.300781 16.441406 34.375 47.421875 32.964844 86.027344 L 32.964844 106.878906 C 32.964844 117.757812 41.777344 126.609375 52.609375 126.609375 C 56.222656 126.609375 59.15625 129.554688 59.15625 133.1875 C 59.15625 136.820312 56.222656 139.761719 52.609375 139.761719 C 38.8125 139.761719 27.042969 131.121094 22.230469 118.96875 C 20.464844 119.621094 18.585938 120.03125 16.597656 120.03125 C 7.570312 120.035156 0.226562 112.65625 0.226562 103.589844 L 0.226562 83.859375 C 0.226562 74.792969 7.570312 67.414062 16.597656 67.414062 C 17.433594 67.414062 18.234375 67.542969 19.039062 67.664062 C 28.328125 28.890625 62.492188 0 103.214844 0 C 143.945312 0 178.117188 28.902344 187.398438 67.6875 C 188.269531 67.542969 189.148438 67.414062 190.0625 67.414062 C 199.085938 67.414062 206.429688 74.792969 206.429688 83.859375 Z M 157.191406 88.75 C 157.191406 58.808594 133.023438 34.53125 103.214844 34.53125 C 73.40625 34.53125 49.242188 58.808594 49.242188 88.75 C 49.242188 118.695312 73.40625 142.96875 103.214844 142.96875 C 133.023438 142.972656 157.191406 118.695312 157.191406 88.75 Z M 156.945312 159.414062 L 137.730469 159.414062 C 133.453125 159.414062 129.445312 161.511719 126.996094 165.035156 L 113.558594 184.351562 C 108.304688 191.90625 97.144531 191.832031 91.992188 184.207031 L 79.128906 165.179688 C 76.695312 161.574219 72.636719 159.414062 68.296875 159.414062 L 49.429688 159.414062 C 25.125 159.414062 5.421875 179.203125 5.421875 203.617188 L 5.421875 223.238281 C 5.421875 226.871094 8.351562 229.8125 11.96875 229.8125 L 194.40625 229.8125 C 198.019531 229.8125 200.953125 226.867188 200.953125 223.238281 L 200.953125 203.617188 C 200.953125 179.203125 181.25 159.414062 156.945312 159.414062 Z M 156.945312 159.414062 " fill-opacity="1" fill-rule="nonzero"/></g><g transform="matrix(1, 0, 0, 1, 17, 225)"><g clip-path="url(#0b7e36b8f2)"><g fill="#000000" fill-opacity="1"><g transform="translate(1.180802, 49.216406)"><g><path d="M 23.109375 -8.765625 C 23.109375 -5.867188 22.054688 -3.609375 19.953125 -1.984375 C 17.847656 -0.359375 14.992188 0.453125 11.390625 0.453125 C 7.492188 0.453125 4.492188 -0.0507812 2.390625 -1.0625 L 2.390625 -4.75 C 3.742188 -4.175781 5.210938 -3.722656 6.796875 -3.390625 C 8.390625 -3.066406 9.96875 -2.90625 11.53125 -2.90625 C 14.082031 -2.90625 16.003906 -3.390625 17.296875 -4.359375 C 18.585938 -5.328125 19.234375 -6.675781 19.234375 -8.40625 C 19.234375 -9.539062 19.003906 -10.472656 18.546875 -11.203125 C 18.085938 -11.929688 17.320312 -12.601562 16.25 -13.21875 C 15.175781 -13.832031 13.539062 -14.53125 11.34375 -15.3125 C 8.28125 -16.40625 6.09375 -17.703125 4.78125 -19.203125 C 3.46875 -20.710938 2.8125 -22.675781 2.8125 -25.09375 C 2.8125 -27.625 3.765625 -29.640625 5.671875 -31.140625 C 7.578125 -32.648438 10.101562 -33.40625 13.25 -33.40625 C 16.519531 -33.40625 19.53125 -32.800781 22.28125 -31.59375 L 21.078125 -28.265625 C 18.359375 -29.410156 15.71875 -29.984375 13.15625 -29.984375 C 11.125 -29.984375 9.535156 -29.546875 8.390625 -28.671875 C 7.253906 -27.796875 6.6875 -26.585938 6.6875 -25.046875 C 6.6875 -23.898438 6.894531 -22.960938 7.3125 -22.234375 C 7.738281 -21.503906 8.453125 -20.835938 9.453125 -20.234375 C 10.453125 -19.628906 11.976562 -18.957031 14.03125 -18.21875 C 17.488281 -16.988281 19.863281 -15.664062 21.15625 -14.25 C 22.457031 -12.84375 23.109375 -11.015625 23.109375 -8.765625 Z M 23.109375 -8.765625 "/></g></g><g transform="translate(26.493831, 49.216406)"><g><path d="M 25.265625 -12.359375 C 25.265625 -8.335938 24.25 -5.195312 22.21875 -2.9375 C 20.195312 -0.675781 17.398438 0.453125 13.828125 0.453125 C 11.617188 0.453125 9.65625 -0.0625 7.9375 -1.09375 C 6.226562 -2.132812 4.910156 -3.625 3.984375 -5.5625 C 3.054688 -7.5 2.59375 -9.765625 2.59375 -12.359375 C 2.59375 -16.390625 3.597656 -19.523438 5.609375 -21.765625 C 7.617188 -24.015625 10.410156 -25.140625 13.984375 -25.140625 C 17.441406 -25.140625 20.1875 -23.988281 22.21875 -21.6875 C 24.25 -19.394531 25.265625 -16.285156 25.265625 -12.359375 Z M 6.46875 -12.359375 C 6.46875 -9.210938 7.097656 -6.8125 8.359375 -5.15625 C 9.617188 -3.507812 11.472656 -2.6875 13.921875 -2.6875 C 16.367188 -2.6875 18.222656 -3.503906 19.484375 -5.140625 C 20.753906 -6.785156 21.390625 -9.191406 21.390625 -12.359375 C 21.390625 -15.503906 20.753906 -17.890625 19.484375 -19.515625 C 18.222656 -21.140625 16.351562 -21.953125 13.875 -21.953125 C 11.425781 -21.953125 9.578125 -21.148438 8.328125 -19.546875 C 7.085938 -17.941406 6.46875 -15.546875 6.46875 -12.359375 Z M 6.46875 -12.359375 "/></g></g><g transform="translate(54.351674, 49.216406)"><g><path d="M 15.453125 0.453125 C 13.847656 0.453125 12.378906 0.15625 11.046875 -0.4375 C 9.710938 -1.03125 8.597656 -1.941406 7.703125 -3.171875 L 7.4375 -3.171875 C 7.613281 -1.734375 7.703125 -0.367188 7.703125 0.921875 L 7.703125 11.078125 L 3.96875 11.078125 L 3.96875 -24.6875 L 7 -24.6875 L 7.515625 -21.3125 L 7.703125 -21.3125 C 8.660156 -22.65625 9.773438 -23.628906 11.046875 -24.234375 C 12.328125 -24.835938 13.796875 -25.140625 15.453125 -25.140625 C 18.722656 -25.140625 21.25 -24.019531 23.03125 -21.78125 C 24.8125 -19.539062 25.703125 -16.398438 25.703125 -12.359375 C 25.703125 -8.304688 24.796875 -5.15625 22.984375 -2.90625 C 21.171875 -0.664062 18.660156 0.453125 15.453125 0.453125 Z M 14.90625 -21.953125 C 12.382812 -21.953125 10.5625 -21.253906 9.4375 -19.859375 C 8.3125 -18.460938 7.734375 -16.242188 7.703125 -13.203125 L 7.703125 -12.359375 C 7.703125 -8.890625 8.28125 -6.410156 9.4375 -4.921875 C 10.59375 -3.429688 12.445312 -2.6875 15 -2.6875 C 17.132812 -2.6875 18.804688 -3.546875 20.015625 -5.265625 C 21.222656 -6.992188 21.828125 -9.375 21.828125 -12.40625 C 21.828125 -15.488281 21.222656 -17.847656 20.015625 -19.484375 C 18.804688 -21.128906 17.101562 -21.953125 14.90625 -21.953125 Z M 14.90625 -21.953125 "/></g></g><g transform="translate(82.614886, 49.216406)"><g><path d="M 25.265625 -12.359375 C 25.265625 -8.335938 24.25 -5.195312 22.21875 -2.9375 C 20.195312 -0.675781 17.398438 0.453125 13.828125 0.453125 C 11.617188 0.453125 9.65625 -0.0625 7.9375 -1.09375 C 6.226562 -2.132812 4.910156 -3.625 3.984375 -5.5625 C 3.054688 -7.5 2.59375 -9.765625 2.59375 -12.359375 C 2.59375 -16.390625 3.597656 -19.523438 5.609375 -21.765625 C 7.617188 -24.015625 10.410156 -25.140625 13.984375 -25.140625 C 17.441406 -25.140625 20.1875 -23.988281 22.21875 -21.6875 C 24.25 -19.394531 25.265625 -16.285156 25.265625 -12.359375 Z M 6.46875 -12.359375 C 6.46875 -9.210938 7.097656 -6.8125 8.359375 -5.15625 C 9.617188 -3.507812 11.472656 -2.6875 13.921875 -2.6875 C 16.367188 -2.6875 18.222656 -3.503906 19.484375 -5.140625 C 20.753906 -6.785156 21.390625 -9.191406 21.390625 -12.359375 C 21.390625 -15.503906 20.753906 -17.890625 19.484375 -19.515625 C 18.222656 -21.140625 16.351562 -21.953125 13.875 -21.953125 C 11.425781 -21.953125 9.578125 -21.148438 8.328125 -19.546875 C 7.085938 -17.941406 6.46875 -15.546875 6.46875 -12.359375 Z M 6.46875 -12.359375 "/></g></g><g transform="translate(110.47273, 49.216406)"><g><path d="M 15.21875 -25.140625 C 16.320312 -25.140625 17.304688 -25.046875 18.171875 -24.859375 L 17.65625 -21.390625 C 16.632812 -21.617188 15.734375 -21.734375 14.953125 -21.734375 C 12.953125 -21.734375 11.242188 -20.921875 9.828125 -19.296875 C 8.410156 -17.679688 7.703125 -15.664062 7.703125 -13.25 L 7.703125 0 L 3.96875 0 L 3.96875 -24.6875 L 7.046875 -24.6875 L 7.484375 -20.109375 L 7.65625 -20.109375 C 8.570312 -21.710938 9.675781 -22.953125 10.96875 -23.828125 C 12.257812 -24.703125 13.675781 -25.140625 15.21875 -25.140625 Z M 15.21875 -25.140625 "/></g></g><g transform="translate(129.299858, 49.216406)"><g><path d="M 11.9375 -2.640625 C 12.59375 -2.640625 13.226562 -2.6875 13.84375 -2.78125 C 14.46875 -2.875 14.957031 -2.972656 15.3125 -3.078125 L 15.3125 -0.21875 C 14.90625 -0.03125 14.304688 0.125 13.515625 0.25 C 12.734375 0.382812 12.023438 0.453125 11.390625 0.453125 C 6.617188 0.453125 4.234375 -2.0625 4.234375 -7.09375 L 4.234375 -21.78125 L 0.703125 -21.78125 L 0.703125 -23.578125 L 4.234375 -25.140625 L 5.8125 -30.40625 L 7.96875 -30.40625 L 7.96875 -24.6875 L 15.140625 -24.6875 L 15.140625 -21.78125 L 7.96875 -21.78125 L 7.96875 -7.25 C 7.96875 -5.757812 8.320312 -4.617188 9.03125 -3.828125 C 9.738281 -3.035156 10.707031 -2.640625 11.9375 -2.640625 Z M 11.9375 -2.640625 "/></g></g><g transform="translate(145.58217, 49.216406)"><g><path d="M 14.390625 0.453125 C 10.742188 0.453125 7.863281 -0.65625 5.75 -2.875 C 3.644531 -5.101562 2.59375 -8.191406 2.59375 -12.140625 C 2.59375 -16.117188 3.570312 -19.28125 5.53125 -21.625 C 7.488281 -23.96875 10.117188 -25.140625 13.421875 -25.140625 C 16.515625 -25.140625 18.960938 -24.117188 20.765625 -22.078125 C 22.566406 -20.046875 23.46875 -17.363281 23.46875 -14.03125 L 23.46875 -11.671875 L 6.46875 -11.671875 C 6.539062 -8.765625 7.269531 -6.5625 8.65625 -5.0625 C 10.050781 -3.5625 12.007812 -2.8125 14.53125 -2.8125 C 17.1875 -2.8125 19.8125 -3.367188 22.40625 -4.484375 L 22.40625 -1.15625 C 21.082031 -0.582031 19.832031 -0.171875 18.65625 0.078125 C 17.476562 0.328125 16.054688 0.453125 14.390625 0.453125 Z M 13.375 -22 C 11.394531 -22 9.816406 -21.351562 8.640625 -20.0625 C 7.460938 -18.769531 6.765625 -16.984375 6.546875 -14.703125 L 19.453125 -14.703125 C 19.453125 -17.066406 18.925781 -18.875 17.875 -20.125 C 16.832031 -21.375 15.332031 -22 13.375 -22 Z M 13.375 -22 "/></g></g></g></g></g></svg>