<svg xmlns="http://www.w3.org/2000/svg" xmlns:xlink="http://www.w3.org/1999/xlink" width="294" zoomAndPan="magnify" viewBox="0 0 220.5 299.25" height="399" preserveAspectRatio="xMidYMid meet" version="1.0"><defs><g/><clipPath id="c6e65f292c"><path d="M 0.574219 0 L 219.023438 0 L 219.023438 229.675781 L 0.574219 229.675781 Z M 0.574219 0 " clip-rule="nonzero"/></clipPath><clipPath id="dac690f0cb"><rect x="0" width="194" y="0" height="64"/></clipPath></defs><path fill="#867baa" d="M 109.886719 56.878906 C 85.738281 56.878906 66.160156 77.441406 66.160156 102.804688 C 66.160156 128.171875 85.738281 148.734375 109.886719 148.734375 C 134.035156 148.734375 153.613281 128.171875 153.613281 102.804688 C 153.613281 77.441406 134.035156 56.878906 109.886719 56.878906 " fill-opacity="1" fill-rule="nonzero"/><g clip-path="url(#c6e65f292c)"><path fill="#867baa" d="M 182.507812 194.171875 C 172.824219 170.53125 152.492188 155.746094 109.820312 155.746094 C 67.203125 155.746094 46.875 170.492188 37.175781 194.078125 C 17.433594 174.070312 5.15625 145.996094 5.15625 114.90625 C 5.15625 54.152344 52.046875 4.902344 109.886719 4.902344 C 167.730469 4.902344 214.617188 54.152344 214.617188 114.90625 C 214.617188 146.046875 202.300781 174.160156 182.507812 194.171875 Z M 109.886719 0.0898438 C 49.515625 0.0898438 0.574219 51.496094 0.574219 114.90625 C 0.574219 148.074219 13.960938 177.957031 35.375 198.917969 C 54.894531 218.03125 81.089844 229.726562 109.886719 229.726562 C 138.632812 229.726562 164.789062 218.070312 184.304688 199.011719 C 205.769531 178.050781 219.203125 148.125 219.203125 114.90625 C 219.203125 51.496094 170.257812 0.0898438 109.886719 0.0898438 " fill-opacity="1" fill-rule="nonzero"/></g><g transform="matrix(1, 0, 0, 1, 14, 225)"><g clip-path="url(#dac690f0cb)"><g fill="#000000" fill-opacity="1"><g transform="translate(0.919049, 49.216406)"><g><path d="M 29.390625 -32.921875 L 29.390625 -11.625 C 29.390625 -7.863281 28.253906 -4.910156 25.984375 -2.765625 C 23.722656 -0.617188 20.609375 0.453125 16.640625 0.453125 C 12.679688 0.453125 9.613281 -0.625 7.4375 -2.78125 C 5.269531 -4.945312 4.1875 -7.925781 4.1875 -11.71875 L 4.1875 -32.921875 L 8.015625 -32.921875 L 8.015625 -11.4375 C 8.015625 -8.6875 8.765625 -6.578125 10.265625 -5.109375 C 11.765625 -3.640625 13.972656 -2.90625 16.890625 -2.90625 C 19.671875 -2.90625 21.8125 -3.644531 23.3125 -5.125 C 24.8125 -6.601562 25.5625 -8.722656 25.5625 -11.484375 L 25.5625 -32.921875 Z M 29.390625 -32.921875 "/></g></g><g transform="translate(34.497096, 49.216406)"><g><path d="M 19.890625 -6.734375 C 19.890625 -4.429688 19.03125 -2.65625 17.3125 -1.40625 C 15.601562 -0.164062 13.203125 0.453125 10.109375 0.453125 C 6.835938 0.453125 4.285156 -0.0664062 2.453125 -1.109375 L 2.453125 -4.578125 C 3.640625 -3.972656 4.910156 -3.5 6.265625 -3.15625 C 7.628906 -2.8125 8.941406 -2.640625 10.203125 -2.640625 C 12.148438 -2.640625 13.648438 -2.945312 14.703125 -3.5625 C 15.753906 -4.1875 16.28125 -5.140625 16.28125 -6.421875 C 16.28125 -7.378906 15.863281 -8.195312 15.03125 -8.875 C 14.195312 -9.5625 12.570312 -10.375 10.15625 -11.3125 C 7.863281 -12.164062 6.234375 -12.910156 5.265625 -13.546875 C 4.296875 -14.179688 3.570312 -14.90625 3.09375 -15.71875 C 2.625 -16.53125 2.390625 -17.5 2.390625 -18.625 C 2.390625 -20.632812 3.207031 -22.222656 4.84375 -23.390625 C 6.476562 -24.554688 8.722656 -25.140625 11.578125 -25.140625 C 14.234375 -25.140625 16.832031 -24.597656 19.375 -23.515625 L 18.046875 -20.46875 C 15.566406 -21.488281 13.320312 -22 11.3125 -22 C 9.539062 -22 8.203125 -21.722656 7.296875 -21.171875 C 6.398438 -20.617188 5.953125 -19.851562 5.953125 -18.875 C 5.953125 -18.207031 6.117188 -17.640625 6.453125 -17.171875 C 6.785156 -16.710938 7.328125 -16.269531 8.078125 -15.84375 C 8.835938 -15.425781 10.28125 -14.820312 12.40625 -14.03125 C 15.332031 -12.96875 17.3125 -11.894531 18.34375 -10.8125 C 19.375 -9.726562 19.890625 -8.367188 19.890625 -6.734375 Z M 19.890625 -6.734375 "/></g></g><g transform="translate(56.499613, 49.216406)"><g><path d="M 7.484375 -24.6875 L 7.484375 -8.671875 C 7.484375 -6.660156 7.9375 -5.160156 8.84375 -4.171875 C 9.757812 -3.179688 11.195312 -2.6875 13.15625 -2.6875 C 15.738281 -2.6875 17.625 -3.390625 18.8125 -4.796875 C 20.007812 -6.210938 20.609375 -8.519531 20.609375 -11.71875 L 20.609375 -24.6875 L 24.34375 -24.6875 L 24.34375 0 L 21.265625 0 L 20.71875 -3.3125 L 20.515625 -3.3125 C 19.753906 -2.09375 18.691406 -1.160156 17.328125 -0.515625 C 15.972656 0.128906 14.425781 0.453125 12.6875 0.453125 C 9.675781 0.453125 7.421875 -0.257812 5.921875 -1.6875 C 4.429688 -3.113281 3.6875 -5.394531 3.6875 -8.53125 L 3.6875 -24.6875 Z M 7.484375 -24.6875 "/></g></g><g transform="translate(84.807866, 49.216406)"><g><path d="M 19.140625 0 L 18.40625 -3.515625 L 18.21875 -3.515625 C 16.988281 -1.960938 15.757812 -0.910156 14.53125 -0.359375 C 13.3125 0.179688 11.785156 0.453125 9.953125 0.453125 C 7.503906 0.453125 5.582031 -0.175781 4.1875 -1.4375 C 2.800781 -2.695312 2.109375 -4.492188 2.109375 -6.828125 C 2.109375 -11.804688 6.097656 -14.414062 14.078125 -14.65625 L 18.265625 -14.796875 L 18.265625 -16.328125 C 18.265625 -18.265625 17.847656 -19.691406 17.015625 -20.609375 C 16.179688 -21.535156 14.847656 -22 13.015625 -22 C 10.960938 -22 8.632812 -21.367188 6.03125 -20.109375 L 4.890625 -22.96875 C 6.109375 -23.632812 7.441406 -24.15625 8.890625 -24.53125 C 10.335938 -24.90625 11.789062 -25.09375 13.25 -25.09375 C 16.1875 -25.09375 18.363281 -24.4375 19.78125 -23.125 C 21.195312 -21.820312 21.90625 -19.726562 21.90625 -16.84375 L 21.90625 0 Z M 10.703125 -2.640625 C 13.023438 -2.640625 14.847656 -3.273438 16.171875 -4.546875 C 17.503906 -5.828125 18.171875 -7.613281 18.171875 -9.90625 L 18.171875 -12.140625 L 14.4375 -11.984375 C 11.46875 -11.878906 9.320312 -11.414062 8 -10.59375 C 6.6875 -9.78125 6.03125 -8.507812 6.03125 -6.78125 C 6.03125 -5.425781 6.4375 -4.394531 7.25 -3.6875 C 8.070312 -2.988281 9.222656 -2.640625 10.703125 -2.640625 Z M 10.703125 -2.640625 "/></g></g><g transform="translate(110.458701, 49.216406)"><g><path d="M 15.21875 -25.140625 C 16.320312 -25.140625 17.304688 -25.046875 18.171875 -24.859375 L 17.65625 -21.390625 C 16.632812 -21.617188 15.734375 -21.734375 14.953125 -21.734375 C 12.953125 -21.734375 11.242188 -20.921875 9.828125 -19.296875 C 8.410156 -17.679688 7.703125 -15.664062 7.703125 -13.25 L 7.703125 0 L 3.96875 0 L 3.96875 -24.6875 L 7.046875 -24.6875 L 7.484375 -20.109375 L 7.65625 -20.109375 C 8.570312 -21.710938 9.675781 -22.953125 10.96875 -23.828125 C 12.257812 -24.703125 13.675781 -25.140625 15.21875 -25.140625 Z M 15.21875 -25.140625 "/></g></g><g transform="translate(129.285829, 49.216406)"><g><path d="M 7.703125 0 L 3.96875 0 L 3.96875 -24.6875 L 7.703125 -24.6875 Z M 3.65625 -31.375 C 3.65625 -32.226562 3.863281 -32.851562 4.28125 -33.25 C 4.695312 -33.644531 5.222656 -33.84375 5.859375 -33.84375 C 6.453125 -33.84375 6.96875 -33.640625 7.40625 -33.234375 C 7.84375 -32.835938 8.0625 -32.21875 8.0625 -31.375 C 8.0625 -30.53125 7.84375 -29.898438 7.40625 -29.484375 C 6.96875 -29.078125 6.453125 -28.875 5.859375 -28.875 C 5.222656 -28.875 4.695312 -29.078125 4.28125 -29.484375 C 3.863281 -29.898438 3.65625 -30.53125 3.65625 -31.375 Z M 3.65625 -31.375 "/></g></g><g transform="translate(140.951442, 49.216406)"><g><path d="M 25.265625 -12.359375 C 25.265625 -8.335938 24.25 -5.195312 22.21875 -2.9375 C 20.195312 -0.675781 17.398438 0.453125 13.828125 0.453125 C 11.617188 0.453125 9.65625 -0.0625 7.9375 -1.09375 C 6.226562 -2.132812 4.910156 -3.625 3.984375 -5.5625 C 3.054688 -7.5 2.59375 -9.765625 2.59375 -12.359375 C 2.59375 -16.390625 3.597656 -19.523438 5.609375 -21.765625 C 7.617188 -24.015625 10.410156 -25.140625 13.984375 -25.140625 C 17.441406 -25.140625 20.1875 -23.988281 22.21875 -21.6875 C 24.25 -19.394531 25.265625 -16.285156 25.265625 -12.359375 Z M 6.46875 -12.359375 C 6.46875 -9.210938 7.097656 -6.8125 8.359375 -5.15625 C 9.617188 -3.507812 11.472656 -2.6875 13.921875 -2.6875 C 16.367188 -2.6875 18.222656 -3.503906 19.484375 -5.140625 C 20.753906 -6.785156 21.390625 -9.191406 21.390625 -12.359375 C 21.390625 -15.503906 20.753906 -17.890625 19.484375 -19.515625 C 18.222656 -21.140625 16.351562 -21.953125 13.875 -21.953125 C 11.425781 -21.953125 9.578125 -21.148438 8.328125 -19.546875 C 7.085938 -17.941406 6.46875 -15.546875 6.46875 -12.359375 Z M 6.46875 -12.359375 "/></g></g><g transform="translate(168.809285, 49.216406)"><g><path d="M 19.890625 -6.734375 C 19.890625 -4.429688 19.03125 -2.65625 17.3125 -1.40625 C 15.601562 -0.164062 13.203125 0.453125 10.109375 0.453125 C 6.835938 0.453125 4.285156 -0.0664062 2.453125 -1.109375 L 2.453125 -4.578125 C 3.640625 -3.972656 4.910156 -3.5 6.265625 -3.15625 C 7.628906 -2.8125 8.941406 -2.640625 10.203125 -2.640625 C 12.148438 -2.640625 13.648438 -2.945312 14.703125 -3.5625 C 15.753906 -4.1875 16.28125 -5.140625 16.28125 -6.421875 C 16.28125 -7.378906 15.863281 -8.195312 15.03125 -8.875 C 14.195312 -9.5625 12.570312 -10.375 10.15625 -11.3125 C 7.863281 -12.164062 6.234375 -12.910156 5.265625 -13.546875 C 4.296875 -14.179688 3.570312 -14.90625 3.09375 -15.71875 C 2.625 -16.53125 2.390625 -17.5 2.390625 -18.625 C 2.390625 -20.632812 3.207031 -22.222656 4.84375 -23.390625 C 6.476562 -24.554688 8.722656 -25.140625 11.578125 -25.140625 C 14.234375 -25.140625 16.832031 -24.597656 19.375 -23.515625 L 18.046875 -20.46875 C 15.566406 -21.488281 13.320312 -22 11.3125 -22 C 9.539062 -22 8.203125 -21.722656 7.296875 -21.171875 C 6.398438 -20.617188 5.953125 -19.851562 5.953125 -18.875 C 5.953125 -18.207031 6.117188 -17.640625 6.453125 -17.171875 C 6.785156 -16.710938 7.328125 -16.269531 8.078125 -15.84375 C 8.835938 -15.425781 10.28125 -14.820312 12.40625 -14.03125 C 15.332031 -12.96875 17.3125 -11.894531 18.34375 -10.8125 C 19.375 -9.726562 19.890625 -8.367188 19.890625 -6.734375 Z M 19.890625 -6.734375 "/></g></g></g></g></g></svg>